{
.appVersion = "1352";
DisplayStrings = (
"Aa/dieresiscomb/dotaccentcomb/gravecomb/acutecomb/hungarumlautcomb/caroncomb.alt/circumflexcomb/caroncomb/brevecomb/ringcomb/tildecomb/macroncomb/hookabovecomb/dblgravecomb/breveinvertedcomb/commaturnedabovecomb/horncomb/dotbelowcomb/dieresisbelowcomb/commaaccentcomb/cedillacomb/ogonekcomb/brevebelowcomb/macronbelowcomb/strokeshortcomb ¨/dotaccent `´/hungarumlaut/circumflex/caron/breve/ring/tilde ¯¸/ogonek \012/dieresiscomb.case/dotaccentcomb.case/gravecomb.case/acutecomb.case/hungarumlautcomb.case/circumflexcomb.case/circumflexcomb.case/caroncomb.case/brevecomb.case/ringcomb.case/tildecomb.case/macroncomb.case/hookabovecomb.case/horncomb.case/brevecomb_acutecomb/brevecomb_gravecomb/brevecomb/brevecomb_hookabovecomb/brevecomb_tildecomb/circumflexcomb_acutecomb/circumflexcomb_gravecomb/circumflexcomb_hookabovecomb/circumflexcomb_tildecomb \012/brevecomb_acutecomb.case/brevecomb_gravecomb.case/brevecomb_hookabovecomb.case/brevecomb_tildecomb.case/circumflexcomb_acutecomb.case/circumflexcomb_gravecomb.case/circumflexcomb_hookabovecomb.case/circumflexcomb_tildecomb.case",

glyphs = (
{
glyphname = .notdef;
lastChange = "2021-12-03 01:38:01 +0000";
layers = (
{
layerId = "04A772B0-FA71-43EE-BB43-CAC7F0EBD631";
paths = (
{
closed = 1;
nodes = (
"479 0 LINE",
"488 8 LINE",
"488 621 LINE",
"479 630 LINE",
"58 630 LINE",
"50 620 LINE",
"50 9 LINE",
"58 0 LINE"
);
},
{
closed = 1;
nodes = (
"154 150 LINE",
"244 316 LINE",
"154 479 LINE",
"173 514 LINE",
"263 350 LINE",
"354 514 LINE",
"373 479 LINE",
"283 314 LINE",
"373 150 LINE",
"354 116 LINE",
"263 279 LINE",
"173 116 LINE"
);
},
{
closed = 1;
nodes = (
"67 613 LINE",
"471 613 LINE",
"471 16 LINE",
"67 16 LINE"
);
},
{
closed = 1;
nodes = (
"437 49 LINE",
"437 577 LINE",
"102 577 LINE",
"102 49 LINE"
);
}
);
userData = {
assembly = "SVTCA[0]	/* SetFreedomAndProjectionVectorToAxis */\012PUSHW[ ]	/* 1 value pushed */\0122 \012MDAP[1]	/* MoveDirectAbsPt */\012PUSHW[ ]	/* 1 value pushed */\0120 \012RCVT[ ]	/* ReadCVT */\012IF[ ]	/* If */\012PUSHW[ ]	/* 1 value pushed */\0126 \012MDAP[1]	/* MoveDirectAbsPt */\012ELSE[ ]	/* Else */\012PUSHW[ ]	/* 2 values pushed */\0126 7 \012MIAP[0]	/* MoveIndirectAbsPt */\012EIF[ ]	/* EndIf */\012PUSHW[ ]	/* 3 values pushed */\01216 6 2 \012SRP1[ ]	/* SetRefPoint1 */\012SRP2[ ]	/* SetRefPoint2 */\012IP[ ]	/* InterpolatePts */\012PUSHW[ ]	/* 3 values pushed */\01217 6 2 \012SRP1[ ]	/* SetRefPoint1 */\012SRP2[ ]	/* SetRefPoint2 */\012IP[ ]	/* InterpolatePts */\012PUSHW[ ]	/* 3 values pushed */\01218 6 2 \012SRP1[ ]	/* SetRefPoint1 */\012SRP2[ ]	/* SetRefPoint2 */\012IP[ ]	/* InterpolatePts */\012PUSHW[ ]	/* 3 values pushed */\01222 6 2 \012SRP1[ ]	/* SetRefPoint1 */\012SRP2[ ]	/* SetRefPoint2 */\012IP[ ]	/* InterpolatePts */\012PUSHW[ ]	/* 3 values pushed */\01223 6 2 \012SRP1[ ]	/* SetRefPoint1 */\012SRP2[ ]	/* SetRefPoint2 */\012IP[ ]	/* InterpolatePts */\012PUSHW[ ]	/* 3 values pushed */\01224 6 2 \012SRP1[ ]	/* SetRefPoint1 */\012SRP2[ ]	/* SetRefPoint2 */\012IP[ ]	/* InterpolatePts */\012IUP[0]	/* InterpolateUntPts */\012IUP[1]	/* InterpolateUntPts */";
};
width = 538;
}
);
note = .notdef;
},
{
glyphname = A;
lastChange = "2022-01-13 03:18:10 +0000";
layers = (
{
anchors = (
{
name = bottom;
position = "{204, 0}";
},
{
name = ogonek;
position = "{412, 0}";
},
{
name = top;
position = "{205, 591}";
}
);
guideLines = (
{
position = "{2913, -291}";
}
);
layerId = "04A772B0-FA71-43EE-BB43-CAC7F0EBD631";
paths = (
{
closed = 1;
nodes = (
"211 184 LINE",
"204 291 LINE",
"197 184 LINE"
);
},
{
closed = 1;
nodes = (
"182 27 LINE",
"187 105 LINE",
"219 105 LINE",
"226 27 LINE",
"382 27 LINE",
"310 564 LINE",
"105 564 LINE",
"31 27 LINE"
);
},
{
closed = 1;
nodes = (
"204 450 LINE",
"219 175 LINE",
"188 175 LINE"
);
},
{
closed = 1;
nodes = (
"413 0 LINE",
"333 591 LINE",
"83 591 LINE",
"1 0 LINE"
);
},
{
closed = 1;
nodes = (
"98 573 LINE",
"318 573 LINE",
"393 18 LINE",
"219 18 LINE",
"211 96 LINE",
"196 96 LINE",
"190 18 LINE",
"21 18 LINE"
);
}
);
userData = {
assembly = "SVTCA[0]	/* SetFreedomAndProjectionVectorToAxis */\012PUSHW[ ]	/* 4 values pushed */\0129 4 2 4 \012CALL[ ]	/* CallFunction */\012PUSHW[ ]	/* 1 value pushed */\0129 \012SRP0[ ]	/* SetRefPoint0 */\012PUSHW[ ]	/* 2 values pushed */\0123 2 \012MIRP[10100]	/* MoveIndirectRelPt */\012PUSHW[ ]	/* 1 value pushed */\0122 \012SRP0[ ]	/* SetRefPoint0 */\012PUSHW[ ]	/* 1 value pushed */\0125 \012MDRP[10000]	/* MoveDirectRelPt */\012IUP[0]	/* InterpolateUntPts */\012IUP[1]	/* InterpolateUntPts */";
};
width = 414;
}
);
leftKerningGroup = A;
note = A;
rightKerningGroup = A;
unicode = 0041;
},
{
color = 3;
glyphname = Aogonek;
lastChange = "2022-01-14 23:38:49 +0000";
layers = (
{
anchors = (
{
name = bottom;
position = "{202, 1}";
},
{
name = ogonek;
position = "{412, 0}";
},
{
name = top;
position = "{204, 591}";
}
);
background = {
paths = (
{
closed = 1;
nodes = (
"-318 27 LINE",
"-313 105 LINE",
"-281 105 LINE",
"-274 27 LINE",
"-118 27 LINE",
"-190 564 LINE",
"-395 564 LINE",
"-469 27 LINE"
);
},
{
closed = 1;
nodes = (
"-296 450 LINE",
"-281 175 LINE",
"-312 175 LINE"
);
},
{
closed = 1;
nodes = (
"-160 -129 OFFCURVE",
"-143 -121 OFFCURVE",
"-136 -116 CURVE",
"-144 -89 LINE",
"-148 -90 OFFCURVE",
"-154 -93 OFFCURVE",
"-165 -93 CURVE SMOOTH",
"-180 -93 OFFCURVE",
"-194 -84 OFFCURVE",
"-194 -64 CURVE SMOOTH",
"-194 -31 OFFCURVE",
"-163 4 OFFCURVE",
"-118 27 CURVE",
"-158 31 LINE",
"-182 21 OFFCURVE",
"-248 -26 OFFCURVE",
"-248 -75 CURVE SMOOTH",
"-248 -110 OFFCURVE",
"-223 -129 OFFCURVE",
"-183 -129 CURVE SMOOTH"
);
},
{
closed = 1;
nodes = (
"-160 -129 OFFCURVE",
"-143 -121 OFFCURVE",
"-136 -116 CURVE",
"-144 -89 LINE",
"-148 -90 OFFCURVE",
"-154 -93 OFFCURVE",
"-165 -93 CURVE SMOOTH",
"-180 -93 OFFCURVE",
"-194 -84 OFFCURVE",
"-194 -64 CURVE SMOOTH",
"-194 -31 OFFCURVE",
"-163 4 OFFCURVE",
"-118 27 CURVE",
"-190 564 LINE",
"-395 564 LINE",
"-469 27 LINE",
"-318 27 LINE",
"-313 105 LINE",
"-281 105 LINE",
"-274 27 LINE",
"-166 27 LINE",
"-194 12 OFFCURVE",
"-248 -31 OFFCURVE",
"-248 -75 CURVE SMOOTH",
"-248 -110 OFFCURVE",
"-223 -129 OFFCURVE",
"-183 -129 CURVE SMOOTH"
);
},
{
closed = 1;
nodes = (
"-296 450 LINE",
"-281 175 LINE",
"-312 175 LINE"
);
},
{
closed = 1;
nodes = (
"-151 -155 OFFCURVE",
"-116 -141 OFFCURVE",
"-107 -122 CURVE",
"-121 -75 LINE",
"-137 -66 LINE",
"-150 -64 LINE",
"-152 -64 OFFCURVE",
"-154 -65 OFFCURVE",
"-155 -65 CURVE SMOOTH",
"-159 -67 OFFCURVE",
"-161 -67 OFFCURVE",
"-165 -67 CURVE SMOOTH",
"-168 -67 OFFCURVE",
"-168 -67 OFFCURVE",
"-168 -64 CURVE SMOOTH",
"-168 -39 OFFCURVE",
"-137 -8 OFFCURVE",
"-90 11 CURVE",
"-167 590 LINE",
"-418 590 LINE",
"-499 1 LINE",
"-294 1 LINE",
"-289 79 LINE",
"-305 79 LINE",
"-298 1 LINE",
"-143 1 LINE",
"-158 60 LINE",
"-221 34 OFFCURVE",
"-274 -26 OFFCURVE",
"-274 -75 CURVE SMOOTH",
"-274 -124 OFFCURVE",
"-238 -155 OFFCURVE",
"-183 -155 CURVE SMOOTH"
);
},
{
closed = 1;
nodes = (
"-228 -137 OFFCURVE",
"-256 -114 OFFCURVE",
"-256 -75 CURVE SMOOTH",
"-256 -27 OFFCURVE",
"-198 19 OFFCURVE",
"-170 34 CURVE",
"-166 19 LINE",
"-281 19 LINE",
"-288 97 LINE",
"-305 97 LINE",
"-310 19 LINE",
"-478 19 LINE",
"-402 572 LINE",
"-183 572 LINE",
"-109 22 LINE",
"-156 0 OFFCURVE",
"-186 -34 OFFCURVE",
"-186 -64 CURVE SMOOTH",
"-186 -77 OFFCURVE",
"-178 -85 OFFCURVE",
"-165 -85 CURVE SMOOTH",
"-158 -85 OFFCURVE",
"-153 -84 OFFCURVE",
"-150 -82 CURVE SMOOTH",
"-148 -82 OFFCURVE",
"-147 -82 OFFCURVE",
"-146 -81 CURVE",
"-136 -87 LINE",
"-127 -119 LINE",
"-138 -130 OFFCURVE",
"-162 -137 OFFCURVE",
"-183 -137 CURVE SMOOTH"
);
},
{
closed = 1;
nodes = (
"-269 468 LINE",
"-323 468 LINE",
"-308 201 LINE",
"-284 201 LINE"
);
},
{
closed = 1;
nodes = (
"-289 183 LINE",
"-304 450 LINE",
"-288 450 LINE",
"-304 183 LINE"
);
},
{
closed = 1;
nodes = (
"182 27 LINE",
"187 105 LINE",
"219 105 LINE",
"226 27 LINE",
"382 27 LINE",
"310 564 LINE",
"105 564 LINE",
"31 27 LINE"
);
},
{
closed = 1;
nodes = (
"204 450 LINE",
"219 175 LINE",
"188 175 LINE"
);
},
{
closed = 1;
nodes = (
"340 -129 OFFCURVE",
"357 -121 OFFCURVE",
"364 -116 CURVE",
"356 -89 LINE",
"352 -90 OFFCURVE",
"346 -93 OFFCURVE",
"335 -93 CURVE SMOOTH",
"320 -93 OFFCURVE",
"306 -84 OFFCURVE",
"306 -64 CURVE SMOOTH",
"306 -31 OFFCURVE",
"337 4 OFFCURVE",
"382 27 CURVE",
"310 564 LINE",
"105 564 LINE",
"31 27 LINE",
"182 27 LINE",
"187 105 LINE",
"219 105 LINE",
"226 27 LINE",
"334 27 LINE",
"306 12 OFFCURVE",
"252 -31 OFFCURVE",
"252 -75 CURVE SMOOTH",
"252 -110 OFFCURVE",
"277 -129 OFFCURVE",
"317 -129 CURVE SMOOTH"
);
},
{
closed = 1;
nodes = (
"204 450 LINE",
"219 175 LINE",
"188 175 LINE"
);
},
{
closed = 1;
nodes = (
"210.552 183 LINE",
"204 312 LINE",
"196.479 183 LINE"
);
},
{
closed = 1;
nodes = (
"260 1 LINE",
"239 -23 OFFCURVE",
"226 -51 OFFCURVE",
"226 -75 CURVE SMOOTH",
"226 -124 OFFCURVE",
"262 -155 OFFCURVE",
"317 -155 CURVE SMOOTH",
"349 -155 OFFCURVE",
"380 -142 OFFCURVE",
"394 -124 CURVE",
"373 -56 LINE",
"357 -65 OFFCURVE",
"348 -70 OFFCURVE",
"341 -70 CURVE SMOOTH",
"336 -70 OFFCURVE",
"332 -68 OFFCURVE",
"332 -60 CURVE SMOOTH",
"332 -39 OFFCURVE",
"363 -6 OFFCURVE",
"410 13 CURVE",
"333 590 LINE",
"82 590 LINE",
"1 1 LINE"
);
},
{
closed = 1;
nodes = (
"271.718 -137 OFFCURVE",
"244 -113.608 OFFCURVE",
"244 -75 CURVE SMOOTH",
"244 -27.144 OFFCURVE",
"301.583 18.71 OFFCURVE",
"330.222 34.052 CURVE",
"334 19 LINE",
"218.686 19 LINE",
"211.686 97 LINE",
"194.504 97 LINE",
"189.504 19 LINE",
"21.822 19 LINE",
"98.027 572 LINE",
"316.999 572 LINE",
"390.691 22.378 LINE",
"343.82 -0.112 OFFCURVE",
"314 -34.193 OFFCURVE",
"314 -64 CURVE SMOOTH",
"314 -77.148 OFFCURVE",
"321.852 -85 OFFCURVE",
"335 -85 CURVE SMOOTH",
"344 -85 OFFCURVE",
"352 -82 OFFCURVE",
"361 -77 CURVE",
"373.17 -118.789 LINE",
"361.807 -129.703 OFFCURVE",
"338.463 -137 OFFCURVE",
"317 -137 CURVE SMOOTH"
);
}
);
};
layerId = "04A772B0-FA71-43EE-BB43-CAC7F0EBD631";
paths = (
{
closed = 1;
nodes = (
"182 27 LINE",
"187 105 LINE",
"219 105 LINE",
"226 27 LINE",
"382 27 LINE",
"310 564 LINE",
"105 564 LINE",
"31 27 LINE"
);
},
{
closed = 1;
nodes = (
"204 450 LINE",
"219 175 LINE",
"188 175 LINE"
);
},
{
closed = 1;
nodes = (
"345 -129 OFFCURVE",
"367 -121 OFFCURVE",
"374 -116 CURVE",
"366 -84 LINE",
"362 -85 OFFCURVE",
"356 -88 OFFCURVE",
"345 -88 CURVE SMOOTH",
"330 -88 OFFCURVE",
"316 -79 OFFCURVE",
"316 -59 CURVE SMOOTH",
"316 -26 OFFCURVE",
"343 5 OFFCURVE",
"382 27 CURVE",
"310 564 LINE",
"105 564 LINE",
"31 27 LINE",
"182 27 LINE",
"187 105 LINE",
"219 105 LINE",
"226 27 LINE",
"334 27 LINE",
"306 12 OFFCURVE",
"252 -31 OFFCURVE",
"252 -75 CURVE SMOOTH",
"252 -110 OFFCURVE",
"277 -129 OFFCURVE",
"317 -129 CURVE SMOOTH"
);
},
{
closed = 1;
nodes = (
"204 450 LINE",
"219 175 LINE",
"188 175 LINE"
);
},
{
closed = 1;
nodes = (
"210.552 183 LINE",
"204 312 LINE",
"196.479 183 LINE"
);
},
{
closed = 1;
nodes = (
"273 1 LINE",
"278 16 LINE",
"243 -12 OFFCURVE",
"226 -43 OFFCURVE",
"226 -75 CURVE SMOOTH",
"226 -124 OFFCURVE",
"262 -155 OFFCURVE",
"317 -155 CURVE SMOOTH",
"353 -155 OFFCURVE",
"390 -142 OFFCURVE",
"404 -124 CURVE",
"383 -51 LINE",
"367 -60 OFFCURVE",
"358 -65 OFFCURVE",
"351 -65 CURVE SMOOTH",
"346 -65 OFFCURVE",
"342 -63 OFFCURVE",
"342 -55 CURVE SMOOTH",
"342 -34 OFFCURVE",
"369 -5 OFFCURVE",
"410 13 CURVE",
"333 590 LINE",
"82 590 LINE",
"1 1 LINE"
);
},
{
closed = 1;
nodes = (
"271.718 -137 OFFCURVE",
"244 -113.608 OFFCURVE",
"244 -75 CURVE SMOOTH",
"244 -27.144 OFFCURVE",
"301.583 18.71 OFFCURVE",
"330.222 34.052 CURVE",
"334 19 LINE",
"218.686 19 LINE",
"211.686 97 LINE",
"194.504 97 LINE",
"189.504 19 LINE",
"21.822 19 LINE",
"98.027 572 LINE",
"316.999 572 LINE",
"390.691 22.378 LINE",
"350 1 OFFCURVE",
"324 -29 OFFCURVE",
"324 -59 CURVE SMOOTH",
"324 -72 OFFCURVE",
"332 -80 OFFCURVE",
"345 -80 CURVE SMOOTH",
"354 -80 OFFCURVE",
"362 -77 OFFCURVE",
"371 -72 CURVE",
"383 -119 LINE",
"372 -130 OFFCURVE",
"342 -137 OFFCURVE",
"317 -137 CURVE SMOOTH"
);
}
);
width = 414;
}
);
leftKerningGroup = A;
leftMetricsKey = A;
rightKerningGroup = A;
unicode = 0104;
},
{
glyphname = AE;
lastChange = "2021-12-06 10:21:32 +0000";
layers = (
{
anchors = (
{
name = bottom;
position = "{263, 0}";
},
{
name = top;
position = "{304, 591}";
}
);
layerId = "04A772B0-FA71-43EE-BB43-CAC7F0EBD631";
paths = (
{
closed = 1;
nodes = (
"515 0 LINE",
"515 153 LINE",
"400 153 LINE",
"392 218 LINE",
"506 218 LINE",
"506 386 LINE",
"369 386 LINE",
"368 397 OFFCURVE",
"366 406 OFFCURVE",
"365 413 CURVE SMOOTH",
"361 436 LINE",
"515 436 LINE",
"515 591 LINE",
"84 591 LINE",
"-2 0 LINE"
);
},
{
closed = 1;
nodes = (
"215 184 LINE",
"208 302 LINE",
"201 184 LINE"
);
},
{
closed = 1;
nodes = (
"206 428 LINE",
"208 450 LINE",
"209 428 LINE",
"224 175 LINE",
"192 175 LINE"
);
},
{
closed = 1;
nodes = (
"99 573 LINE",
"497 573 LINE",
"497 454 LINE",
"340 454 LINE",
"342 439 OFFCURVE",
"344 424 OFFCURVE",
"347 411 CURVE SMOOTH",
"349 398 OFFCURVE",
"351 383 OFFCURVE",
"353 368 CURVE",
"488 368 LINE",
"488 236 LINE",
"371 236 LINE",
"373 219 OFFCURVE",
"375 202 OFFCURVE",
"378 186 CURVE SMOOTH",
"381 170 OFFCURVE",
"383 153 OFFCURVE",
"385 134 CURVE",
"497 134 LINE",
"497 18 LINE",
"223 18 LINE",
"215 96 LINE",
"200 96 LINE",
"194 18 LINE",
"20 18 LINE"
);
},
{
closed = 1;
nodes = (
"186 27 LINE",
"191 105 LINE",
"224 105 LINE",
"231 27 LINE",
"488 27 LINE",
"488 125 LINE",
"377 125 LINE",
"361 245 LINE",
"479 245 LINE",
"479 359 LINE",
"345 359 LINE",
"331 463 LINE",
"488 463 LINE",
"488 564 LINE",
"107 564 LINE",
"31 27 LINE"
);
}
);
userData = {
assembly = "SVTCA[0]	/* SetFreedomAndProjectionVectorToAxis */\012PUSHW[ ]	/* 4 values pushed */\01227 3 14 4 \012CALL[ ]	/* CallFunction */\012PUSHW[ ]	/* 1 value pushed */\01214 \012SRP0[ ]	/* SetRefPoint0 */\012PUSHW[ ]	/* 1 value pushed */\0122 \012MDRP[10000]	/* MoveDirectRelPt */\012IUP[0]	/* InterpolateUntPts */\012IUP[1]	/* InterpolateUntPts */";
};
width = 521;
}
);
leftKerningGroup = AE;
note = AE;
rightKerningGroup = E;
rightMetricsKey = E;
unicode = 00C6;
},
{
glyphname = B;
lastChange = "2021-12-17 05:35:05 +0000";
layers = (
{
layerId = "04A772B0-FA71-43EE-BB43-CAC7F0EBD631";
paths = (
{
closed = 1;
nodes = (
"226 0 LINE SMOOTH",
"323 0 OFFCURVE",
"381 34 OFFCURVE",
"381 141 CURVE SMOOTH",
"381 211 LINE SMOOTH",
"381 263 OFFCURVE",
"366 299 OFFCURVE",
"337 320 CURVE",
"358 344 OFFCURVE",
"368 375 OFFCURVE",
"368 414 CURVE SMOOTH",
"368 472 LINE SMOOTH",
"368 543 OFFCURVE",
"329 591 OFFCURVE",
"234 591 CURVE SMOOTH",
"9 591 LINE",
"9 0 LINE"
);
},
{
closed = 1;
nodes = (
"177 253 LINE",
"190 253 LINE SMOOTH",
"198 253 OFFCURVE",
"203 246 OFFCURVE",
"204 231 CURVE SMOOTH",
"205 216 OFFCURVE",
"206 198 OFFCURVE",
"206 177 CURVE SMOOTH",
"206 156 OFFCURVE",
"205 138 OFFCURVE",
"203 123 CURVE SMOOTH",
"200 108 OFFCURVE",
"196 101 OFFCURVE",
"190 101 CURVE SMOOTH",
"177 101 LINE"
);
},
{
closed = 1;
nodes = (
"190 110 LINE SMOOTH",
"193 110 OFFCURVE",
"195 117 OFFCURVE",
"196 130 CURVE SMOOTH",
"197 143 OFFCURVE",
"197 158 OFFCURVE",
"197 177 CURVE SMOOTH",
"197 196 OFFCURVE",
"197 212 OFFCURVE",
"196 225 CURVE SMOOTH",
"195 238 OFFCURVE",
"193 244 OFFCURVE",
"190 244 CURVE SMOOTH",
"186 244 LINE",
"186 110 LINE"
);
},
{
closed = 1;
nodes = (
"26 573 LINE",
"234 573 LINE SMOOTH",
"317 573 OFFCURVE",
"350 532 OFFCURVE",
"350 472 CURVE SMOOTH",
"350 414 LINE SMOOTH",
"350 371 OFFCURVE",
"336 336 OFFCURVE",
"303 317 CURVE",
"342 305 OFFCURVE",
"363 271 OFFCURVE",
"363 211 CURVE SMOOTH",
"363 141 LINE SMOOTH",
"363 49 OFFCURVE",
"314 18 OFFCURVE",
"226 18 CURVE SMOOTH",
"26 18 LINE"
);
},
{
closed = 1;
nodes = (
"226 27 LINE SMOOTH",
"306 27 OFFCURVE",
"355 54 OFFCURVE",
"355 141 CURVE SMOOTH",
"355 211 LINE SMOOTH",
"355 282 OFFCURVE",
"315 314 OFFCURVE",
"266 314 CURVE",
"266 316 LINE",
"321 323 OFFCURVE",
"342 363 OFFCURVE",
"342 414 CURVE SMOOTH",
"342 472 LINE SMOOTH",
"342 527 OFFCURVE",
"310 564 OFFCURVE",
"234 564 CURVE SMOOTH",
"34 564 LINE",
"34 27 LINE"
);
},
{
closed = 1;
nodes = (
"177 488 LINE",
"190 488 LINE SMOOTH",
"198 488 OFFCURVE",
"203 481 OFFCURVE",
"204 467 CURVE SMOOTH",
"205 453 OFFCURVE",
"206 436 OFFCURVE",
"206 415 CURVE SMOOTH",
"206 395 OFFCURVE",
"205 378 OFFCURVE",
"202 364 CURVE SMOOTH",
"199 350 OFFCURVE",
"194 343 OFFCURVE",
"188 343 CURVE SMOOTH",
"177 343 LINE"
);
},
{
closed = 1;
nodes = (
"188 352 LINE SMOOTH",
"191 352 OFFCURVE",
"194 358 OFFCURVE",
"195 371 CURVE SMOOTH",
"196 383 OFFCURVE",
"197 398 OFFCURVE",
"197 415 CURVE SMOOTH",
"197 432 OFFCURVE",
"197 447 OFFCURVE",
"196 460 CURVE SMOOTH",
"195 472 OFFCURVE",
"193 478 OFFCURVE",
"190 478 CURVE SMOOTH",
"186 478 LINE",
"186 352 LINE"
);
}
);
userData = {
assembly = "SVTCA[0]	/* SetFreedomAndProjectionVectorToAxis */\012PUSHW[ ]	/* 4 values pushed */\01219 2 16 4 \012CALL[ ]	/* CallFunction */\012PUSHW[ ]	/* 4 values pushed */\01228 1 25 4 \012CALL[ ]	/* CallFunction */\012PUSHW[ ]	/* 3 values pushed */\0129 25 28 \012SRP1[ ]	/* SetRefPoint1 */\012SRP2[ ]	/* SetRefPoint2 */\012IP[ ]	/* InterpolatePts */\012PUSHW[ ]	/* 3 values pushed */\01264 25 28 \012SRP1[ ]	/* SetRefPoint1 */\012SRP2[ ]	/* SetRefPoint2 */\012IP[ ]	/* InterpolatePts */\012IUP[0]	/* InterpolateUntPts */\012IUP[1]	/* InterpolateUntPts */";
};
width = 383;
}
);
leftKerningGroup = H;
leftMetricsKey = H;
note = B;
rightKerningGroup = B;
rightMetricsKey = "=O-5";
unicode = 0042;
},
{
glyphname = C;
lastChange = "2021-12-17 05:35:05 +0000";
layers = (
{
anchors = (
{
name = bottom;
position = "{192, 0}";
},
{
name = top;
position = "{189, 591}";
}
);
background = {
paths = (
{
closed = 1;
nodes = (
"311 -10 OFFCURVE",
"364 30 OFFCURVE",
"364 187 CURVE SMOOTH",
"364 280 LINE",
"201 280 LINE",
"201 298 LINE",
"364 298 LINE",
"364 450 LINE SMOOTH",
"364 559 OFFCURVE",
"298 600 OFFCURVE",
"189 600 CURVE SMOOTH",
"79 600 OFFCURVE",
"7 558 OFFCURVE",
"7 450 CURVE SMOOTH",
"7 186 LINE SMOOTH",
"7 30 OFFCURVE",
"67 -10 OFFCURVE",
"189 -10 CURVE SMOOTH"
);
},
{
closed = 1;
nodes = (
"79 8 OFFCURVE",
"24 45 OFFCURVE",
"24 186 CURVE SMOOTH",
"24 450 LINE SMOOTH",
"24 546 OFFCURVE",
"90 582 OFFCURVE",
"189 582 CURVE SMOOTH",
"288 582 OFFCURVE",
"347 546 OFFCURVE",
"347 450 CURVE SMOOTH",
"347 316 LINE",
"194 316 LINE",
"194 457 LINE SMOOTH",
"194 471 OFFCURVE",
"194 475 OFFCURVE",
"189 475 CURVE SMOOTH",
"185 475 OFFCURVE",
"183 471 OFFCURVE",
"183 457 CURVE SMOOTH",
"183 128 LINE SMOOTH",
"183 116 OFFCURVE",
"185 110 OFFCURVE",
"189 110 CURVE SMOOTH",
"192 110 OFFCURVE",
"194 116 OFFCURVE",
"194 128 CURVE SMOOTH",
"194 262 LINE",
"347 262 LINE",
"347 187 LINE SMOOTH",
"347 45 OFFCURVE",
"298 8 OFFCURVE",
"189 8 CURVE SMOOTH"
);
},
{
closed = 1;
nodes = (
"294 17 OFFCURVE",
"338 52 OFFCURVE",
"338 187 CURVE SMOOTH",
"338 253 LINE",
"202 253 LINE",
"202 128 LINE SMOOTH",
"202 113 OFFCURVE",
"198 101 OFFCURVE",
"189 101 CURVE SMOOTH",
"178 101 OFFCURVE",
"175 114 OFFCURVE",
"175 128 CURVE SMOOTH",
"175 457 LINE SMOOTH",
"175 472 OFFCURVE",
"177 484 OFFCURVE",
"189 484 CURVE SMOOTH",
"200 484 OFFCURVE",
"202 472 OFFCURVE",
"202 457 CURVE SMOOTH",
"202 325 LINE",
"338 325 LINE",
"338 450 LINE SMOOTH",
"338 541 OFFCURVE",
"282 573 OFFCURVE",
"189 573 CURVE SMOOTH",
"94 573 OFFCURVE",
"33 539 OFFCURVE",
"33 450 CURVE SMOOTH",
"33 186 LINE SMOOTH",
"33 51 OFFCURVE",
"83 17 OFFCURVE",
"189 17 CURVE SMOOTH"
);
}
);
};
layerId = "04A772B0-FA71-43EE-BB43-CAC7F0EBD631";
paths = (
{
closed = 1;
nodes = (
"311 -10 OFFCURVE",
"364 30 OFFCURVE",
"364 187 CURVE SMOOTH",
"364 280 LINE",
"201 280 LINE",
"201 298 LINE",
"364 298 LINE",
"364 450 LINE SMOOTH",
"364 559 OFFCURVE",
"298 600 OFFCURVE",
"189 600 CURVE SMOOTH",
"79 600 OFFCURVE",
"7 558 OFFCURVE",
"7 450 CURVE SMOOTH",
"7 186 LINE SMOOTH",
"7 30 OFFCURVE",
"67 -10 OFFCURVE",
"189 -10 CURVE SMOOTH"
);
},
{
closed = 1;
nodes = (
"79 8 OFFCURVE",
"24 45 OFFCURVE",
"24 186 CURVE SMOOTH",
"24 450 LINE SMOOTH",
"24 546 OFFCURVE",
"90 582 OFFCURVE",
"189 582 CURVE SMOOTH",
"288 582 OFFCURVE",
"347 546 OFFCURVE",
"347 450 CURVE SMOOTH",
"347 316 LINE",
"194 316 LINE",
"194 457 LINE SMOOTH",
"194 471 OFFCURVE",
"194 475 OFFCURVE",
"189 475 CURVE SMOOTH",
"185 475 OFFCURVE",
"183 471 OFFCURVE",
"183 457 CURVE SMOOTH",
"183 128 LINE SMOOTH",
"183 116 OFFCURVE",
"185 110 OFFCURVE",
"189 110 CURVE SMOOTH",
"192 110 OFFCURVE",
"194 116 OFFCURVE",
"194 128 CURVE SMOOTH",
"194 262 LINE",
"347 262 LINE",
"347 187 LINE SMOOTH",
"347 45 OFFCURVE",
"298 8 OFFCURVE",
"189 8 CURVE SMOOTH"
);
},
{
closed = 1;
nodes = (
"294 17 OFFCURVE",
"338 52 OFFCURVE",
"338 187 CURVE SMOOTH",
"338 253 LINE",
"202 253 LINE",
"202 126 LINE SMOOTH",
"202 111 OFFCURVE",
"198 101 OFFCURVE",
"189 101 CURVE SMOOTH",
"178 101 OFFCURVE",
"175 111 OFFCURVE",
"175 126 CURVE SMOOTH",
"175 457 LINE SMOOTH",
"175 472 OFFCURVE",
"177 484 OFFCURVE",
"189 484 CURVE SMOOTH",
"200 484 OFFCURVE",
"202 472 OFFCURVE",
"202 457 CURVE SMOOTH",
"202 325 LINE",
"338 325 LINE",
"338 450 LINE SMOOTH",
"338 541 OFFCURVE",
"282 573 OFFCURVE",
"189 573 CURVE SMOOTH",
"94 573 OFFCURVE",
"33 539 OFFCURVE",
"33 450 CURVE SMOOTH",
"33 186 LINE SMOOTH",
"33 51 OFFCURVE",
"83 17 OFFCURVE",
"189 17 CURVE SMOOTH"
);
}
);
width = 370;
}
);
leftKerningGroup = O;
leftMetricsKey = O;
note = C;
rightKerningGroup = C;
unicode = 0043;
},
{
color = 3;
glyphname = Ccedilla;
lastChange = "2022-01-13 00:16:46 +0000";
layers = (
{
anchors = (
{
name = bottom;
position = "{192, 0}";
},
{
name = top;
position = "{189, 591}";
}
);
background = {
paths = (
{
closed = 1;
nodes = (
"311 -10 OFFCURVE",
"364 30 OFFCURVE",
"364 187 CURVE SMOOTH",
"364 280 LINE",
"201 280 LINE",
"201 298 LINE",
"364 298 LINE",
"364 450 LINE SMOOTH",
"364 559 OFFCURVE",
"298 600 OFFCURVE",
"189 600 CURVE SMOOTH",
"79 600 OFFCURVE",
"7 558 OFFCURVE",
"7 450 CURVE SMOOTH",
"7 186 LINE SMOOTH",
"7 30 OFFCURVE",
"67 -10 OFFCURVE",
"189 -10 CURVE SMOOTH"
);
},
{
closed = 1;
nodes = (
"79 8 OFFCURVE",
"24 45 OFFCURVE",
"24 186 CURVE SMOOTH",
"24 450 LINE SMOOTH",
"24 546 OFFCURVE",
"90 582 OFFCURVE",
"189 582 CURVE SMOOTH",
"288 582 OFFCURVE",
"347 546 OFFCURVE",
"347 450 CURVE SMOOTH",
"347 316 LINE",
"194 316 LINE",
"194 457 LINE SMOOTH",
"194 471 OFFCURVE",
"194 475 OFFCURVE",
"189 475 CURVE SMOOTH",
"185 475 OFFCURVE",
"183 471 OFFCURVE",
"183 457 CURVE SMOOTH",
"183 128 LINE SMOOTH",
"183 116 OFFCURVE",
"185 110 OFFCURVE",
"189 110 CURVE SMOOTH",
"192 110 OFFCURVE",
"194 116 OFFCURVE",
"194 128 CURVE SMOOTH",
"194 262 LINE",
"347 262 LINE",
"347 187 LINE SMOOTH",
"347 45 OFFCURVE",
"298 8 OFFCURVE",
"189 8 CURVE SMOOTH"
);
},
{
closed = 1;
nodes = (
"294 17 OFFCURVE",
"338 52 OFFCURVE",
"338 187 CURVE SMOOTH",
"338 253 LINE",
"202 253 LINE",
"202 126 LINE SMOOTH",
"202 111 OFFCURVE",
"198 101 OFFCURVE",
"189 101 CURVE SMOOTH",
"178 101 OFFCURVE",
"175 111 OFFCURVE",
"175 126 CURVE SMOOTH",
"175 457 LINE SMOOTH",
"175 472 OFFCURVE",
"177 484 OFFCURVE",
"189 484 CURVE SMOOTH",
"200 484 OFFCURVE",
"202 472 OFFCURVE",
"202 457 CURVE SMOOTH",
"202 325 LINE",
"338 325 LINE",
"338 450 LINE SMOOTH",
"338 541 OFFCURVE",
"282 573 OFFCURVE",
"189 573 CURVE SMOOTH",
"94 573 OFFCURVE",
"33 539 OFFCURVE",
"33 450 CURVE SMOOTH",
"33 186 LINE SMOOTH",
"33 51 OFFCURVE",
"83 17 OFFCURVE",
"189 17 CURVE SMOOTH"
);
},
{
closed = 1;
nodes = (
"238 -140 OFFCURVE",
"266 -113 OFFCURVE",
"266 -82 CURVE SMOOTH",
"266 -54 OFFCURVE",
"242 -32 OFFCURVE",
"209 -32 CURVE SMOOTH",
"196 -32 OFFCURVE",
"190 -36 OFFCURVE",
"185 -38 CURVE",
"189 -41 LINE",
"209 27 LINE",
"182 27 LINE",
"149 -49 LINE",
"173 -66 LINE",
"176 -61 OFFCURVE",
"183 -58 OFFCURVE",
"190 -58 CURVE SMOOTH",
"203 -58 OFFCURVE",
"212 -67 OFFCURVE",
"212 -81 CURVE SMOOTH",
"212 -94 OFFCURVE",
"201 -106 OFFCURVE",
"186 -106 CURVE SMOOTH",
"170 -106 OFFCURVE",
"154 -97 OFFCURVE",
"146 -90 CURVE",
"133 -120 LINE",
"141 -126 OFFCURVE",
"163 -140 OFFCURVE",
"195 -140 CURVE SMOOTH"
);
},
{
closed = 1;
nodes = (
"238 -140 OFFCURVE",
"266 -113 OFFCURVE",
"266 -82 CURVE SMOOTH",
"266 -54 OFFCURVE",
"242 -32 OFFCURVE",
"209 -32 CURVE SMOOTH",
"200 -32 OFFCURVE",
"195 -34 OFFCURVE",
"191 -36 CURVE",
"206 17 LINE",
"299 21 OFFCURVE",
"338 60 OFFCURVE",
"338 187 CURVE SMOOTH",
"338 253 LINE",
"202 253 LINE",
"202 126 LINE SMOOTH",
"202 111 OFFCURVE",
"198 101 OFFCURVE",
"189 101 CURVE SMOOTH",
"178 101 OFFCURVE",
"175 111 OFFCURVE",
"175 126 CURVE SMOOTH",
"175 457 LINE SMOOTH",
"175 472 OFFCURVE",
"177 484 OFFCURVE",
"189 484 CURVE SMOOTH",
"200 484 OFFCURVE",
"202 472 OFFCURVE",
"202 457 CURVE SMOOTH",
"202 325 LINE",
"338 325 LINE",
"338 450 LINE SMOOTH",
"338 541 OFFCURVE",
"282 573 OFFCURVE",
"189 573 CURVE SMOOTH",
"94 573 OFFCURVE",
"33 539 OFFCURVE",
"33 450 CURVE SMOOTH",
"33 186 LINE SMOOTH",
"33 56 OFFCURVE",
"79 20 OFFCURVE",
"178 17 CURVE",
"149 -49 LINE",
"173 -66 LINE",
"176 -61 OFFCURVE",
"183 -58 OFFCURVE",
"190 -58 CURVE SMOOTH",
"203 -58 OFFCURVE",
"212 -67 OFFCURVE",
"212 -81 CURVE SMOOTH",
"212 -94 OFFCURVE",
"201 -106 OFFCURVE",
"186 -106 CURVE SMOOTH",
"170 -106 OFFCURVE",
"154 -97 OFFCURVE",
"146 -90 CURVE",
"133 -120 LINE",
"141 -126 OFFCURVE",
"163 -140 OFFCURVE",
"195 -140 CURVE SMOOTH"
);
},
{
closed = 1;
nodes = (
"249.207 -166 OFFCURVE",
"292 -129.88 OFFCURVE",
"292 -82 CURVE SMOOTH",
"292 -39.231 OFFCURVE",
"255.489 -6 OFFCURVE",
"209 -6 CURVE SMOOTH",
"206.9 -6 OFFCURVE",
"203.797 -6.091 OFFCURVE",
"200.635 -6.441 CURVE",
"219.936 -29.233 LINE",
"226.056 -7.61 LINE",
"324.369 2.615 OFFCURVE",
"364 59.729 OFFCURVE",
"364 187 CURVE SMOOTH",
"364 279 LINE",
"176 279 LINE",
"176 126 LINE SMOOTH",
"176 118.434 OFFCURVE",
"191.474 127 OFFCURVE",
"189 127 CURVE SMOOTH",
"183.22 127 OFFCURVE",
"201 114.538 OFFCURVE",
"201 126 CURVE SMOOTH",
"201 457 LINE SMOOTH",
"201 472.176 OFFCURVE",
"181.298 458 OFFCURVE",
"189 458 CURVE SMOOTH",
"198.8 458 OFFCURVE",
"176 473.671 OFFCURVE",
"176 457 CURVE SMOOTH",
"176 299 LINE",
"364 299 LINE",
"364 450 LINE SMOOTH",
"364 549.299 OFFCURVE",
"305.156 599 OFFCURVE",
"189 599 CURVE SMOOTH",
"70.515 599 OFFCURVE",
"7 547.489 OFFCURVE",
"7 450 CURVE SMOOTH",
"7 186 LINE SMOOTH",
"7 65.614 OFFCURVE",
"45.823 7.976 OFFCURVE",
"139.57 -5.828 CURVE",
"116.665 -57.958 LINE",
"164.385 -91.759 LINE",
"184.271 -87.582 LINE",
"203.989 -70.68 OFFCURVE",
"191.913 -84 OFFCURVE",
"190 -84 CURVE SMOOTH",
"189.34 -84 OFFCURVE",
"186 -81.66 OFFCURVE",
"186 -81 CURVE SMOOTH",
"186 -81.992 OFFCURVE",
"189.448 -80 OFFCURVE",
"186 -80 CURVE SMOOTH",
"177.121 -80 OFFCURVE",
"162.754 -72.486 OFFCURVE",
"159.972 -66.87 CURVE",
"127.326 -67.702 LINE",
"106.66 -115.394 LINE",
"110.801 -131.013 LINE",
"117.4 -140.8 LINE",
"126.199 -147.399 OFFCURVE",
"155.429 -166 OFFCURVE",
"195 -166 CURVE SMOOTH"
);
},
{
closed = 1;
nodes = (
"160.67 -148 OFFCURVE",
"136.446 -132.584 OFFCURVE",
"128.2 -126.4 CURVE",
"125.66 -116.819 LINE",
"143.842 -74.859 LINE",
"149.823 -86.934 OFFCURVE",
"170.733 -98 OFFCURVE",
"186 -98 CURVE SMOOTH",
"195.982 -98 OFFCURVE",
"204 -90.372 OFFCURVE",
"204 -81 CURVE SMOOTH",
"204 -71.461 OFFCURVE",
"198.837 -66 OFFCURVE",
"190 -66 CURVE SMOOTH",
"185.389 -66 OFFCURVE",
"181.217 -67.853 OFFCURVE",
"179.86 -70.116 CURVE",
"168.376 -72.528 LINE",
"139.051 -51.756 LINE",
"165.986 9.544 LINE",
"63.367 15.94 OFFCURVE",
"25 64.914 OFFCURVE",
"25 186 CURVE SMOOTH",
"25 450 LINE SMOOTH",
"25 536.95 OFFCURVE",
"80.481 581 OFFCURVE",
"189 581 CURVE SMOOTH",
"295.203 581 OFFCURVE",
"346 538.835 OFFCURVE",
"346 450 CURVE SMOOTH",
"346 317 LINE",
"194 317 LINE",
"194 457 LINE SMOOTH",
"194 471.533 OFFCURVE",
"192.338 476 OFFCURVE",
"189 476 CURVE SMOOTH",
"184.785 476 OFFCURVE",
"183 471.779 OFFCURVE",
"183 457 CURVE SMOOTH",
"183 126 LINE SMOOTH",
"183 112.269 OFFCURVE",
"185.03 109 OFFCURVE",
"189 109 CURVE SMOOTH",
"191.474 109 OFFCURVE",
"194 114.496 OFFCURVE",
"194 126 CURVE SMOOTH",
"194 261 LINE",
"346 261 LINE",
"346 187 LINE SMOOTH",
"346 63.737 OFFCURVE",
"310.049 15.267 OFFCURVE",
"212.137 9.308 CURVE",
"202.617 -24.332 LINE",
"204.669 -24.104 OFFCURVE",
"206.785 -24 OFFCURVE",
"209 -24 CURVE SMOOTH",
"245.711 -24 OFFCURVE",
"274 -49.136 OFFCURVE",
"274 -82 CURVE SMOOTH",
"274 -119.84 OFFCURVE",
"239.371 -148 OFFCURVE",
"195 -148 CURVE SMOOTH"
);
}
);
};
layerId = "04A772B0-FA71-43EE-BB43-CAC7F0EBD631";
paths = (
{
closed = 1;
nodes = (
"249 -166 OFFCURVE",
"292 -130 OFFCURVE",
"292 -82 CURVE SMOOTH",
"292 -45 OFFCURVE",
"264 -15 OFFCURVE",
"226 -8 CURVE",
"324 3 OFFCURVE",
"364 60 OFFCURVE",
"364 187 CURVE SMOOTH",
"364 279 LINE",
"201 279 LINE",
"201 299 LINE",
"364 299 LINE",
"364 450 LINE SMOOTH",
"364 549 OFFCURVE",
"305 599 OFFCURVE",
"189 599 CURVE SMOOTH",
"71 599 OFFCURVE",
"7 547 OFFCURVE",
"7 450 CURVE SMOOTH",
"7 186 LINE SMOOTH",
"7 66 OFFCURVE",
"46 8 OFFCURVE",
"140 -6 CURVE",
"117 -58 LINE",
"128 -66 LINE",
"100 -129 LINE",
"136 -154 OFFCURVE",
"158 -166 OFFCURVE",
"195 -166 CURVE SMOOTH"
);
},
{
closed = 1;
nodes = (
"164 -149 OFFCURVE",
"145 -139 OFFCURVE",
"122 -123 CURVE",
"143 -77 LINE",
"159 -89 OFFCURVE",
"170.733 -98 OFFCURVE",
"186 -98 CURVE SMOOTH",
"195.982 -98 OFFCURVE",
"204 -90.372 OFFCURVE",
"204 -80 CURVE SMOOTH",
"204 -72 OFFCURVE",
"198 -66 OFFCURVE",
"189 -66 CURVE SMOOTH",
"184 -66 OFFCURVE",
"176 -70 OFFCURVE",
"175 -78 CURVE",
"139.051 -51.756 LINE",
"165.986 9.544 LINE",
"63.367 15.94 OFFCURVE",
"25 64.914 OFFCURVE",
"25 186 CURVE SMOOTH",
"25 450 LINE SMOOTH",
"25 536.95 OFFCURVE",
"80.481 581 OFFCURVE",
"189 581 CURVE SMOOTH",
"295.203 581 OFFCURVE",
"346 538.835 OFFCURVE",
"346 450 CURVE SMOOTH",
"346 317 LINE",
"194 317 LINE",
"194 457 LINE SMOOTH",
"194 471.533 OFFCURVE",
"192.338 476 OFFCURVE",
"189 476 CURVE SMOOTH",
"184.785 476 OFFCURVE",
"183 471.779 OFFCURVE",
"183 457 CURVE SMOOTH",
"183 126 LINE SMOOTH",
"183 112.269 OFFCURVE",
"185.03 109 OFFCURVE",
"189 109 CURVE SMOOTH",
"191.474 109 OFFCURVE",
"194 114.496 OFFCURVE",
"194 126 CURVE SMOOTH",
"194 261 LINE",
"346 261 LINE",
"346 187 LINE SMOOTH",
"346 63.737 OFFCURVE",
"310.049 15.267 OFFCURVE",
"212.137 9.308 CURVE",
"202.617 -24.332 LINE",
"204.669 -24.104 OFFCURVE",
"206.785 -24 OFFCURVE",
"209 -24 CURVE SMOOTH",
"245.711 -24 OFFCURVE",
"274 -49.136 OFFCURVE",
"274 -82 CURVE SMOOTH",
"274 -120 OFFCURVE",
"239 -149 OFFCURVE",
"195 -149 CURVE SMOOTH"
);
},
{
closed = 1;
nodes = (
"238 -140 OFFCURVE",
"266 -113 OFFCURVE",
"266 -82 CURVE SMOOTH",
"266 -54 OFFCURVE",
"242 -32 OFFCURVE",
"209 -32 CURVE SMOOTH",
"200 -32 OFFCURVE",
"195 -34 OFFCURVE",
"191 -36 CURVE",
"206 17 LINE",
"299 21 OFFCURVE",
"338 60 OFFCURVE",
"338 187 CURVE SMOOTH",
"338 253 LINE",
"202 253 LINE",
"202 126 LINE SMOOTH",
"202 111 OFFCURVE",
"198 101 OFFCURVE",
"189 101 CURVE SMOOTH",
"178 101 OFFCURVE",
"175 111 OFFCURVE",
"175 126 CURVE SMOOTH",
"175 457 LINE SMOOTH",
"175 472 OFFCURVE",
"177 484 OFFCURVE",
"189 484 CURVE SMOOTH",
"200 484 OFFCURVE",
"202 472 OFFCURVE",
"202 457 CURVE SMOOTH",
"202 325 LINE",
"338 325 LINE",
"338 450 LINE SMOOTH",
"338 541 OFFCURVE",
"282 573 OFFCURVE",
"189 573 CURVE SMOOTH",
"94 573 OFFCURVE",
"33 539 OFFCURVE",
"33 450 CURVE SMOOTH",
"33 186 LINE SMOOTH",
"33 56 OFFCURVE",
"79 20 OFFCURVE",
"178 17 CURVE",
"149 -49 LINE",
"173 -66 LINE",
"176 -61 OFFCURVE",
"183 -58 OFFCURVE",
"190 -58 CURVE SMOOTH",
"203 -58 OFFCURVE",
"212 -67 OFFCURVE",
"212 -81 CURVE SMOOTH",
"212 -94 OFFCURVE",
"201 -106 OFFCURVE",
"186 -106 CURVE SMOOTH",
"170 -106 OFFCURVE",
"154 -97 OFFCURVE",
"146 -90 CURVE",
"133 -120 LINE",
"141 -126 OFFCURVE",
"163 -140 OFFCURVE",
"195 -140 CURVE SMOOTH"
);
}
);
width = 370;
}
);
leftKerningGroup = O;
leftMetricsKey = C;
rightKerningGroup = C;
rightMetricsKey = C;
unicode = 00C7;
},
{
glyphname = D;
lastChange = "2021-12-17 05:35:05 +0000";
layers = (
{
anchors = (
{
name = bottom;
position = "{190, 0}";
},
{
name = center;
position = "{61, 296}";
},
{
name = top;
position = "{178, 591}";
}
);
layerId = "04A772B0-FA71-43EE-BB43-CAC7F0EBD631";
paths = (
{
closed = 1;
nodes = (
"213 0 LINE SMOOTH",
"309 0 OFFCURVE",
"366 34 OFFCURVE",
"366 141 CURVE SMOOTH",
"366 472 LINE SMOOTH",
"366 543 OFFCURVE",
"327 591 OFFCURVE",
"234 591 CURVE SMOOTH",
"9 591 LINE",
"9 0 LINE"
);
},
{
closed = 1;
nodes = (
"177 484 LINE",
"190 484 LINE SMOOTH",
"194 484 OFFCURVE",
"198 482 OFFCURVE",
"201 479 CURVE SMOOTH",
"203 475 OFFCURVE",
"205 468 OFFCURVE",
"205 457 CURVE SMOOTH",
"205 127 LINE SMOOTH",
"205 116 OFFCURVE",
"203 109 OFFCURVE",
"201 106 CURVE SMOOTH",
"198 102 OFFCURVE",
"194 100 OFFCURVE",
"190 100 CURVE SMOOTH",
"177 100 LINE"
);
},
{
closed = 1;
nodes = (
"190 109 LINE SMOOTH",
"191 109 OFFCURVE",
"192 110 OFFCURVE",
"194 113 CURVE SMOOTH",
"195 115 OFFCURVE",
"196 120 OFFCURVE",
"196 127 CURVE SMOOTH",
"196 457 LINE SMOOTH",
"196 469 OFFCURVE",
"194 475 OFFCURVE",
"190 475 CURVE SMOOTH",
"186 475 LINE",
"186 109 LINE"
);
},
{
closed = 1;
nodes = (
"27 573 LINE",
"234 573 LINE SMOOTH",
"315 573 OFFCURVE",
"349 532 OFFCURVE",
"349 472 CURVE SMOOTH",
"349 141 LINE SMOOTH",
"349 50 OFFCURVE",
"300 18 OFFCURVE",
"213 18 CURVE SMOOTH",
"27 18 LINE"
);
},
{
closed = 1;
nodes = (
"213 27 LINE SMOOTH",
"293 27 OFFCURVE",
"341 54 OFFCURVE",
"341 141 CURVE SMOOTH",
"341 472 LINE SMOOTH",
"341 527 OFFCURVE",
"310 564 OFFCURVE",
"234 564 CURVE SMOOTH",
"35 564 LINE",
"35 27 LINE"
);
}
);
userData = {
assembly = "PUSHW[ ]	/* 4 values pushed */\01235 6 8 4 \012CALL[ ]	/* CallFunction */\012PUSHW[ ]	/* 1 value pushed */\01235 \012SRP0[ ]	/* SetRefPoint0 */\012PUSHW[ ]	/* 1 value pushed */\01252 \012MDRP[11100]	/* MoveDirectRelPt */\012SVTCA[0]	/* SetFreedomAndProjectionVectorToAxis */\012PUSHW[ ]	/* 4 values pushed */\01216 2 8 4 \012CALL[ ]	/* CallFunction */\012IUP[0]	/* InterpolateUntPts */\012IUP[1]	/* InterpolateUntPts */";
};
width = 373;
}
);
leftKerningGroup = H;
leftMetricsKey = H;
note = D;
rightKerningGroup = O;
rightMetricsKey = O;
unicode = 0044;
},
{
color = 3;
glyphname = Eth;
lastChange = "2022-01-13 01:24:41 +0000";
layers = (
{
anchors = (
{
name = bottom;
position = "{194, 0}";
},
{
name = center;
position = "{65, 296}";
},
{
name = top;
position = "{182, 591}";
}
);
background = {
paths = (
{
closed = 1;
nodes = (
"217 27 LINE SMOOTH",
"297 27 OFFCURVE",
"345 54 OFFCURVE",
"345 141 CURVE SMOOTH",
"345 472 LINE SMOOTH",
"345 527 OFFCURVE",
"314 564 OFFCURVE",
"238 564 CURVE SMOOTH",
"39 564 LINE",
"39 27 LINE"
);
},
{
closed = 1;
nodes = (
"181 484 LINE",
"194 484 LINE SMOOTH",
"198 484 OFFCURVE",
"202 482 OFFCURVE",
"205 479 CURVE SMOOTH",
"207 475 OFFCURVE",
"209 468 OFFCURVE",
"209 457 CURVE SMOOTH",
"209 127 LINE SMOOTH",
"209 116 OFFCURVE",
"207 109 OFFCURVE",
"205 106 CURVE SMOOTH",
"202 102 OFFCURVE",
"198 100 OFFCURVE",
"194 100 CURVE SMOOTH",
"181 100 LINE"
);
},
{
closed = 1;
nodes = (
"199 239 LINE",
"199 315 LINE",
"10 315 LINE",
"10 239 LINE"
);
},
{
closed = 1;
nodes = (
"217 27 LINE SMOOTH",
"297 27 OFFCURVE",
"345 54 OFFCURVE",
"345 141 CURVE SMOOTH",
"345 472 LINE SMOOTH",
"345 527 OFFCURVE",
"314 564 OFFCURVE",
"238 564 CURVE SMOOTH",
"39 564 LINE",
"39 315 LINE",
"10 315 LINE",
"10 239 LINE",
"39 239 LINE",
"39 27 LINE"
);
},
{
closed = 1;
nodes = (
"181 239 LINE",
"199 239 LINE",
"199 315 LINE",
"181 315 LINE",
"181 484 LINE",
"194 484 LINE SMOOTH",
"198 484 OFFCURVE",
"202 482 OFFCURVE",
"205 479 CURVE",
"207 475 OFFCURVE",
"209 468 OFFCURVE",
"209 457 CURVE SMOOTH",
"209 127 LINE SMOOTH",
"209 116 OFFCURVE",
"207 109 OFFCURVE",
"205 106 CURVE SMOOTH",
"202 102 OFFCURVE",
"198 100 OFFCURVE",
"194 100 CURVE SMOOTH",
"181 100 LINE"
);
},
{
closed = 1;
nodes = (
"217 1 LINE SMOOTH",
"320 1 OFFCURVE",
"371 47 OFFCURVE",
"371 141 CURVE SMOOTH",
"371 472 LINE SMOOTH",
"371 547 OFFCURVE",
"322 590 OFFCURVE",
"238 590 CURVE SMOOTH",
"13 590 LINE",
"13 341 LINE",
"-16 341 LINE",
"-16 213 LINE",
"13 213 LINE",
"13 1 LINE"
);
},
{
closed = 1;
nodes = (
"31 231 LINE",
"2 231 LINE",
"2 323 LINE",
"31 323 LINE",
"31 572 LINE",
"238 572 LINE SMOOTH",
"312 572 OFFCURVE",
"353 537 OFFCURVE",
"353 472 CURVE SMOOTH",
"353 141 LINE SMOOTH",
"353 57 OFFCURVE",
"310 19 OFFCURVE",
"217 19 CURVE SMOOTH",
"31 19 LINE"
);
},
{
closed = 1;
nodes = (
"194 108 LINE SMOOTH",
"196 108 OFFCURVE",
"197 109 OFFCURVE",
"198 111 CURVE SMOOTH",
"200 112 OFFCURVE",
"201 119 OFFCURVE",
"201 127 CURVE SMOOTH",
"201 457 LINE SMOOTH",
"201 464 OFFCURVE",
"200 470 OFFCURVE",
"198 474 CURVE",
"197 475 OFFCURVE",
"195 476 OFFCURVE",
"194 476 CURVE SMOOTH",
"189 476 LINE",
"189 323 LINE",
"207 323 LINE",
"207 231 LINE",
"189 231 LINE",
"189 108 LINE"
);
}
);
};
layerId = "04A772B0-FA71-43EE-BB43-CAC7F0EBD631";
paths = (
{
closed = 1;
nodes = (
"217 1 LINE SMOOTH",
"320 1 OFFCURVE",
"371 47 OFFCURVE",
"371 141 CURVE SMOOTH",
"371 472 LINE SMOOTH",
"371 547 OFFCURVE",
"322 590 OFFCURVE",
"238 590 CURVE SMOOTH",
"13 590 LINE",
"13 341 LINE",
"-16 341 LINE",
"-16 213 LINE",
"13 213 LINE",
"13 1 LINE"
);
},
{
closed = 1;
nodes = (
"31 231 LINE",
"2 231 LINE",
"2 323 LINE",
"31 323 LINE",
"31 572 LINE",
"238 572 LINE SMOOTH",
"312 572 OFFCURVE",
"353 537 OFFCURVE",
"353 472 CURVE SMOOTH",
"353 141 LINE SMOOTH",
"353 57 OFFCURVE",
"310 19 OFFCURVE",
"217 19 CURVE SMOOTH",
"31 19 LINE"
);
},
{
closed = 1;
nodes = (
"194 108 LINE SMOOTH",
"196 108 OFFCURVE",
"197 109 OFFCURVE",
"198 111 CURVE SMOOTH",
"200 112 OFFCURVE",
"201 119 OFFCURVE",
"201 127 CURVE SMOOTH",
"201 231 LINE",
"189 231 LINE",
"189 108 LINE"
);
},
{
closed = 1;
nodes = (
"217 27 LINE SMOOTH",
"297 27 OFFCURVE",
"345 54 OFFCURVE",
"345 141 CURVE SMOOTH",
"345 472 LINE SMOOTH",
"345 527 OFFCURVE",
"314 564 OFFCURVE",
"238 564 CURVE SMOOTH",
"39 564 LINE",
"39 315 LINE",
"10 315 LINE",
"10 239 LINE",
"39 239 LINE",
"39 27 LINE"
);
},
{
closed = 1;
nodes = (
"181 239 LINE",
"199 239 LINE",
"199 315 LINE",
"181 315 LINE",
"181 484 LINE",
"194 484 LINE SMOOTH",
"198 484 OFFCURVE",
"202 482 OFFCURVE",
"205 479 CURVE",
"207 475 OFFCURVE",
"209 468 OFFCURVE",
"209 457 CURVE SMOOTH",
"209 127 LINE SMOOTH",
"209 116 OFFCURVE",
"207 109 OFFCURVE",
"205 106 CURVE SMOOTH",
"202 102 OFFCURVE",
"198 100 OFFCURVE",
"194 100 CURVE SMOOTH",
"181 100 LINE"
);
},
{
closed = 1;
nodes = (
"201 323 LINE",
"201 457 LINE SMOOTH",
"201 464 OFFCURVE",
"200 470 OFFCURVE",
"198 474 CURVE",
"197 475 OFFCURVE",
"195 476 OFFCURVE",
"194 476 CURVE SMOOTH",
"189 476 LINE",
"189 323 LINE"
);
}
);
userData = {
assembly = "PUSHW[ ]	/* 4 values pushed */\0127 6 18 4 \012CALL[ ]	/* CallFunction */\012PUSHW[ ]	/* 1 value pushed */\01218 \012SRP0[ ]	/* SetRefPoint0 */\012PUSHW[ ]	/* 1 value pushed */\01231 \012MDRP[10000]	/* MoveDirectRelPt */\012PUSHW[ ]	/* 1 value pushed */\0127 \012SRP0[ ]	/* SetRefPoint0 */\012PUSHW[ ]	/* 1 value pushed */\01287 \012MDRP[11100]	/* MoveDirectRelPt */\012SVTCA[0]	/* SetFreedomAndProjectionVectorToAxis */\012PUSHW[ ]	/* 4 values pushed */\01228 2 13 4 \012CALL[ ]	/* CallFunction */\012PUSHW[ ]	/* 4 values pushed */\0120 2 15 4 \012CALL[ ]	/* CallFunction */\012PUSHW[ ]	/* 1 value pushed */\0120 \012SRP0[ ]	/* SetRefPoint0 */\012PUSHW[ ]	/* 1 value pushed */\01223 \012MDRP[10000]	/* MoveDirectRelPt */\012PUSHW[ ]	/* 1 value pushed */\01215 \012SRP0[ ]	/* SetRefPoint0 */\012PUSHW[ ]	/* 1 value pushed */\01225 \012MDRP[10000]	/* MoveDirectRelPt */\012IUP[0]	/* InterpolateUntPts */\012IUP[1]	/* InterpolateUntPts */";
};
width = 378;
}
);
leftKerningGroup = H;
note = Eth;
rightKerningGroup = O;
rightMetricsKey = O;
unicode = 00D0;
},
{
glyphname = E;
lastChange = "2021-12-17 05:35:05 +0000";
layers = (
{
anchors = (
{
name = bottom;
position = "{155, 0}";
},
{
name = ogonek;
position = "{292, 10}";
},
{
name = top;
position = "{155, 591}";
},
{
name = topleft;
position = "{4, 591}";
}
);
layerId = "04A772B0-FA71-43EE-BB43-CAC7F0EBD631";
paths = (
{
closed = 1;
nodes = (
"295 0 LINE",
"295 153 LINE",
"195 153 LINE",
"195 218 LINE",
"286 218 LINE",
"286 386 LINE",
"195 386 LINE",
"195 436 LINE",
"295 436 LINE",
"295 591 LINE",
"9 591 LINE",
"9 0 LINE"
);
},
{
closed = 1;
nodes = (
"26 575 LINE",
"278 575 LINE",
"278 454 LINE",
"179 454 LINE",
"179 368 LINE",
"269 368 LINE",
"269 236 LINE",
"179 236 LINE",
"179 134 LINE",
"278 134 LINE",
"278 16 LINE",
"26 16 LINE"
);
},
{
closed = 1;
nodes = (
"270 24 LINE",
"270 125 LINE",
"171 125 LINE",
"171 245 LINE",
"261 245 LINE",
"261 359 LINE",
"171 359 LINE",
"171 463 LINE",
"270 463 LINE",
"270 567 LINE",
"34 567 LINE",
"34 24 LINE"
);
}
);
userData = {
assembly = "SVTCA[0]	/* SetFreedomAndProjectionVectorToAxis */\012PUSHW[ ]	/* 4 values pushed */\0129 3 10 4 \012CALL[ ]	/* CallFunction */\012IUP[0]	/* InterpolateUntPts */\012IUP[1]	/* InterpolateUntPts */";
};
width = 301;
}
);
leftKerningGroup = H;
leftMetricsKey = H;
note = E;
rightKerningGroup = E;
unicode = 0045;
},
{
color = 3;
glyphname = Eogonek;
lastChange = "2022-01-14 23:39:47 +0000";
layers = (
{
background = {
paths = (
{
closed = 1;
nodes = (
"-171 -131 OFFCURVE",
"-154 -123 OFFCURVE",
"-147 -118 CURVE",
"-155 -91 LINE",
"-159 -92 OFFCURVE",
"-165 -95 OFFCURVE",
"-176 -95 CURVE SMOOTH",
"-191 -95 OFFCURVE",
"-205 -86 OFFCURVE",
"-205 -66 CURVE SMOOTH",
"-205 -33 OFFCURVE",
"-174 2 OFFCURVE",
"-129 25 CURVE",
"-169 29 LINE",
"-193 19 OFFCURVE",
"-259 -28 OFFCURVE",
"-259 -77 CURVE SMOOTH",
"-259 -112 OFFCURVE",
"-234 -131 OFFCURVE",
"-194 -131 CURVE SMOOTH"
);
},
{
closed = 1;
nodes = (
"-129 25 LINE",
"-129 125 LINE",
"-228 125 LINE",
"-228 245 LINE",
"-138 245 LINE",
"-138 359 LINE",
"-228 359 LINE",
"-228 463 LINE",
"-129 463 LINE",
"-129 566 LINE",
"-365 566 LINE",
"-365 25 LINE"
);
},
{
closed = 1;
nodes = (
"-171 -131 OFFCURVE",
"-154 -123 OFFCURVE",
"-147 -118 CURVE",
"-155 -91 LINE",
"-159 -92 OFFCURVE",
"-165 -95 OFFCURVE",
"-176 -95 CURVE SMOOTH",
"-191 -95 OFFCURVE",
"-205 -86 OFFCURVE",
"-205 -66 CURVE SMOOTH",
"-205 -33 OFFCURVE",
"-174 2 OFFCURVE",
"-129 25 CURVE",
"-129 125 LINE",
"-228 125 LINE",
"-228 245 LINE",
"-138 245 LINE",
"-138 359 LINE",
"-228 359 LINE",
"-228 463 LINE",
"-129 463 LINE",
"-129 566 LINE",
"-365 566 LINE",
"-365 25 LINE",
"-177 25 LINE",
"-205 10 OFFCURVE",
"-259 -33 OFFCURVE",
"-259 -77 CURVE SMOOTH",
"-259 -112 OFFCURVE",
"-234 -131 OFFCURVE",
"-194 -131 CURVE SMOOTH"
);
},
{
closed = 1;
nodes = (
"-251 -1 LINE",
"-272 -25 OFFCURVE",
"-285 -53 OFFCURVE",
"-285 -77 CURVE SMOOTH",
"-285 -126 OFFCURVE",
"-249 -157 OFFCURVE",
"-194 -157 CURVE SMOOTH",
"-162 -157 OFFCURVE",
"-127 -143 OFFCURVE",
"-118 -124 CURVE",
"-132 -77 LINE",
"-148 -68 LINE",
"-161 -66 LINE SMOOTH",
"-163 -66 OFFCURVE",
"-165 -67 OFFCURVE",
"-166 -67 CURVE",
"-170 -69 OFFCURVE",
"-172 -69 OFFCURVE",
"-176 -69 CURVE SMOOTH",
"-179 -69 OFFCURVE",
"-179 -69 OFFCURVE",
"-179 -66 CURVE SMOOTH",
"-179 -42 OFFCURVE",
"-149 -11 OFFCURVE",
"-103 8 CURVE",
"-103 151 LINE",
"-202 151 LINE",
"-202 219 LINE",
"-112 219 LINE",
"-112 385 LINE",
"-202 385 LINE",
"-202 437 LINE",
"-103 437 LINE",
"-103 592 LINE",
"-391 592 LINE",
"-391 -1 LINE"
);
},
{
closed = 1;
nodes = (
"-239 -139 OFFCURVE",
"-267 -116 OFFCURVE",
"-267 -77 CURVE SMOOTH",
"-267 -29 OFFCURVE",
"-209 17 OFFCURVE",
"-181 32 CURVE",
"-177 17 LINE",
"-373 17 LINE",
"-373 574 LINE",
"-121 574 LINE",
"-121 455 LINE",
"-220 455 LINE",
"-220 367 LINE",
"-130 367 LINE",
"-130 237 LINE",
"-220 237 LINE",
"-220 133 LINE",
"-121 133 LINE",
"-121 20 LINE",
"-167 -2 OFFCURVE",
"-197 -36 OFFCURVE",
"-197 -66 CURVE SMOOTH",
"-197 -79 OFFCURVE",
"-189 -87 OFFCURVE",
"-176 -87 CURVE SMOOTH",
"-169 -87 OFFCURVE",
"-164 -86 OFFCURVE",
"-161 -84 CURVE SMOOTH",
"-159 -84 OFFCURVE",
"-158 -84 OFFCURVE",
"-157 -83 CURVE",
"-147 -89 LINE",
"-138 -121 LINE",
"-149 -132 OFFCURVE",
"-173 -139 OFFCURVE",
"-194 -139 CURVE SMOOTH"
);
},
{
closed = 1;
nodes = (
"-171 -131 OFFCURVE",
"-154 -123 OFFCURVE",
"-147 -118 CURVE",
"-155 -91 LINE",
"-159 -92 OFFCURVE",
"-165 -95 OFFCURVE",
"-176 -95 CURVE SMOOTH",
"-191 -95 OFFCURVE",
"-205 -86 OFFCURVE",
"-205 -66 CURVE SMOOTH",
"-205 -33 OFFCURVE",
"-174 2 OFFCURVE",
"-129 25 CURVE",
"-129 125 LINE",
"-228 125 LINE",
"-228 245 LINE",
"-138 245 LINE",
"-138 359 LINE",
"-228 359 LINE",
"-228 463 LINE",
"-129 463 LINE",
"-129 566 LINE",
"-365 566 LINE",
"-365 25 LINE",
"-177 25 LINE",
"-205 10 OFFCURVE",
"-259 -33 OFFCURVE",
"-259 -77 CURVE SMOOTH",
"-259 -112 OFFCURVE",
"-234 -131 OFFCURVE",
"-194 -131 CURVE SMOOTH"
);
},
{
closed = 1;
nodes = (
"-251 -1 LINE",
"-272 -25 OFFCURVE",
"-285 -53 OFFCURVE",
"-285 -77 CURVE SMOOTH",
"-285 -126 OFFCURVE",
"-249 -157 OFFCURVE",
"-194 -157 CURVE SMOOTH",
"-162 -157 OFFCURVE",
"-127 -143 OFFCURVE",
"-118 -124 CURVE",
"-132 -77 LINE",
"-148 -68 LINE",
"-161 -66 LINE SMOOTH",
"-163 -66 OFFCURVE",
"-165 -67 OFFCURVE",
"-166 -67 CURVE",
"-170 -69 OFFCURVE",
"-172 -69 OFFCURVE",
"-176 -69 CURVE SMOOTH",
"-179 -69 OFFCURVE",
"-179 -69 OFFCURVE",
"-179 -66 CURVE SMOOTH",
"-179 -42 OFFCURVE",
"-149 -11 OFFCURVE",
"-103 8 CURVE",
"-103 151 LINE",
"-202 151 LINE",
"-202 219 LINE",
"-112 219 LINE",
"-112 385 LINE",
"-202 385 LINE",
"-202 437 LINE",
"-103 437 LINE",
"-103 592 LINE",
"-391 592 LINE",
"-391 -1 LINE"
);
},
{
closed = 1;
nodes = (
"-239 -139 OFFCURVE",
"-267 -116 OFFCURVE",
"-267 -77 CURVE SMOOTH",
"-267 -29 OFFCURVE",
"-209 17 OFFCURVE",
"-181 32 CURVE",
"-177 17 LINE",
"-373 17 LINE",
"-373 574 LINE",
"-121 574 LINE",
"-121 455 LINE",
"-220 455 LINE",
"-220 367 LINE",
"-130 367 LINE",
"-130 237 LINE",
"-220 237 LINE",
"-220 133 LINE",
"-121 133 LINE",
"-121 20 LINE",
"-167 -2 OFFCURVE",
"-197 -36 OFFCURVE",
"-197 -66 CURVE SMOOTH",
"-197 -79 OFFCURVE",
"-189 -87 OFFCURVE",
"-176 -87 CURVE SMOOTH",
"-169 -87 OFFCURVE",
"-164 -86 OFFCURVE",
"-161 -84 CURVE SMOOTH",
"-159 -84 OFFCURVE",
"-158 -84 OFFCURVE",
"-157 -83 CURVE",
"-147 -89 LINE",
"-138 -121 LINE",
"-149 -132 OFFCURVE",
"-173 -139 OFFCURVE",
"-194 -139 CURVE SMOOTH"
);
},
{
closed = 1;
nodes = (
"238 -157 OFFCURVE",
"266 -145 OFFCURVE",
"281 -126 CURVE",
"262 -56 LINE",
"250 -64 OFFCURVE",
"238 -70 OFFCURVE",
"228 -70 CURVE SMOOTH",
"224 -70 OFFCURVE",
"221 -68 OFFCURVE",
"221 -63 CURVE SMOOTH",
"221 -45 OFFCURVE",
"251 -11 OFFCURVE",
"297 8 CURVE",
"297 151 LINE",
"198 151 LINE",
"198 219 LINE",
"288 219 LINE",
"288 385 LINE",
"198 385 LINE",
"198 437 LINE",
"297 437 LINE",
"297 592 LINE",
"9 592 LINE",
"9 -1 LINE",
"149 -1 LINE",
"128 -25 OFFCURVE",
"115 -53 OFFCURVE",
"115 -77 CURVE SMOOTH",
"115 -126 OFFCURVE",
"151 -157 OFFCURVE",
"206 -157 CURVE SMOOTH"
);
},
{
closed = 1;
nodes = (
"161 -139 OFFCURVE",
"133 -116 OFFCURVE",
"133 -77 CURVE SMOOTH",
"133 -29 OFFCURVE",
"191 17 OFFCURVE",
"219 32 CURVE",
"223 17 LINE",
"27 17 LINE",
"27 574 LINE",
"279 574 LINE",
"279 455 LINE",
"180 455 LINE",
"180 367 LINE",
"270 367 LINE",
"270 237 LINE",
"180 237 LINE",
"180 133 LINE",
"279 133 LINE",
"279 20 LINE",
"233 -2 OFFCURVE",
"203 -36 OFFCURVE",
"203 -66 CURVE SMOOTH",
"203 -79 OFFCURVE",
"211 -87 OFFCURVE",
"226 -87 CURVE SMOOTH",
"236 -87 OFFCURVE",
"245 -83 OFFCURVE",
"250 -79 CURVE",
"262 -121 LINE",
"251 -132 OFFCURVE",
"227 -139 OFFCURVE",
"206 -139 CURVE SMOOTH"
);
},
{
closed = 1;
nodes = (
"229 -131 OFFCURVE",
"246 -123 OFFCURVE",
"253 -118 CURVE",
"245 -91 LINE",
"241 -92 OFFCURVE",
"235 -95 OFFCURVE",
"224 -95 CURVE SMOOTH",
"209 -95 OFFCURVE",
"195 -86 OFFCURVE",
"195 -66 CURVE SMOOTH",
"195 -33 OFFCURVE",
"226 2 OFFCURVE",
"271 25 CURVE",
"271 125 LINE",
"172 125 LINE",
"172 245 LINE",
"262 245 LINE",
"262 359 LINE",
"172 359 LINE",
"172 463 LINE",
"271 463 LINE",
"271 566 LINE",
"35 566 LINE",
"35 25 LINE",
"223 25 LINE",
"195 10 OFFCURVE",
"141 -33 OFFCURVE",
"141 -77 CURVE SMOOTH",
"141 -112 OFFCURVE",
"166 -131 OFFCURVE",
"206 -131 CURVE SMOOTH"
);
}
);
};
layerId = "04A772B0-FA71-43EE-BB43-CAC7F0EBD631";
paths = (
{
closed = 1;
nodes = (
"242 -157 OFFCURVE",
"276 -145 OFFCURVE",
"291 -126 CURVE",
"272 -51 LINE",
"260 -59 OFFCURVE",
"248 -65 OFFCURVE",
"238 -65 CURVE SMOOTH",
"234 -65 OFFCURVE",
"231 -63 OFFCURVE",
"231 -58 CURVE SMOOTH",
"231 -40 OFFCURVE",
"257 -10 OFFCURVE",
"297 8 CURVE",
"297 151 LINE",
"198 151 LINE",
"198 219 LINE",
"288 219 LINE",
"288 385 LINE",
"198 385 LINE",
"198 437 LINE",
"297 437 LINE",
"297 592 LINE",
"9 592 LINE",
"9 -1 LINE",
"149 -1 LINE",
"128 -25 OFFCURVE",
"115 -53 OFFCURVE",
"115 -77 CURVE SMOOTH",
"115 -126 OFFCURVE",
"151 -157 OFFCURVE",
"206 -157 CURVE SMOOTH"
);
},
{
closed = 1;
nodes = (
"161 -139 OFFCURVE",
"133 -116 OFFCURVE",
"133 -77 CURVE SMOOTH",
"133 -29 OFFCURVE",
"191 17 OFFCURVE",
"219 32 CURVE",
"223 17 LINE",
"27 17 LINE",
"27 574 LINE",
"279 574 LINE",
"279 455 LINE",
"180 455 LINE",
"180 367 LINE",
"270 367 LINE",
"270 237 LINE",
"180 237 LINE",
"180 133 LINE",
"279 133 LINE",
"279 20 LINE",
"239 -1 OFFCURVE",
"213 -31 OFFCURVE",
"213 -61 CURVE SMOOTH",
"213 -74 OFFCURVE",
"221 -82 OFFCURVE",
"236 -82 CURVE SMOOTH",
"246 -82 OFFCURVE",
"255 -78 OFFCURVE",
"260 -74 CURVE",
"272 -121 LINE",
"261 -132 OFFCURVE",
"231 -139 OFFCURVE",
"206 -139 CURVE SMOOTH"
);
},
{
closed = 1;
nodes = (
"234 -131 OFFCURVE",
"256 -123 OFFCURVE",
"263 -118 CURVE",
"255 -86 LINE",
"251 -87 OFFCURVE",
"245 -90 OFFCURVE",
"234 -90 CURVE SMOOTH",
"219 -90 OFFCURVE",
"205 -81 OFFCURVE",
"205 -61 CURVE SMOOTH",
"205 -28 OFFCURVE",
"232 3 OFFCURVE",
"271 25 CURVE",
"271 125 LINE",
"172 125 LINE",
"172 245 LINE",
"262 245 LINE",
"262 359 LINE",
"172 359 LINE",
"172 463 LINE",
"271 463 LINE",
"271 566 LINE",
"35 566 LINE",
"35 25 LINE",
"223 25 LINE",
"195 10 OFFCURVE",
"141 -33 OFFCURVE",
"141 -77 CURVE SMOOTH",
"141 -112 OFFCURVE",
"166 -131 OFFCURVE",
"206 -131 CURVE SMOOTH"
);
}
);
width = 303;
}
);
leftKerningGroup = H;
leftMetricsKey = E;
rightKerningGroup = E;
rightMetricsKey = E;
unicode = 0118;
},
{
glyphname = F;
lastChange = "2021-12-17 05:35:05 +0000";
layers = (
{
layerId = "04A772B0-FA71-43EE-BB43-CAC7F0EBD631";
paths = (
{
closed = 1;
nodes = (
"195 0 LINE",
"195 218 LINE",
"286 218 LINE",
"286 386 LINE",
"195 386 LINE",
"195 436 LINE",
"295 436 LINE",
"295 591 LINE",
"9 591 LINE",
"9 0 LINE"
);
},
{
closed = 1;
nodes = (
"25 573 LINE",
"278 573 LINE",
"278 454 LINE",
"179 454 LINE",
"179 368 LINE",
"270 368 LINE",
"270 236 LINE",
"179 236 LINE",
"179 18 LINE",
"25 18 LINE"
);
},
{
closed = 1;
nodes = (
"171 27 LINE",
"171 245 LINE",
"262 245 LINE",
"262 359 LINE",
"171 359 LINE",
"171 463 LINE",
"270 463 LINE",
"270 564 LINE",
"33 564 LINE",
"33 27 LINE"
);
}
);
userData = {
assembly = "SVTCA[0]	/* SetFreedomAndProjectionVectorToAxis */\012PUSHW[ ]	/* 1 value pushed */\0128 \012MDAP[1]	/* MoveDirectAbsPt */\012IUP[0]	/* InterpolateUntPts */\012IUP[1]	/* InterpolateUntPts */";
};
width = 301;
}
);
leftKerningGroup = H;
leftMetricsKey = H;
note = F;
rightKerningGroup = F;
unicode = 0046;
},
{
glyphname = G;
lastChange = "2022-01-13 03:29:18 +0000";
layers = (
{
anchors = (
{
name = bottom;
position = "{215, 0}";
},
{
name = top;
position = "{187, 591}";
}
);
layerId = "04A772B0-FA71-43EE-BB43-CAC7F0EBD631";
paths = (
{
closed = 1;
nodes = (
"174 -9 OFFCURVE",
"195 1 OFFCURVE",
"212 16 CURVE",
"215 0 LINE",
"364 0 LINE",
"364 339 LINE",
"364 449 LINE SMOOTH",
"364 557 OFFCURVE",
"292 599 OFFCURVE",
"183 599 CURVE SMOOTH",
"76 599 OFFCURVE",
"7 558 OFFCURVE",
"7 449 CURVE SMOOTH",
"7 165 LINE SMOOTH",
"7 33 OFFCURVE",
"62 -9 OFFCURVE",
"143 -9 CURVE SMOOTH"
);
},
{
closed = 1;
nodes = (
"195 109 OFFCURVE",
"198 115 OFFCURVE",
"198 127 CURVE SMOOTH",
"198 221 LINE",
"177 221 LINE",
"177 127 LINE SMOOTH",
"177 115 OFFCURVE",
"181 109 OFFCURVE",
"188 109 CURVE SMOOTH"
);
},
{
closed = 1;
nodes = (
"72 9 OFFCURVE",
"24 47 OFFCURVE",
"24 165 CURVE SMOOTH",
"24 449 LINE SMOOTH",
"24 544 OFFCURVE",
"87 581 OFFCURVE",
"183 581 CURVE SMOOTH",
"280 581 OFFCURVE",
"347 544 OFFCURVE",
"347 449 CURVE SMOOTH",
"347 358 LINE",
"198 358 LINE",
"198 458 LINE SMOOTH",
"198 470 OFFCURVE",
"195 476 OFFCURVE",
"188 476 CURVE SMOOTH",
"181 476 OFFCURVE",
"177 470 OFFCURVE",
"177 458 CURVE SMOOTH",
"177 320 LINE",
"347 320 LINE",
"347 18 LINE",
"229 18 LINE",
"220 55 LINE",
"208 31 OFFCURVE",
"186 9 OFFCURVE",
"143 9 CURVE SMOOTH"
);
},
{
closed = 1;
nodes = (
"192 18 OFFCURVE",
"213 54 OFFCURVE",
"224 84 CURVE",
"236 27 LINE",
"338 27 LINE",
"338 311 LINE",
"185 311 LINE",
"185 230 LINE",
"207 230 LINE",
"207 127 LINE SMOOTH",
"207 106 OFFCURVE",
"199 100 OFFCURVE",
"188 100 CURVE SMOOTH",
"177 100 OFFCURVE",
"169 106 OFFCURVE",
"169 127 CURVE SMOOTH",
"169 458 LINE SMOOTH",
"169 479 OFFCURVE",
"177 485 OFFCURVE",
"188 485 CURVE SMOOTH",
"199 485 OFFCURVE",
"207 479 OFFCURVE",
"207 458 CURVE SMOOTH",
"207 367 LINE",
"338 367 LINE",
"338 449 LINE SMOOTH",
"338 538 OFFCURVE",
"275 572 OFFCURVE",
"183 572 CURVE SMOOTH",
"92 572 OFFCURVE",
"33 538 OFFCURVE",
"33 449 CURVE SMOOTH",
"33 165 LINE SMOOTH",
"33 56 OFFCURVE",
"75 18 OFFCURVE",
"143 18 CURVE SMOOTH"
);
}
);
userData = {
assembly = "PUSHW[ ]	/* 4 values pushed */\01231 6 66 4 \012CALL[ ]	/* CallFunction */\012SVTCA[0]	/* SetFreedomAndProjectionVectorToAxis */\012PUSHW[ ]	/* 1 value pushed */\0121 \012MDAP[1]	/* MoveDirectAbsPt */\012PUSHW[ ]	/* 4 values pushed */\01235 2 8 4 \012CALL[ ]	/* CallFunction */\012PUSHW[ ]	/* 3 values pushed */\0123 8 35 \012SRP1[ ]	/* SetRefPoint1 */\012SRP2[ ]	/* SetRefPoint2 */\012IP[ ]	/* InterpolatePts */\012PUSHW[ ]	/* 3 values pushed */\01275 8 35 \012SRP1[ ]	/* SetRefPoint1 */\012SRP2[ ]	/* SetRefPoint2 */\012IP[ ]	/* InterpolatePts */\012PUSHW[ ]	/* 1 value pushed */\0128 \012SRP0[ ]	/* SetRefPoint0 */\012PUSHW[ ]	/* 1 value pushed */\01276 \012MDRP[10000]	/* MoveDirectRelPt */\012IUP[0]	/* InterpolateUntPts */\012IUP[1]	/* InterpolateUntPts */";
};
width = 370;
}
);
leftKerningGroup = O;
leftMetricsKey = O;
note = G;
rightKerningGroup = G;
unicode = 0047;
},
{
glyphname = H;
lastChange = "2021-12-17 05:35:05 +0000";
layers = (
{
anchors = (
{
name = bottom;
position = "{186, 0}";
},
{
name = center;
position = "{191, 296}";
},
{
name = top;
position = "{186, 591}";
},
{
name = topleft;
position = "{4, 591}";
}
);
layerId = "04A772B0-FA71-43EE-BB43-CAC7F0EBD631";
paths = (
{
closed = 1;
nodes = (
"363 0 LINE",
"363 591 LINE",
"9 591 LINE",
"9 0 LINE"
);
},
{
closed = 1;
nodes = (
"26 573 LINE",
"180 573 LINE",
"180 365 LINE",
"193 365 LINE",
"193 573 LINE",
"346 573 LINE",
"346 18 LINE",
"193 18 LINE",
"193 241 LINE",
"180 241 LINE",
"180 18 LINE",
"26 18 LINE"
);
},
{
closed = 1;
nodes = (
"171 27 LINE",
"171 250 LINE",
"202 250 LINE",
"202 27 LINE",
"338 27 LINE",
"338 564 LINE",
"202 564 LINE",
"202 356 LINE",
"171 356 LINE",
"171 564 LINE",
"35 564 LINE",
"35 27 LINE"
);
}
);
userData = {
assembly = "SVTCA[0]	/* SetFreedomAndProjectionVectorToAxis */\012PUSHW[ ]	/* 1 value pushed */\0121 \012MDAP[1]	/* MoveDirectAbsPt */\012PUSHW[ ]	/* 1 value pushed */\0129 \012MDAP[1]	/* MoveDirectAbsPt */\012PUSHW[ ]	/* 4 values pushed */\0125 3 0 4 \012CALL[ ]	/* CallFunction */\012IUP[0]	/* InterpolateUntPts */\012IUP[1]	/* InterpolateUntPts */";
};
width = 372;
}
);
leftKerningGroup = H;
note = H;
rightKerningGroup = H;
unicode = 0048;
},
{
color = 3;
glyphname = Hbar;
lastChange = "2022-01-13 01:24:41 +0000";
layers = (
{
anchors = (
{
name = bottom;
position = "{203, 0}";
},
{
name = center;
position = "{203, 296}";
},
{
name = top;
position = "{203, 591}";
},
{
name = topleft;
position = "{21, 591}";
}
);
background = {
components = (
{
name = H;
transform = "{1, 0, 0, 1, 1, 0}";
},
{
name = hyphen;
transform = "{1.91197, 0, 0, 0.69208, -56, 307}";
}
);
paths = (
{
closed = 1;
nodes = (
"172 27 LINE",
"172 250 LINE",
"203 250 LINE",
"203 27 LINE",
"339 27 LINE",
"339 564 LINE",
"203 564 LINE",
"203 356 LINE",
"172 356 LINE",
"172 564 LINE",
"36 564 LINE",
"36 27 LINE"
);
},
{
closed = 1;
nodes = (
"364 435 LINE",
"364 507 LINE",
"11 507 LINE",
"11 435 LINE"
);
}
);
};
layerId = "04A772B0-FA71-43EE-BB43-CAC7F0EBD631";
paths = (
{
closed = 1;
nodes = (
"365 1 LINE",
"365 409 LINE",
"390 409 LINE",
"390 533 LINE",
"365 533 LINE",
"365 590 LINE",
"10 590 LINE",
"10 533 LINE",
"-15 533 LINE",
"-15 409 LINE",
"10 409 LINE",
"10 1 LINE"
);
},
{
closed = 1;
nodes = (
"28 427 LINE",
"3 427 LINE",
"3 515 LINE",
"28 515 LINE",
"28 572 LINE",
"180 572 LINE",
"180 515 LINE",
"195 515 LINE",
"195 572 LINE",
"347 572 LINE",
"347 515 LINE",
"372 515 LINE",
"372 427 LINE",
"347 427 LINE",
"347 19 LINE",
"195 19 LINE",
"195 242 LINE",
"180 242 LINE",
"180 19 LINE",
"28 19 LINE"
);
},
{
closed = 1;
nodes = (
"172 27 LINE",
"172 250 LINE",
"203 250 LINE",
"203 27 LINE",
"339 27 LINE",
"339 435 LINE",
"364 435 LINE",
"364 507 LINE",
"339 507 LINE",
"339 564 LINE",
"203 564 LINE",
"203 507 LINE",
"172 507 LINE",
"172 564 LINE",
"36 564 LINE",
"36 507 LINE",
"11 507 LINE",
"11 435 LINE",
"36 435 LINE",
"36 27 LINE"
);
},
{
closed = 1;
nodes = (
"172 435 LINE",
"203 435 LINE",
"203 356 LINE",
"172 356 LINE"
);
},
{
closed = 1;
nodes = (
"195 364 LINE",
"195 427 LINE",
"180 427 LINE",
"180 364 LINE"
);
}
);
width = 375;
}
);
unicode = 0126;
},
{
glyphname = I;
lastChange = "2021-12-17 05:35:05 +0000";
layers = (
{
anchors = (
{
name = bottom;
position = "{87, 0}";
},
{
name = ogonek;
position = "{156, 0}";
},
{
name = top;
position = "{87, 591}";
},
{
name = topleft;
position = "{-8, 591}";
}
);
layerId = "04A772B0-FA71-43EE-BB43-CAC7F0EBD631";
paths = (
{
closed = 1;
nodes = (
"168 0 LINE",
"168 591 LINE",
"9 591 LINE",
"9 0 LINE"
);
},
{
closed = 1;
nodes = (
"24 575 LINE",
"152 575 LINE",
"152 16 LINE",
"24 16 LINE"
);
},
{
closed = 1;
nodes = (
"145 24 LINE",
"145 567 LINE",
"32 567 LINE",
"32 24 LINE"
);
}
);
userData = {
assembly = "SVTCA[0]	/* SetFreedomAndProjectionVectorToAxis */\012PUSHW[ ]	/* 1 value pushed */\0120 \012MDAP[1]	/* MoveDirectAbsPt */\012IUP[0]	/* InterpolateUntPts */\012IUP[1]	/* InterpolateUntPts */";
};
width = 177;
}
);
leftKerningGroup = H;
leftMetricsKey = H;
note = I;
rightKerningGroup = H;
rightMetricsKey = H;
unicode = 0049;
},
{
color = 3;
glyphname = Iogonek;
lastChange = "2022-01-14 23:41:07 +0000";
layers = (
{
background = {
paths = (
{
closed = 1;
nodes = (
"-321 800 LINE",
"-321 1391 LINE",
"-480 1391 LINE",
"-480 800 LINE"
);
},
{
closed = 1;
nodes = (
"-466 1373 LINE",
"-336 1373 LINE",
"-336 818 LINE",
"-466 818 LINE"
);
},
{
closed = 1;
nodes = (
"-343 827 LINE",
"-343 1364 LINE",
"-458 1364 LINE",
"-458 827 LINE"
);
},
{
closed = 1;
nodes = (
"-339 649 OFFCURVE",
"-319 663 OFFCURVE",
"-312 667 CURVE",
"-329 704 LINE",
"-332 704 OFFCURVE",
"-338 701 OFFCURVE",
"-347 701 CURVE SMOOTH",
"-363 701 OFFCURVE",
"-384 715 OFFCURVE",
"-384 739 CURVE SMOOTH",
"-384 761 OFFCURVE",
"-369 790 OFFCURVE",
"-333 800 CURVE",
"-392 802 LINE",
"-447 797 OFFCURVE",
"-482 754 OFFCURVE",
"-482 717 CURVE SMOOTH",
"-482 683 OFFCURVE",
"-447 649 OFFCURVE",
"-389 649 CURVE SMOOTH"
);
},
{
closed = 1;
nodes = (
"-343 827 LINE",
"-343 1364 LINE",
"-458 1364 LINE",
"-458 827 LINE"
);
},
{
closed = 1;
nodes = (
"-353 659 OFFCURVE",
"-333 673 OFFCURVE",
"-326 677 CURVE",
"-343 714 LINE",
"-346 713 OFFCURVE",
"-352 711 OFFCURVE",
"-361 711 CURVE SMOOTH",
"-380 711 OFFCURVE",
"-401 723 OFFCURVE",
"-401 749 CURVE SMOOTH",
"-401 779 OFFCURVE",
"-379 809 OFFCURVE",
"-343 827 CURVE",
"-402 829 LINE",
"-445 818 OFFCURVE",
"-487 774 OFFCURVE",
"-487 727 CURVE SMOOTH",
"-487 690 OFFCURVE",
"-455 659 OFFCURVE",
"-403 659 CURVE SMOOTH"
);
},
{
closed = 1;
nodes = (
"-321 800 LINE",
"-321 1391 LINE",
"-480 1391 LINE",
"-480 800 LINE"
);
},
{
closed = 1;
nodes = (
"-466 1373 LINE",
"-336 1373 LINE",
"-336 818 LINE",
"-466 818 LINE"
);
},
{
closed = 1;
nodes = (
"-343 827 LINE",
"-343 1364 LINE",
"-458 1364 LINE",
"-458 827 LINE"
);
},
{
closed = 1;
nodes = (
"-339 649 OFFCURVE",
"-319 663 OFFCURVE",
"-312 667 CURVE",
"-329 704 LINE",
"-332 704 OFFCURVE",
"-338 701 OFFCURVE",
"-347 701 CURVE SMOOTH",
"-363 701 OFFCURVE",
"-384 715 OFFCURVE",
"-384 739 CURVE SMOOTH",
"-384 761 OFFCURVE",
"-369 790 OFFCURVE",
"-333 800 CURVE",
"-392 802 LINE",
"-447 797 OFFCURVE",
"-482 754 OFFCURVE",
"-482 717 CURVE SMOOTH",
"-482 683 OFFCURVE",
"-447 649 OFFCURVE",
"-389 649 CURVE SMOOTH"
);
},
{
closed = 1;
nodes = (
"-487 -110 OFFCURVE",
"-455 -141 OFFCURVE",
"-403 -141 CURVE SMOOTH",
"-353 -141 OFFCURVE",
"-333 -127 OFFCURVE",
"-326 -123 CURVE",
"-343 -86 LINE",
"-346 -87 OFFCURVE",
"-352 -89 OFFCURVE",
"-361 -89 CURVE SMOOTH",
"-380 -89 OFFCURVE",
"-401 -77 OFFCURVE",
"-401 -51 CURVE SMOOTH",
"-401 -21 OFFCURVE",
"-379 9 OFFCURVE",
"-343 27 CURVE",
"-343 564 LINE",
"-458 564 LINE",
"-458 27 LINE",
"-409 27 LINE",
"-449 13 OFFCURVE",
"-487 -28 OFFCURVE",
"-487 -73 CURVE SMOOTH"
);
},
{
closed = 1;
nodes = (
"-328 0 LINE",
"-328 591 LINE",
"-487 591 LINE",
"-487 0 LINE"
);
},
{
closed = 1;
nodes = (
"-472 575 LINE",
"-344 575 LINE",
"-344 16 LINE",
"-472 16 LINE"
);
},
{
closed = 1;
nodes = (
"-351 24 LINE",
"-351 567 LINE",
"-464 567 LINE",
"-464 24 LINE"
);
},
{
closed = 1;
nodes = (
"-371 -130 OFFCURVE",
"-354 -122 OFFCURVE",
"-347 -117 CURVE",
"-355 -90 LINE",
"-359 -91 OFFCURVE",
"-365 -94 OFFCURVE",
"-376 -94 CURVE SMOOTH",
"-391 -94 OFFCURVE",
"-405 -85 OFFCURVE",
"-405 -65 CURVE SMOOTH",
"-405 -32 OFFCURVE",
"-374 3 OFFCURVE",
"-329 26 CURVE",
"-369 30 LINE",
"-393 20 OFFCURVE",
"-459 -27 OFFCURVE",
"-459 -76 CURVE SMOOTH",
"-459 -111 OFFCURVE",
"-434 -130 OFFCURVE",
"-394 -130 CURVE SMOOTH"
);
},
{
closed = 1;
nodes = (
"-377 -132 OFFCURVE",
"-360 -124 OFFCURVE",
"-353 -119 CURVE",
"-361 -92 LINE",
"-365 -93 OFFCURVE",
"-371 -96 OFFCURVE",
"-382 -96 CURVE SMOOTH",
"-397 -96 OFFCURVE",
"-411 -87 OFFCURVE",
"-411 -67 CURVE SMOOTH",
"-411 -34 OFFCURVE",
"-387 1 OFFCURVE",
"-351 24 CURVE",
"-391 28 LINE",
"-411 18 OFFCURVE",
"-465 -29 OFFCURVE",
"-465 -78 CURVE SMOOTH",
"-465 -113 OFFCURVE",
"-440 -132 OFFCURVE",
"-400 -132 CURVE SMOOTH"
);
},
{
closed = 1;
nodes = (
"149 24 LINE",
"149 567 LINE",
"36 567 LINE",
"36 24 LINE"
);
},
{
closed = 1;
nodes = (
"123 -132 OFFCURVE",
"140 -124 OFFCURVE",
"147 -119 CURVE",
"139 -92 LINE",
"135 -93 OFFCURVE",
"129 -96 OFFCURVE",
"118 -96 CURVE SMOOTH",
"103 -96 OFFCURVE",
"89 -87 OFFCURVE",
"89 -64 CURVE SMOOTH",
"89 -34 OFFCURVE",
"109 -3 OFFCURVE",
"149 24 CURVE",
"109 28 LINE",
"89 18 OFFCURVE",
"35 -29 OFFCURVE",
"35 -76 CURVE SMOOTH",
"35 -113 OFFCURVE",
"60 -132 OFFCURVE",
"100 -132 CURVE SMOOTH"
);
},
{
closed = 1;
nodes = (
"123 -132 OFFCURVE",
"140 -124 OFFCURVE",
"147 -119 CURVE",
"139 -92 LINE",
"135 -93 OFFCURVE",
"129 -96 OFFCURVE",
"118 -96 CURVE SMOOTH",
"103 -96 OFFCURVE",
"89 -87 OFFCURVE",
"89 -64 CURVE SMOOTH",
"89 -34 OFFCURVE",
"109 -3 OFFCURVE",
"149 24 CURVE",
"149 567 LINE",
"36 567 LINE",
"36 24 LINE",
"102 24 LINE",
"79 9 OFFCURVE",
"35 -34 OFFCURVE",
"35 -76 CURVE SMOOTH",
"35 -113 OFFCURVE",
"60 -132 OFFCURVE",
"100 -132 CURVE SMOOTH"
);
},
{
closed = 1;
nodes = (
"9 -127 OFFCURVE",
"45 -158 OFFCURVE",
"100 -158 CURVE SMOOTH",
"132 -158 OFFCURVE",
"167 -144 OFFCURVE",
"176 -125 CURVE",
"162 -78 LINE",
"146 -69 LINE",
"133 -67 LINE",
"128 -68 LINE SMOOTH",
"124 -70 OFFCURVE",
"122 -70 OFFCURVE",
"118 -70 CURVE SMOOTH",
"115 -70 OFFCURVE",
"115 -70 OFFCURVE",
"115 -64 CURVE SMOOTH",
"115 -40 OFFCURVE",
"136 -14 OFFCURVE",
"175 10 CURVE",
"175 593 LINE",
"10 593 LINE",
"10 -2 LINE",
"38 -2 LINE",
"20 -27 OFFCURVE",
"9 -53 OFFCURVE",
"9 -76 CURVE SMOOTH"
);
},
{
closed = 1;
nodes = (
"54 -140 OFFCURVE",
"27 -116 OFFCURVE",
"27 -76 CURVE SMOOTH",
"27 -41 OFFCURVE",
"55 -5 OFFCURVE",
"79 16 CURVE",
"28 16 LINE",
"28 575 LINE",
"157 575 LINE",
"157 20 LINE",
"118 -6 OFFCURVE",
"97 -35 OFFCURVE",
"97 -64 CURVE SMOOTH",
"97 -80 OFFCURVE",
"105 -88 OFFCURVE",
"118 -88 CURVE SMOOTH",
"125 -88 OFFCURVE",
"130 -87 OFFCURVE",
"133 -85 CURVE SMOOTH",
"135 -85 OFFCURVE",
"136 -85 OFFCURVE",
"137 -84 CURVE",
"147 -90 LINE",
"156 -122 LINE",
"145 -133 OFFCURVE",
"121 -140 OFFCURVE",
"100 -140 CURVE SMOOTH"
);
}
);
};
layerId = "04A772B0-FA71-43EE-BB43-CAC7F0EBD631";
paths = (
{
closed = 1;
nodes = (
"133 -158 OFFCURVE",
"160 -145 OFFCURVE",
"178 -127 CURVE",
"157 -52 LINE",
"149 -58 OFFCURVE",
"137 -66 OFFCURVE",
"128 -66 CURVE SMOOTH",
"121 -66 OFFCURVE",
"117 -63 OFFCURVE",
"117 -58 CURVE SMOOTH",
"117 -37 OFFCURVE",
"137 -12 OFFCURVE",
"175 10 CURVE",
"175 593 LINE",
"10 593 LINE",
"10 -2 LINE",
"38 -2 LINE",
"18 -27 OFFCURVE",
"6 -53 OFFCURVE",
"6 -76 CURVE SMOOTH",
"6 -127 OFFCURVE",
"43 -158 OFFCURVE",
"100 -158 CURVE SMOOTH"
);
},
{
closed = 1;
nodes = (
"52 -141 OFFCURVE",
"24 -117 OFFCURVE",
"24 -76 CURVE SMOOTH",
"24 -41 OFFCURVE",
"54 -5 OFFCURVE",
"79 16 CURVE",
"28 16 LINE",
"28 575 LINE",
"157 575 LINE",
"157 20 LINE",
"119 -4 OFFCURVE",
"99 -32 OFFCURVE",
"99 -59 CURVE SMOOTH",
"99 -73 OFFCURVE",
"108 -83 OFFCURVE",
"120 -83 CURVE SMOOTH",
"128 -83 OFFCURVE",
"139 -80 OFFCURVE",
"146 -75 CURVE",
"158 -123 LINE",
"147 -134 OFFCURVE",
"122 -141 OFFCURVE",
"100 -141 CURVE SMOOTH"
);
},
{
closed = 1;
nodes = (
"124 -133 OFFCURVE",
"142 -125 OFFCURVE",
"149 -120 CURVE",
"141 -87 LINE",
"137 -88 OFFCURVE",
"131 -91 OFFCURVE",
"120 -91 CURVE SMOOTH",
"105 -91 OFFCURVE",
"91 -82 OFFCURVE",
"91 -59 CURVE SMOOTH",
"91 -31 OFFCURVE",
"110 -1 OFFCURVE",
"149 24 CURVE",
"149 567 LINE",
"36 567 LINE",
"36 24 LINE",
"102 24 LINE",
"78 9 OFFCURVE",
"32 -34 OFFCURVE",
"32 -76 CURVE SMOOTH",
"32 -114 OFFCURVE",
"58 -133 OFFCURVE",
"100 -133 CURVE SMOOTH"
);
}
);
width = 177;
}
);
leftMetricsKey = I;
unicode = 012E;
},
{
glyphname = J;
lastChange = "2021-12-17 05:35:05 +0000";
layers = (
{
anchors = (
{
name = bottom;
position = "{133, 0}";
},
{
name = top;
position = "{149, 591}";
}
);
layerId = "04A772B0-FA71-43EE-BB43-CAC7F0EBD631";
paths = (
{
closed = 1;
nodes = (
"191 -1 OFFCURVE",
"236 41 OFFCURVE",
"236 172 CURVE SMOOTH",
"236 591 LINE",
"62 591 LINE",
"62 169 LINE SMOOTH",
"62 154 OFFCURVE",
"60 153 OFFCURVE",
"49 153 CURVE SMOOTH",
"2 153 LINE",
"2 3 LINE",
"34 -1 OFFCURVE",
"60 -1 OFFCURVE",
"69 -1 CURVE SMOOTH"
);
},
{
closed = 1;
nodes = (
"35 17 OFFCURVE",
"26 18 OFFCURVE",
"18 19 CURVE",
"18 134 LINE",
"49 134 LINE SMOOTH",
"73 134 OFFCURVE",
"78 141 OFFCURVE",
"78 169 CURVE SMOOTH",
"78 573 LINE",
"220 573 LINE",
"220 172 LINE SMOOTH",
"220 53 OFFCURVE",
"179 17 OFFCURVE",
"69 17 CURVE SMOOTH",
"46 17 LINE SMOOTH"
);
},
{
closed = 1;
nodes = (
"69 26 LINE SMOOTH",
"174 26 OFFCURVE",
"212 60 OFFCURVE",
"212 172 CURVE SMOOTH",
"212 564 LINE",
"86 564 LINE",
"86 169 LINE SMOOTH",
"86 133 OFFCURVE",
"80 125 OFFCURVE",
"49 125 CURVE SMOOTH",
"26 125 LINE",
"26 27 LINE",
"30 26 OFFCURVE",
"37 26 OFFCURVE",
"47 26 CURVE SMOOTH"
);
}
);
width = 248;
}
);
leftKerningGroup = J;
note = J;
rightKerningGroup = J;
rightMetricsKey = "=O+5";
unicode = 004A;
},
{
glyphname = K;
lastChange = "2021-12-17 05:35:05 +0000";
layers = (
{
anchors = (
{
name = bottom;
position = "{199, 0}";
},
{
name = top;
position = "{203, 591}";
}
);
layerId = "04A772B0-FA71-43EE-BB43-CAC7F0EBD631";
paths = (
{
closed = 1;
nodes = (
"199 0 LINE",
"199 17 LINE",
"202 0 LINE",
"412 0 LINE",
"315 306 LINE",
"411 591 LINE",
"9 591 LINE",
"9 0 LINE"
);
},
{
closed = 1;
nodes = (
"26 573 LINE",
"181 573 LINE",
"181 436 LINE",
"209 573 LINE",
"387 573 LINE",
"297 306 LINE",
"342 162 LINE SMOOTH",
"357 112 OFFCURVE",
"373 64 OFFCURVE",
"388 18 CURVE",
"216 18 LINE",
"181 182 LINE",
"181 18 LINE",
"26 18 LINE"
);
},
{
closed = 1;
nodes = (
"173 27 LINE",
"173 269 LINE",
"223 27 LINE",
"377 27 LINE",
"288 306 LINE",
"375 564 LINE",
"216 564 LINE",
"173 345 LINE",
"173 564 LINE",
"35 564 LINE",
"35 27 LINE"
);
}
);
userData = {
assembly = "PUSHW[ ]	/* 4 values pushed */\0127 6 8 4 \012CALL[ ]	/* CallFunction */\012PUSHW[ ]	/* 1 value pushed */\0127 \012SRP0[ ]	/* SetRefPoint0 */\012PUSHW[ ]	/* 1 value pushed */\0120 \012MDRP[10000]	/* MoveDirectRelPt */\012SVTCA[0]	/* SetFreedomAndProjectionVectorToAxis */\012PUSHW[ ]	/* 1 value pushed */\0124 \012MDAP[1]	/* MoveDirectAbsPt */\012PUSHW[ ]	/* 1 value pushed */\0127 \012MDAP[1]	/* MoveDirectAbsPt */\012IUP[0]	/* InterpolateUntPts */\012IUP[1]	/* InterpolateUntPts */";
};
width = 414;
}
);
leftKerningGroup = H;
leftMetricsKey = H;
note = K;
rightKerningGroup = K;
unicode = 004B;
},
{
glyphname = L;
lastChange = "2022-01-13 03:30:36 +0000";
layers = (
{
anchors = (
{
name = bottom;
position = "{142, 0}";
},
{
name = center;
position = "{280, 317}";
},
{
name = top;
position = "{102, 591}";
},
{
name = topright;
position = "{186, 445}";
}
);
layerId = "04A772B0-FA71-43EE-BB43-CAC7F0EBD631";
paths = (
{
closed = 1;
nodes = (
"275 0 LINE",
"275 153 LINE",
"186 153 LINE",
"186 591 LINE",
"9 591 LINE",
"9 0 LINE"
);
},
{
closed = 1;
nodes = (
"26 573 LINE",
"170 573 LINE",
"170 134 LINE",
"259 134 LINE",
"259 18 LINE",
"26 18 LINE"
);
},
{
closed = 1;
nodes = (
"251 27 LINE",
"251 125 LINE",
"162 125 LINE",
"162 564 LINE",
"34 564 LINE",
"34 27 LINE"
);
}
);
userData = {
assembly = "PUSHW[ ]	/* 4 values pushed */\0121 6 0 4 \012CALL[ ]	/* CallFunction */\012SVTCA[0]	/* SetFreedomAndProjectionVectorToAxis */\012PUSHW[ ]	/* 4 values pushed */\0123 3 4 4 \012CALL[ ]	/* CallFunction */\012IUP[0]	/* InterpolateUntPts */\012IUP[1]	/* InterpolateUntPts */";
};
width = 279;
}
);
leftKerningGroup = H;
leftMetricsKey = H;
note = L;
rightKerningGroup = L;
unicode = 004C;
},
{
glyphname = Lslash;
lastChange = "2021-12-06 10:21:32 +0000";
layers = (
{
layerId = "04A772B0-FA71-43EE-BB43-CAC7F0EBD631";
paths = (
{
closed = 1;
nodes = (
"324 0 LINE",
"324 152 LINE",
"232 152 LINE",
"232 214 LINE",
"284 239 LINE",
"284 356 LINE",
"232 331 LINE",
"232 585 LINE",
"50 585 LINE",
"50 244 LINE",
"6 223 LINE",
"6 106 LINE",
"50 126 LINE",
"50 0 LINE"
);
},
{
closed = 1;
nodes = (
"67 155 LINE",
"23 133 LINE",
"23 211 LINE",
"67 232 LINE",
"67 567 LINE",
"215 567 LINE",
"215 304 LINE",
"223 308 OFFCURVE",
"232 312 OFFCURVE",
"242 316 CURVE SMOOTH",
"267 327 LINE",
"267 251 LINE",
"215 226 LINE",
"215 134 LINE",
"307 134 LINE",
"307 18 LINE",
"67 18 LINE"
);
},
{
closed = 1;
nodes = (
"299 27 LINE",
"299 125 LINE",
"207 125 LINE",
"207 231 LINE",
"258 257 LINE",
"258 314 LINE",
"207 289 LINE",
"207 558 LINE",
"75 558 LINE",
"75 226 LINE",
"31 205 LINE",
"31 147 LINE",
"75 168 LINE",
"75 27 LINE"
);
}
);
userData = {
assembly = "SVTCA[0]	/* SetFreedomAndProjectionVectorToAxis */\012PUSHW[ ]	/* 1 value pushed */\0129 \012MDAP[1]	/* MoveDirectAbsPt */\012PUSHW[ ]	/* 4 values pushed */\0122 3 3 4 \012CALL[ ]	/* CallFunction */\012PUSHW[ ]	/* 3 values pushed */\01236 3 2 \012SRP1[ ]	/* SetRefPoint1 */\012SRP2[ ]	/* SetRefPoint2 */\012IP[ ]	/* InterpolatePts */\012IUP[0]	/* InterpolateUntPts */\012IUP[1]	/* InterpolateUntPts */";
};
width = 331;
}
);
leftKerningGroup = H;
note = Lslash;
rightKerningGroup = L;
unicode = 0141;
},
{
glyphname = M;
lastChange = "2021-12-17 05:35:05 +0000";
layers = (
{
layerId = "04A772B0-FA71-43EE-BB43-CAC7F0EBD631";
paths = (
{
closed = 1;
nodes = (
"499 0 LINE",
"499 591 LINE",
"269 591 LINE",
"254 483 LINE",
"239 591 LINE",
"9 591 LINE",
"9 0 LINE"
);
},
{
closed = 1;
nodes = (
"27 573 LINE",
"224 573 LINE",
"254 357 LINE",
"285 573 LINE",
"481 573 LINE",
"481 18 LINE",
"340 18 LINE",
"340 255 LINE",
"310 18 LINE",
"199 18 LINE",
"169 255 LINE",
"169 18 LINE",
"27 18 LINE"
);
},
{
closed = 1;
nodes = (
"160 27 LINE",
"160 401 LINE",
"207 27 LINE",
"301 27 LINE",
"349 401 LINE",
"349 27 LINE",
"473 27 LINE",
"473 564 LINE",
"293 564 LINE",
"254 290 LINE",
"216 564 LINE",
"36 564 LINE",
"36 27 LINE"
);
}
);
userData = {
assembly = "SVTCA[0]	/* SetFreedomAndProjectionVectorToAxis */\012PUSHW[ ]	/* 1 value pushed */\0121 \012MDAP[1]	/* MoveDirectAbsPt */\012PUSHW[ ]	/* 1 value pushed */\0128 \012MDAP[1]	/* MoveDirectAbsPt */\012PUSHW[ ]	/* 1 value pushed */\01211 \012MDAP[1]	/* MoveDirectAbsPt */\012IUP[0]	/* InterpolateUntPts */\012IUP[1]	/* InterpolateUntPts */";
};
width = 508;
}
);
leftKerningGroup = H;
leftMetricsKey = H;
note = M;
rightKerningGroup = H;
rightMetricsKey = H;
unicode = 004D;
},
{
glyphname = N;
lastChange = "2021-12-17 05:35:05 +0000";
layers = (
{
anchors = (
{
name = bottom;
position = "{188, 0}";
},
{
name = top;
position = "{181, 591}";
}
);
layerId = "04A772B0-FA71-43EE-BB43-CAC7F0EBD631";
paths = (
{
closed = 1;
nodes = (
"179 0 LINE",
"179 63 LINE",
"196 0 LINE",
"358 0 LINE",
"358 591 LINE",
"189 591 LINE",
"189 527 LINE",
"172 591 LINE",
"9 591 LINE",
"9 0 LINE"
);
},
{
closed = 1;
nodes = (
"26 573 LINE",
"160 573 LINE",
"206 384 LINE",
"206 573 LINE",
"341 573 LINE",
"341 18 LINE",
"209 18 LINE",
"162 184 LINE",
"162 18 LINE",
"26 18 LINE"
);
},
{
closed = 1;
nodes = (
"154 27 LINE",
"154 250 LINE",
"216 27 LINE",
"333 27 LINE",
"333 564 LINE",
"214 564 LINE",
"214 314 LINE",
"153 564 LINE",
"35 564 LINE",
"35 27 LINE"
);
}
);
userData = {
assembly = "PUSHW[ ]	/* 4 values pushed */\01224 6 3 4 \012CALL[ ]	/* CallFunction */\012PUSHW[ ]	/* 3 values pushed */\0120 3 24 \012SRP1[ ]	/* SetRefPoint1 */\012SRP2[ ]	/* SetRefPoint2 */\012IP[ ]	/* InterpolatePts */\012PUSHW[ ]	/* 3 values pushed */\01219 3 24 \012SRP1[ ]	/* SetRefPoint1 */\012SRP2[ ]	/* SetRefPoint2 */\012IP[ ]	/* InterpolatePts */\012PUSHW[ ]	/* 1 value pushed */\01224 \012SRP0[ ]	/* SetRefPoint0 */\012PUSHW[ ]	/* 1 value pushed */\01220 \012MDRP[10000]	/* MoveDirectRelPt */\012PUSHW[ ]	/* 1 value pushed */\01220 \012MDAP[1]	/* MoveDirectAbsPt */\012SVTCA[0]	/* SetFreedomAndProjectionVectorToAxis */\012PUSHW[ ]	/* 1 value pushed */\0121 \012MDAP[1]	/* MoveDirectAbsPt */\012PUSHW[ ]	/* 1 value pushed */\0128 \012MDAP[1]	/* MoveDirectAbsPt */\012IUP[0]	/* InterpolateUntPts */\012IUP[1]	/* InterpolateUntPts */";
};
width = 367;
}
);
leftKerningGroup = H;
leftMetricsKey = H;
note = N;
rightKerningGroup = H;
rightMetricsKey = H;
unicode = 004E;
},
{
glyphname = Eng;
lastChange = "2021-12-06 10:21:32 +0000";
layers = (
{
layerId = "04A772B0-FA71-43EE-BB43-CAC7F0EBD631";
paths = (
{
closed = 1;
nodes = (
"306 -233 OFFCURVE",
"358 -193 OFFCURVE",
"358 -56 CURVE SMOOTH",
"358 608 LINE",
"189 608 LINE",
"189 542 LINE",
"172 608 LINE",
"9 608 LINE",
"9 0 LINE",
"171 0 LINE",
"171 -59 LINE SMOOTH",
"171 -74 OFFCURVE",
"168 -76 OFFCURVE",
"158 -76 CURVE SMOOTH",
"107 -76 LINE",
"107 -230 LINE",
"141 -233 OFFCURVE",
"169 -233 OFFCURVE",
"179 -233 CURVE SMOOTH"
);
},
{
closed = 1;
nodes = (
"143 -215 OFFCURVE",
"133 -214 OFFCURVE",
"125 -213 CURVE",
"125 -94 LINE",
"158 -94 LINE SMOOTH",
"183 -94 OFFCURVE",
"189 -88 OFFCURVE",
"189 -59 CURVE SMOOTH",
"189 94 LINE",
"162 190 LINE",
"162 19 LINE",
"26 19 LINE",
"26 589 LINE",
"160 589 LINE",
"206 395 LINE",
"206 589 LINE",
"341 589 LINE",
"341 -56 LINE SMOOTH",
"341 -178 OFFCURVE",
"294 -215 OFFCURVE",
"179 -215 CURVE SMOOTH",
"155 -215 LINE SMOOTH"
);
},
{
closed = 1;
nodes = (
"179 -205 LINE SMOOTH",
"290 -205 OFFCURVE",
"333 -172 OFFCURVE",
"333 -56 CURVE SMOOTH",
"333 580 LINE",
"214 580 LINE",
"214 323 LINE",
"153 580 LINE",
"35 580 LINE",
"35 28 LINE",
"154 28 LINE",
"154 257 LINE",
"197 97 LINE",
"197 -59 LINE SMOOTH",
"197 -95 OFFCURVE",
"190 -104 OFFCURVE",
"158 -104 CURVE SMOOTH",
"133 -104 LINE",
"133 -204 LINE",
"137 -205 OFFCURVE",
"145 -205 OFFCURVE",
"156 -205 CURVE SMOOTH"
);
}
);
userData = {
assembly = "PUSHW[ ]	/* 4 values pushed */\01235 6 8 4 \012CALL[ ]	/* CallFunction */\012PUSHW[ ]	/* 1 value pushed */\01235 \012SRP0[ ]	/* SetRefPoint0 */\012PUSHW[ ]	/* 1 value pushed */\0126 \012MDRP[10000]	/* MoveDirectRelPt */\012PUSHW[ ]	/* 1 value pushed */\0126 \012MDAP[1]	/* MoveDirectAbsPt */\012PUSHW[ ]	/* 1 value pushed */\01235 \012SRP0[ ]	/* SetRefPoint0 */\012PUSHW[ ]	/* 1 value pushed */\01210 \012MDRP[10000]	/* MoveDirectRelPt */\012PUSHW[ ]	/* 1 value pushed */\01210 \012MDAP[1]	/* MoveDirectAbsPt */\012PUSHW[ ]	/* 1 value pushed */\01235 \012SRP0[ ]	/* SetRefPoint0 */\012PUSHW[ ]	/* 1 value pushed */\01238 \012MDRP[10000]	/* MoveDirectRelPt */\012PUSHW[ ]	/* 1 value pushed */\01238 \012MDAP[1]	/* MoveDirectAbsPt */\012PUSHW[ ]	/* 1 value pushed */\0128 \012SRP0[ ]	/* SetRefPoint0 */\012PUSHW[ ]	/* 2 values pushed */\01251 6 \012MIRP[10100]	/* MoveIndirectRelPt */\012PUSHW[ ]	/* 3 values pushed */\01239 8 51 \012SRP1[ ]	/* SetRefPoint1 */\012SRP2[ ]	/* SetRefPoint2 */\012IP[ ]	/* InterpolatePts */\012SVTCA[0]	/* SetFreedomAndProjectionVectorToAxis */\012PUSHW[ ]	/* 1 value pushed */\0127 \012MDAP[1]	/* MoveDirectAbsPt */\012IUP[0]	/* InterpolateUntPts */\012IUP[1]	/* InterpolateUntPts */";
};
width = 367;
}
);
leftKerningGroup = H;
leftMetricsKey = H;
note = Eng;
rightKerningGroup = H;
rightMetricsKey = H;
unicode = 014A;
},
{
glyphname = O;
lastChange = "2022-01-12 23:18:30 +0000";
layers = (
{
anchors = (
{
name = bottom;
position = "{190, 0}";
},
{
name = center;
position = "{190, 296}";
},
{
name = ogonek;
position = "{254, 0}";
},
{
name = top;
position = "{189, 591}";
},
{
name = topleft;
position = "{6, 591}";
},
{
name = topright;
position = "{259, 589}";
}
);
background = {
paths = (
{
closed = 1;
nodes = (
"311 -11 OFFCURVE",
"364 29 OFFCURVE",
"364 186 CURVE SMOOTH",
"364 451 LINE SMOOTH",
"364 560 OFFCURVE",
"298 601 OFFCURVE",
"189 601 CURVE SMOOTH",
"79 601 OFFCURVE",
"7 559 OFFCURVE",
"7 451 CURVE SMOOTH",
"7 185 LINE SMOOTH",
"7 29 OFFCURVE",
"67 -11 OFFCURVE",
"189 -11 CURVE SMOOTH"
);
},
{
closed = 1;
nodes = (
"79 7 OFFCURVE",
"24 44 OFFCURVE",
"24 185 CURVE SMOOTH",
"24 451 LINE SMOOTH",
"24 547 OFFCURVE",
"90 583 OFFCURVE",
"189 583 CURVE SMOOTH",
"288 583 OFFCURVE",
"347 547 OFFCURVE",
"347 451 CURVE SMOOTH",
"347 186 LINE SMOOTH",
"347 44 OFFCURVE",
"298 7 OFFCURVE",
"189 7 CURVE SMOOTH"
);
},
{
closed = 1;
nodes = (
"294 16 OFFCURVE",
"338 51 OFFCURVE",
"338 186 CURVE SMOOTH",
"338 451 LINE SMOOTH",
"338 542 OFFCURVE",
"282 574 OFFCURVE",
"189 574 CURVE SMOOTH",
"94 574 OFFCURVE",
"33 540 OFFCURVE",
"33 451 CURVE SMOOTH",
"33 185 LINE SMOOTH",
"33 50 OFFCURVE",
"83 16 OFFCURVE",
"189 16 CURVE SMOOTH"
);
},
{
closed = 1;
nodes = (
"184 100 OFFCURVE",
"181 102 OFFCURVE",
"179 106 CURVE SMOOTH",
"176 110 OFFCURVE",
"175 117 OFFCURVE",
"175 127 CURVE SMOOTH",
"175 458 LINE SMOOTH",
"175 469 OFFCURVE",
"176 476 OFFCURVE",
"179 480 CURVE SMOOTH",
"181 483 OFFCURVE",
"184 485 OFFCURVE",
"189 485 CURVE SMOOTH",
"192 485 OFFCURVE",
"195 483 OFFCURVE",
"198 480 CURVE SMOOTH",
"201 476 OFFCURVE",
"202 469 OFFCURVE",
"202 458 CURVE SMOOTH",
"202 127 LINE SMOOTH",
"202 117 OFFCURVE",
"201 110 OFFCURVE",
"198 106 CURVE SMOOTH",
"195 102 OFFCURVE",
"192 100 OFFCURVE",
"189 100 CURVE SMOOTH"
);
},
{
closed = 1;
nodes = (
"192 109 OFFCURVE",
"194 115 OFFCURVE",
"194 127 CURVE SMOOTH",
"194 458 LINE SMOOTH",
"194 465 OFFCURVE",
"194 470 OFFCURVE",
"193 473 CURVE SMOOTH",
"192 475 OFFCURVE",
"190 476 OFFCURVE",
"189 476 CURVE SMOOTH",
"187 476 OFFCURVE",
"186 475 OFFCURVE",
"185 473 CURVE SMOOTH",
"184 470 OFFCURVE",
"183 465 OFFCURVE",
"183 458 CURVE SMOOTH",
"183 127 LINE SMOOTH",
"183 115 OFFCURVE",
"185 109 OFFCURVE",
"189 109 CURVE SMOOTH"
);
},
{
closed = 1;
nodes = (
"67 596 OFFCURVE",
"7 556 OFFCURVE",
"7 400 CURVE SMOOTH",
"7 134 LINE SMOOTH",
"7 26 OFFCURVE",
"79 -16 OFFCURVE",
"189 -16 CURVE SMOOTH",
"298 -16 OFFCURVE",
"364 25 OFFCURVE",
"364 134 CURVE SMOOTH",
"364 399 LINE SMOOTH",
"364 556 OFFCURVE",
"311 596 OFFCURVE",
"189 596 CURVE SMOOTH"
);
},
{
closed = 1;
nodes = (
"298 579 OFFCURVE",
"347 542 OFFCURVE",
"347 399 CURVE SMOOTH",
"347 134 LINE SMOOTH",
"347 37 OFFCURVE",
"288 1 OFFCURVE",
"189 1 CURVE SMOOTH",
"90 1 OFFCURVE",
"24 37 OFFCURVE",
"24 134 CURVE SMOOTH",
"24 400 LINE SMOOTH",
"24 542 OFFCURVE",
"79 579 OFFCURVE",
"189 579 CURVE SMOOTH"
);
},
{
closed = 1;
nodes = (
"83 570 OFFCURVE",
"33 536 OFFCURVE",
"33 400 CURVE SMOOTH",
"33 134 LINE SMOOTH",
"33 44 OFFCURVE",
"94 10 OFFCURVE",
"189 10 CURVE SMOOTH",
"282 10 OFFCURVE",
"338 42 OFFCURVE",
"338 134 CURVE SMOOTH",
"338 399 LINE SMOOTH",
"338 535 OFFCURVE",
"294 570 OFFCURVE",
"189 570 CURVE SMOOTH"
);
},
{
closed = 1;
nodes = (
"198 485 OFFCURVE",
"202 473 OFFCURVE",
"202 458 CURVE SMOOTH",
"202 125 LINE SMOOTH",
"202 106 OFFCURVE",
"199 100 OFFCURVE",
"189 100 CURVE SMOOTH",
"179 100 OFFCURVE",
"175 106 OFFCURVE",
"175 125 CURVE SMOOTH",
"175 458 LINE SMOOTH",
"175 472 OFFCURVE",
"178 485 OFFCURVE",
"189 485 CURVE SMOOTH"
);
},
{
closed = 1;
nodes = (
"185 476 OFFCURVE",
"183 470 OFFCURVE",
"183 458 CURVE SMOOTH",
"183 121 LINE SMOOTH",
"183 113 OFFCURVE",
"184 109 OFFCURVE",
"189 109 CURVE SMOOTH",
"193 109 OFFCURVE",
"194 113 OFFCURVE",
"194 121 CURVE SMOOTH",
"194 458 LINE SMOOTH",
"194 470 OFFCURVE",
"192 476 OFFCURVE",
"189 476 CURVE SMOOTH"
);
}
);
};
layerId = "04A772B0-FA71-43EE-BB43-CAC7F0EBD631";
paths = (
{
closed = 1;
nodes = (
"311 -11 OFFCURVE",
"364 29 OFFCURVE",
"364 186 CURVE SMOOTH",
"364 452 LINE SMOOTH",
"364 561 OFFCURVE",
"298 602 OFFCURVE",
"189 602 CURVE SMOOTH",
"79 602 OFFCURVE",
"7 560 OFFCURVE",
"7 452 CURVE SMOOTH",
"7 185 LINE SMOOTH",
"7 29 OFFCURVE",
"67 -11 OFFCURVE",
"189 -11 CURVE SMOOTH"
);
},
{
closed = 1;
nodes = (
"79 6 OFFCURVE",
"24 43 OFFCURVE",
"24 185 CURVE SMOOTH",
"24 452 LINE SMOOTH",
"24 549 OFFCURVE",
"90 585 OFFCURVE",
"189 585 CURVE SMOOTH",
"288 585 OFFCURVE",
"347 549 OFFCURVE",
"347 452 CURVE SMOOTH",
"347 186 LINE SMOOTH",
"347 43 OFFCURVE",
"298 6 OFFCURVE",
"189 6 CURVE SMOOTH"
);
},
{
closed = 1;
nodes = (
"294 15 OFFCURVE",
"338 50 OFFCURVE",
"338 186 CURVE SMOOTH",
"338 452 LINE SMOOTH",
"338 544 OFFCURVE",
"282 576 OFFCURVE",
"189 576 CURVE SMOOTH",
"94 576 OFFCURVE",
"33 542 OFFCURVE",
"33 452 CURVE SMOOTH",
"33 185 LINE SMOOTH",
"33 49 OFFCURVE",
"83 15 OFFCURVE",
"189 15 CURVE SMOOTH"
);
},
{
closed = 1;
nodes = (
"178 100 OFFCURVE",
"175 108 OFFCURVE",
"175 125 CURVE SMOOTH",
"175 461 LINE SMOOTH",
"175 480 OFFCURVE",
"179 486 OFFCURVE",
"189 486 CURVE SMOOTH",
"199 486 OFFCURVE",
"202 480 OFFCURVE",
"202 461 CURVE SMOOTH",
"202 125 LINE SMOOTH",
"202 104 OFFCURVE",
"198 100 OFFCURVE",
"189 100 CURVE SMOOTH"
);
},
{
closed = 1;
nodes = (
"192 108 OFFCURVE",
"194 111 OFFCURVE",
"194 122 CURVE SMOOTH",
"194 465 LINE SMOOTH",
"194 473 OFFCURVE",
"193 477 OFFCURVE",
"189 477 CURVE SMOOTH",
"184 477 OFFCURVE",
"183 473 OFFCURVE",
"183 465 CURVE SMOOTH",
"183 122 LINE SMOOTH",
"183 111 OFFCURVE",
"185 108 OFFCURVE",
"189 108 CURVE SMOOTH"
);
}
);
width = 371;
}
);
leftKerningGroup = O;
note = O;
rightKerningGroup = O;
unicode = 004F;
},
{
color = 3;
glyphname = Ohorn;
lastChange = "2022-01-12 23:32:10 +0000";
layers = (
{
anchors = (
{
name = bottom;
position = "{199, 0}";
},
{
name = center;
position = "{199, 296}";
},
{
name = ogonek;
position = "{271, 0}";
},
{
name = top;
position = "{199, 591}";
},
{
name = topleft;
position = "{20, 591}";
},
{
name = topright;
position = "{424, 658}";
}
);
background = {
paths = (
{
closed = 1;
nodes = (
"311 -11 OFFCURVE",
"364 29 OFFCURVE",
"364 186 CURVE SMOOTH",
"364 452 LINE SMOOTH",
"364 561 OFFCURVE",
"297 602 OFFCURVE",
"189 602 CURVE SMOOTH",
"79 602 OFFCURVE",
"7 560 OFFCURVE",
"7 452 CURVE SMOOTH",
"7 185 LINE SMOOTH",
"7 29 OFFCURVE",
"67 -11 OFFCURVE",
"189 -11 CURVE SMOOTH"
);
},
{
closed = 1;
nodes = (
"79 6 OFFCURVE",
"24 43 OFFCURVE",
"24 185 CURVE SMOOTH",
"24 452 LINE SMOOTH",
"24 549 OFFCURVE",
"90 585 OFFCURVE",
"189 585 CURVE SMOOTH",
"288 585 OFFCURVE",
"347 549 OFFCURVE",
"347 452 CURVE SMOOTH",
"347 186 LINE SMOOTH",
"347 43 OFFCURVE",
"298 6 OFFCURVE",
"189 6 CURVE SMOOTH"
);
},
{
closed = 1;
nodes = (
"294 15 OFFCURVE",
"338 50 OFFCURVE",
"338 186 CURVE SMOOTH",
"338 452 LINE SMOOTH",
"338 544 OFFCURVE",
"282 576 OFFCURVE",
"189 576 CURVE SMOOTH",
"94 576 OFFCURVE",
"33 542 OFFCURVE",
"33 452 CURVE SMOOTH",
"33 185 LINE SMOOTH",
"33 49 OFFCURVE",
"83 15 OFFCURVE",
"189 15 CURVE SMOOTH"
);
},
{
closed = 1;
nodes = (
"178 100 OFFCURVE",
"175 108 OFFCURVE",
"175 125 CURVE SMOOTH",
"175 461 LINE SMOOTH",
"175 480 OFFCURVE",
"179 486 OFFCURVE",
"189 486 CURVE SMOOTH",
"199 486 OFFCURVE",
"202 480 OFFCURVE",
"202 461 CURVE SMOOTH",
"202 125 LINE SMOOTH",
"202 104 OFFCURVE",
"198 100 OFFCURVE",
"189 100 CURVE SMOOTH"
);
},
{
closed = 1;
nodes = (
"192 108 OFFCURVE",
"194 111 OFFCURVE",
"194 122 CURVE SMOOTH",
"194 465 LINE SMOOTH",
"194 473 OFFCURVE",
"193 477 OFFCURVE",
"189 477 CURVE SMOOTH",
"184 477 OFFCURVE",
"183 473 OFFCURVE",
"183 465 CURVE SMOOTH",
"183 122 LINE SMOOTH",
"183 111 OFFCURVE",
"185 108 OFFCURVE",
"189 108 CURVE SMOOTH"
);
},
{
closed = 1;
nodes = (
"385 511 OFFCURVE",
"413 536 OFFCURVE",
"413 619 CURVE SMOOTH",
"413 637 LINE",
"322 637 LINE",
"322 619 LINE SMOOTH",
"322 586 OFFCURVE",
"311 566 OFFCURVE",
"287 566 CURVE SMOOTH",
"264 566 LINE",
"301 511 LINE"
);
}
);
};
layerId = "04A772B0-FA71-43EE-BB43-CAC7F0EBD631";
paths = (
{
closed = 1;
nodes = (
"294 15 OFFCURVE",
"338 50 OFFCURVE",
"338 186 CURVE SMOOTH",
"338 452 LINE SMOOTH",
"338 476 OFFCURVE",
"334 496 OFFCURVE",
"327 512 CURVE",
"391 517 OFFCURVE",
"413 545 OFFCURVE",
"413 619 CURVE SMOOTH",
"413 637 LINE",
"322 637 LINE",
"322 619 LINE SMOOTH",
"322 586 OFFCURVE",
"311 566 OFFCURVE",
"287 566 CURVE SMOOTH",
"264 566 LINE",
"251 570 OFFCURVE",
"218 576 OFFCURVE",
"189 576 CURVE SMOOTH",
"94 576 OFFCURVE",
"33 542 OFFCURVE",
"33 452 CURVE SMOOTH",
"33 185 LINE SMOOTH",
"33 49 OFFCURVE",
"83 15 OFFCURVE",
"189 15 CURVE SMOOTH"
);
},
{
closed = 1;
nodes = (
"178 100 OFFCURVE",
"175 108 OFFCURVE",
"175 125 CURVE SMOOTH",
"175 461 LINE SMOOTH",
"175 480 OFFCURVE",
"179 486 OFFCURVE",
"189 486 CURVE SMOOTH",
"199 486 OFFCURVE",
"202 480 OFFCURVE",
"202 461 CURVE SMOOTH",
"202 125 LINE SMOOTH",
"202 104 OFFCURVE",
"198 100 OFFCURVE",
"189 100 CURVE SMOOTH"
);
},
{
closed = 1;
nodes = (
"315.985 -11 OFFCURVE",
"364 43.389 OFFCURVE",
"364 186 CURVE SMOOTH",
"364 452 LINE SMOOTH",
"364 465.563 OFFCURVE",
"362.828 478.665 OFFCURVE",
"360.446 490.947 CURVE",
"415.448 504.679 OFFCURVE",
"439 544.181 OFFCURVE",
"439 619 CURVE SMOOTH",
"439 663 LINE",
"296 663 LINE",
"296 619 LINE SMOOTH",
"296 596.91 OFFCURVE",
"292.234 592 OFFCURVE",
"287 592 CURVE SMOOTH",
"268.044 592 LINE",
"245.784 598.804 OFFCURVE",
"219.672 602 OFFCURVE",
"189 602 CURVE SMOOTH",
"70.34 602 OFFCURVE",
"7 550.27 OFFCURVE",
"7 452 CURVE SMOOTH",
"7 185 LINE SMOOTH",
"7 44.721 OFFCURVE",
"58.549 -11 OFFCURVE",
"189 -11 CURVE SMOOTH"
);
},
{
closed = 1;
nodes = (
"69.164 7 OFFCURVE",
"25 54.36 OFFCURVE",
"25 185 CURVE SMOOTH",
"25 452 LINE SMOOTH",
"25 539.746 OFFCURVE",
"80.304 584 OFFCURVE",
"189 584 CURVE SMOOTH",
"221 584 OFFCURVE",
"247 578 OFFCURVE",
"265.281 574 CURVE",
"287 574 LINE SMOOTH",
"304.925 574 OFFCURVE",
"314 588.463 OFFCURVE",
"314 619 CURVE SMOOTH",
"314 645 LINE",
"421 645 LINE",
"421 619 LINE SMOOTH",
"421 544.904 OFFCURVE",
"398.295 512.839 OFFCURVE",
"338.204 505.108 CURVE",
"343.322 489.773 OFFCURVE",
"346 471.997 OFFCURVE",
"346 452 CURVE SMOOTH",
"346 186 LINE SMOOTH",
"346 53.294 OFFCURVE",
"305.559 7 OFFCURVE",
"189 7 CURVE SMOOTH"
);
},
{
closed = 1;
nodes = (
"192.806 108 OFFCURVE",
"194 108.61 OFFCURVE",
"194 125 CURVE SMOOTH",
"194 461 LINE SMOOTH",
"194 477.451 OFFCURVE",
"192.751 478 OFFCURVE",
"189 478 CURVE SMOOTH",
"184.523 478 OFFCURVE",
"183 476.07 OFFCURVE",
"183 461 CURVE SMOOTH",
"183 125 LINE SMOOTH",
"183 110.489 OFFCURVE",
"184.521 108 OFFCURVE",
"189 108 CURVE SMOOTH"
);
}
);
width = 371;
}
);
leftKerningGroup = O;
rightKerningGroup = O;
unicode = 01A0;
},
{
color = 3;
glyphname = Oogonek;
lastChange = "2022-01-14 23:41:47 +0000";
layers = (
{
anchors = (
{
name = bottom;
position = "{190, 0}";
},
{
name = center;
position = "{190, 296}";
},
{
name = ogonek;
position = "{254, 0}";
},
{
name = top;
position = "{189, 591}";
},
{
name = topleft;
position = "{6, 591}";
},
{
name = topright;
position = "{261, 591}";
}
);
background = {
paths = (
{
closed = 1;
nodes = (
"-206 15 OFFCURVE",
"-162 50 OFFCURVE",
"-162 186 CURVE SMOOTH",
"-162 452 LINE SMOOTH",
"-162 544 OFFCURVE",
"-218 576 OFFCURVE",
"-311 576 CURVE SMOOTH",
"-406 576 OFFCURVE",
"-467 542 OFFCURVE",
"-467 452 CURVE SMOOTH",
"-467 185 LINE SMOOTH",
"-467 49 OFFCURVE",
"-417 15 OFFCURVE",
"-311 15 CURVE SMOOTH"
);
},
{
closed = 1;
nodes = (
"-322 100 OFFCURVE",
"-325 108 OFFCURVE",
"-325 125 CURVE SMOOTH",
"-325 461 LINE SMOOTH",
"-325 480 OFFCURVE",
"-321 486 OFFCURVE",
"-311 486 CURVE SMOOTH",
"-301 486 OFFCURVE",
"-298 480 OFFCURVE",
"-298 461 CURVE SMOOTH",
"-298 125 LINE SMOOTH",
"-298 104 OFFCURVE",
"-302 100 OFFCURVE",
"-311 100 CURVE SMOOTH"
);
},
{
closed = 1;
nodes = (
"-279 -130 OFFCURVE",
"-260 -122 OFFCURVE",
"-253 -117 CURVE",
"-261 -90 LINE",
"-265 -91 OFFCURVE",
"-272 -94 OFFCURVE",
"-283 -94 CURVE SMOOTH",
"-300 -94 OFFCURVE",
"-316 -85 OFFCURVE",
"-316 -61 CURVE SMOOTH",
"-316 -32 OFFCURVE",
"-296 3 OFFCURVE",
"-267 26 CURVE",
"-307 30 LINE",
"-332 5 OFFCURVE",
"-370 -27 OFFCURVE",
"-370 -74 CURVE SMOOTH",
"-370 -107 OFFCURVE",
"-343 -130 OFFCURVE",
"-303 -130 CURVE SMOOTH"
);
},
{
closed = 1;
nodes = (
"-279 -130 OFFCURVE",
"-260 -122 OFFCURVE",
"-253 -117 CURVE",
"-261 -90 LINE",
"-265 -91 OFFCURVE",
"-272 -94 OFFCURVE",
"-283 -94 CURVE SMOOTH",
"-300 -94 OFFCURVE",
"-316 -85 OFFCURVE",
"-316 -61 CURVE SMOOTH",
"-316 -36 OFFCURVE",
"-301 -6 OFFCURVE",
"-278 16 CURVE",
"-197 24 OFFCURVE",
"-162 65 OFFCURVE",
"-162 186 CURVE SMOOTH",
"-162 452 LINE SMOOTH",
"-162 544 OFFCURVE",
"-218 576 OFFCURVE",
"-311 576 CURVE SMOOTH",
"-406 576 OFFCURVE",
"-467 542 OFFCURVE",
"-467 452 CURVE SMOOTH",
"-467 185 LINE SMOOTH",
"-467 54 OFFCURVE",
"-420 18 OFFCURVE",
"-322 15 CURVE",
"-345 -8 OFFCURVE",
"-370 -36 OFFCURVE",
"-370 -74 CURVE SMOOTH",
"-370 -107 OFFCURVE",
"-343 -130 OFFCURVE",
"-303 -130 CURVE SMOOTH"
);
},
{
closed = 1;
nodes = (
"-322 100 OFFCURVE",
"-325 108 OFFCURVE",
"-325 125 CURVE SMOOTH",
"-325 461 LINE SMOOTH",
"-325 480 OFFCURVE",
"-321 486 OFFCURVE",
"-311 486 CURVE SMOOTH",
"-301 486 OFFCURVE",
"-298 480 OFFCURVE",
"-298 461 CURVE SMOOTH",
"-298 125 LINE SMOOTH",
"-298 104 OFFCURVE",
"-302 100 OFFCURVE",
"-311 100 CURVE SMOOTH"
);
},
{
closed = 1;
nodes = (
"-307 108 OFFCURVE",
"-306 109 OFFCURVE",
"-306 125 CURVE SMOOTH",
"-306 461 LINE SMOOTH",
"-306 477 OFFCURVE",
"-307 478 OFFCURVE",
"-311 478 CURVE SMOOTH",
"-315 478 OFFCURVE",
"-317 476 OFFCURVE",
"-317 461 CURVE SMOOTH",
"-317 125 LINE SMOOTH",
"-317 110 OFFCURVE",
"-315 108 OFFCURVE",
"-311 108 CURVE SMOOTH"
);
},
{
closed = 1;
nodes = (
"-493 70 OFFCURVE",
"-457 12 OFFCURVE",
"-373 -5 CURVE",
"-386 -25 OFFCURVE",
"-396 -48 OFFCURVE",
"-396 -74 CURVE SMOOTH",
"-396 -122 OFFCURVE",
"-356 -156 OFFCURVE",
"-303 -156 CURVE SMOOTH",
"-268 -156 OFFCURVE",
"-228 -140 OFFCURVE",
"-225 -121 CURVE",
"-238 -76 LINE",
"-254 -67 LINE",
"-267 -65 LINE",
"-271 -66 LINE SMOOTH",
"-276 -67 OFFCURVE",
"-279 -68 OFFCURVE",
"-283 -68 CURVE SMOOTH",
"-289 -68 OFFCURVE",
"-290 -67 OFFCURVE",
"-290 -61 CURVE SMOOTH",
"-290 -45 OFFCURVE",
"-281 -25 OFFCURVE",
"-266 -9 CURVE",
"-174 4 OFFCURVE",
"-136 61 OFFCURVE",
"-136 186 CURVE SMOOTH",
"-136 452 LINE SMOOTH",
"-136 552 OFFCURVE",
"-195 602 OFFCURVE",
"-311 602 CURVE SMOOTH",
"-430 602 OFFCURVE",
"-493 550 OFFCURVE",
"-493 452 CURVE SMOOTH",
"-493 185 LINE SMOOTH"
);
},
{
closed = 1;
nodes = (
"-347 -138 OFFCURVE",
"-378 -112 OFFCURVE",
"-378 -74 CURVE SMOOTH",
"-378 -40 OFFCURVE",
"-359 -13 OFFCURVE",
"-340 8 CURVE",
"-438 16 OFFCURVE",
"-475 66 OFFCURVE",
"-475 185 CURVE SMOOTH",
"-475 452 LINE SMOOTH",
"-475 540 OFFCURVE",
"-420 584 OFFCURVE",
"-311 584 CURVE SMOOTH",
"-205 584 OFFCURVE",
"-154 542 OFFCURVE",
"-154 452 CURVE SMOOTH",
"-154 186 LINE SMOOTH",
"-154 67 OFFCURVE",
"-187 18 OFFCURVE",
"-274 8 CURVE",
"-295 -12 OFFCURVE",
"-308 -39 OFFCURVE",
"-308 -61 CURVE SMOOTH",
"-308 -77 OFFCURVE",
"-299 -86 OFFCURVE",
"-283 -86 CURVE SMOOTH",
"-275 -86 OFFCURVE",
"-270 -84 OFFCURVE",
"-266 -83 CURVE SMOOTH",
"-265 -83 OFFCURVE",
"-264 -82 OFFCURVE",
"-263 -82 CURVE",
"-253 -88 LINE",
"-244 -120 LINE",
"-254 -130 OFFCURVE",
"-280 -138 OFFCURVE",
"-303 -138 CURVE SMOOTH"
);
},
{
closed = 1;
nodes = (
"232 -156 OFFCURVE",
"260 -143 OFFCURVE",
"276 -124 CURVE",
"256 -55 LINE",
"241 -62 OFFCURVE",
"228 -69 OFFCURVE",
"220 -69 CURVE SMOOTH",
"213 -69 OFFCURVE",
"210 -66 OFFCURVE",
"210 -61 CURVE SMOOTH",
"210 -45 OFFCURVE",
"219 -25 OFFCURVE",
"234 -9 CURVE",
"326 4 OFFCURVE",
"364 61 OFFCURVE",
"364 186 CURVE SMOOTH",
"364 452 LINE SMOOTH",
"364 552 OFFCURVE",
"305 602 OFFCURVE",
"189 602 CURVE SMOOTH",
"70 602 OFFCURVE",
"7 550 OFFCURVE",
"7 452 CURVE SMOOTH",
"7 185 LINE SMOOTH",
"7 70 OFFCURVE",
"43 12 OFFCURVE",
"127 -5 CURVE",
"114 -25 OFFCURVE",
"104 -48 OFFCURVE",
"104 -74 CURVE SMOOTH",
"104 -122 OFFCURVE",
"144 -156 OFFCURVE",
"197 -156 CURVE SMOOTH"
);
},
{
closed = 1;
nodes = (
"153.033 -138 OFFCURVE",
"122 -111.664 OFFCURVE",
"122 -74 CURVE SMOOTH",
"122 -40.045 OFFCURVE",
"140.597 -13.347 OFFCURVE",
"160.132 7.975 CURVE",
"62.235 15.971 OFFCURVE",
"25 66.03 OFFCURVE",
"25 185 CURVE SMOOTH",
"25 452 LINE SMOOTH",
"25 539.746 OFFCURVE",
"80.304 584 OFFCURVE",
"189 584 CURVE SMOOTH",
"295.363 584 OFFCURVE",
"346 541.638 OFFCURVE",
"346 452 CURVE SMOOTH",
"346 186 LINE SMOOTH",
"346 67.31 OFFCURVE",
"312.978 17.922 OFFCURVE",
"225.599 8.332 CURVE",
"205.151 -12.089 OFFCURVE",
"192 -39.256 OFFCURVE",
"192 -61 CURVE SMOOTH",
"192 -77.119 OFFCURVE",
"200.881 -86 OFFCURVE",
"217 -86 CURVE SMOOTH",
"229 -86 OFFCURVE",
"237 -82 OFFCURVE",
"244 -78 CURVE",
"256.128 -119.648 LINE",
"246.31 -130.207 OFFCURVE",
"219.906 -138 OFFCURVE",
"197 -138 CURVE SMOOTH"
);
},
{
closed = 1;
nodes = (
"221 -130 OFFCURVE",
"240 -122 OFFCURVE",
"247 -117 CURVE",
"239 -90 LINE",
"235 -91 OFFCURVE",
"228 -94 OFFCURVE",
"217 -94 CURVE SMOOTH",
"200 -94 OFFCURVE",
"184 -85 OFFCURVE",
"184 -61 CURVE SMOOTH",
"184 -36 OFFCURVE",
"199 -6 OFFCURVE",
"222 16 CURVE",
"303 24 OFFCURVE",
"338 65 OFFCURVE",
"338 186 CURVE SMOOTH",
"338 452 LINE SMOOTH",
"338 544 OFFCURVE",
"282 576 OFFCURVE",
"189 576 CURVE SMOOTH",
"94 576 OFFCURVE",
"33 542 OFFCURVE",
"33 452 CURVE SMOOTH",
"33 185 LINE SMOOTH",
"33 54 OFFCURVE",
"80 18 OFFCURVE",
"178 15 CURVE",
"155 -8 OFFCURVE",
"130 -36 OFFCURVE",
"130 -74 CURVE SMOOTH",
"130 -107 OFFCURVE",
"157 -130 OFFCURVE",
"197 -130 CURVE SMOOTH"
);
},
{
closed = 1;
nodes = (
"178 100 OFFCURVE",
"175 108 OFFCURVE",
"175 125 CURVE SMOOTH",
"175 461 LINE SMOOTH",
"175 480 OFFCURVE",
"179 486 OFFCURVE",
"189 486 CURVE SMOOTH",
"199 486 OFFCURVE",
"202 480 OFFCURVE",
"202 461 CURVE SMOOTH",
"202 125 LINE SMOOTH",
"202 104 OFFCURVE",
"198 100 OFFCURVE",
"189 100 CURVE SMOOTH"
);
},
{
closed = 1;
nodes = (
"193 108 OFFCURVE",
"194 109 OFFCURVE",
"194 125 CURVE SMOOTH",
"194 461 LINE SMOOTH",
"194 477 OFFCURVE",
"193 478 OFFCURVE",
"189 478 CURVE SMOOTH",
"185 478 OFFCURVE",
"183 476 OFFCURVE",
"183 461 CURVE SMOOTH",
"183 125 LINE SMOOTH",
"183 110 OFFCURVE",
"185 108 OFFCURVE",
"189 108 CURVE SMOOTH"
);
}
);
};
layerId = "04A772B0-FA71-43EE-BB43-CAC7F0EBD631";
paths = (
{
closed = 1;
nodes = (
"236 -156 OFFCURVE",
"270 -143 OFFCURVE",
"286 -124 CURVE",
"266 -50 LINE",
"251 -57 OFFCURVE",
"238 -64 OFFCURVE",
"230 -64 CURVE SMOOTH",
"223 -64 OFFCURVE",
"220 -61 OFFCURVE",
"220 -56 CURVE SMOOTH",
"220 -40 OFFCURVE",
"225 -20 OFFCURVE",
"234 -9 CURVE",
"326 4 OFFCURVE",
"364 61 OFFCURVE",
"364 186 CURVE SMOOTH",
"364 452 LINE SMOOTH",
"364 552 OFFCURVE",
"305 602 OFFCURVE",
"189 602 CURVE SMOOTH",
"70 602 OFFCURVE",
"7 550 OFFCURVE",
"7 452 CURVE SMOOTH",
"7 185 LINE SMOOTH",
"7 70 OFFCURVE",
"43 12 OFFCURVE",
"127 -5 CURVE",
"114 -25 OFFCURVE",
"104 -48 OFFCURVE",
"104 -74 CURVE SMOOTH",
"104 -122 OFFCURVE",
"144 -156 OFFCURVE",
"197 -156 CURVE SMOOTH"
);
},
{
closed = 1;
nodes = (
"153.033 -138 OFFCURVE",
"122 -111.664 OFFCURVE",
"122 -74 CURVE SMOOTH",
"122 -40.045 OFFCURVE",
"140.597 -13.347 OFFCURVE",
"160.132 7.975 CURVE",
"62.235 15.971 OFFCURVE",
"25 66.03 OFFCURVE",
"25 185 CURVE SMOOTH",
"25 452 LINE SMOOTH",
"25 539.746 OFFCURVE",
"80.304 584 OFFCURVE",
"189 584 CURVE SMOOTH",
"295.363 584 OFFCURVE",
"346 541.638 OFFCURVE",
"346 452 CURVE SMOOTH",
"346 186 LINE SMOOTH",
"346 67.31 OFFCURVE",
"312.978 17.922 OFFCURVE",
"225.599 8.332 CURVE",
"211 -11 OFFCURVE",
"202 -34 OFFCURVE",
"202 -56 CURVE SMOOTH",
"202 -72 OFFCURVE",
"211 -81 OFFCURVE",
"227 -81 CURVE SMOOTH",
"239 -81 OFFCURVE",
"247 -77 OFFCURVE",
"254 -73 CURVE",
"266 -120 LINE",
"256 -130 OFFCURVE",
"224 -138 OFFCURVE",
"197 -138 CURVE SMOOTH"
);
},
{
closed = 1;
nodes = (
"226 -130 OFFCURVE",
"250 -122 OFFCURVE",
"257 -117 CURVE",
"249 -85 LINE",
"245 -86 OFFCURVE",
"238 -89 OFFCURVE",
"227 -89 CURVE SMOOTH",
"210 -89 OFFCURVE",
"194 -80 OFFCURVE",
"194 -56 CURVE SMOOTH",
"194 -31 OFFCURVE",
"205 -5 OFFCURVE",
"222 16 CURVE",
"303 24 OFFCURVE",
"338 65 OFFCURVE",
"338 186 CURVE SMOOTH",
"338 452 LINE SMOOTH",
"338 544 OFFCURVE",
"282 576 OFFCURVE",
"189 576 CURVE SMOOTH",
"94 576 OFFCURVE",
"33 542 OFFCURVE",
"33 452 CURVE SMOOTH",
"33 185 LINE SMOOTH",
"33 54 OFFCURVE",
"80 18 OFFCURVE",
"178 15 CURVE",
"155 -8 OFFCURVE",
"130 -36 OFFCURVE",
"130 -74 CURVE SMOOTH",
"130 -107 OFFCURVE",
"157 -130 OFFCURVE",
"197 -130 CURVE SMOOTH"
);
},
{
closed = 1;
nodes = (
"178 100 OFFCURVE",
"175 108 OFFCURVE",
"175 125 CURVE SMOOTH",
"175 461 LINE SMOOTH",
"175 480 OFFCURVE",
"179 486 OFFCURVE",
"189 486 CURVE SMOOTH",
"199 486 OFFCURVE",
"202 480 OFFCURVE",
"202 461 CURVE SMOOTH",
"202 125 LINE SMOOTH",
"202 104 OFFCURVE",
"198 100 OFFCURVE",
"189 100 CURVE SMOOTH"
);
},
{
closed = 1;
nodes = (
"193 108 OFFCURVE",
"194 109 OFFCURVE",
"194 125 CURVE SMOOTH",
"194 461 LINE SMOOTH",
"194 477 OFFCURVE",
"193 478 OFFCURVE",
"189 478 CURVE SMOOTH",
"185 478 OFFCURVE",
"183 476 OFFCURVE",
"183 461 CURVE SMOOTH",
"183 125 LINE SMOOTH",
"183 110 OFFCURVE",
"185 108 OFFCURVE",
"189 108 CURVE SMOOTH"
);
}
);
width = 371;
}
);
leftKerningGroup = O;
rightKerningGroup = O;
unicode = 01EA;
},
{
glyphname = Oslash;
lastChange = "2021-12-06 10:21:32 +0000";
layers = (
{
anchors = (
{
name = bottom;
position = "{230, 0}";
},
{
name = top;
position = "{230, 591}";
}
);
layerId = "04A772B0-FA71-43EE-BB43-CAC7F0EBD631";
paths = (
{
closed = 1;
nodes = (
"122 -40 LINE",
"142 1 LINE",
"169 -8 OFFCURVE",
"196 -11 OFFCURVE",
"229 -11 CURVE SMOOTH",
"354 -11 OFFCURVE",
"408 29 OFFCURVE",
"408 187 CURVE SMOOTH",
"408 455 LINE SMOOTH",
"408 480 OFFCURVE",
"403 503 OFFCURVE",
"394 524 CURVE",
"448 634 LINE",
"328 634 LINE",
"310 596 LINE",
"287 603 OFFCURVE",
"260 606 OFFCURVE",
"229 606 CURVE SMOOTH",
"118 606 OFFCURVE",
"44 565 OFFCURVE",
"44 455 CURVE SMOOTH",
"44 186 LINE SMOOTH",
"44 139 OFFCURVE",
"50 106 OFFCURVE",
"62 77 CURVE",
"4 -40 LINE"
);
},
{
closed = 1;
nodes = (
"233 110 OFFCURVE",
"235 116 OFFCURVE",
"235 129 CURVE SMOOTH",
"235 253 LINE",
"224 231 LINE",
"224 129 LINE SMOOTH",
"224 116 OFFCURVE",
"226 110 OFFCURVE",
"229 110 CURVE SMOOTH"
);
},
{
closed = 1;
nodes = (
"225 101 OFFCURVE",
"222 103 OFFCURVE",
"219 107 CURVE SMOOTH",
"216 110 OFFCURVE",
"215 118 OFFCURVE",
"215 129 CURVE SMOOTH",
"215 233 LINE",
"243 291 LINE",
"243 129 LINE SMOOTH",
"243 118 OFFCURVE",
"242 110 OFFCURVE",
"239 107 CURVE SMOOTH",
"236 103 OFFCURVE",
"233 101 OFFCURVE",
"229 101 CURVE SMOOTH"
);
},
{
closed = 1;
nodes = (
"81 76 LINE",
"68 102 OFFCURVE",
"62 139 OFFCURVE",
"62 186 CURVE SMOOTH",
"62 455 LINE SMOOTH",
"62 552 OFFCURVE",
"128 588 OFFCURVE",
"229 588 CURVE SMOOTH",
"264 588 OFFCURVE",
"294 583 OFFCURVE",
"318 573 CURVE",
"339 615 LINE",
"419 615 LINE",
"374 524 LINE",
"383 505 OFFCURVE",
"391 480 OFFCURVE",
"391 455 CURVE SMOOTH",
"391 187 LINE SMOOTH",
"391 44 OFFCURVE",
"342 7 OFFCURVE",
"229 7 CURVE SMOOTH",
"190 7 OFFCURVE",
"160 10 OFFCURVE",
"133 23 CURVE",
"111 -22 LINE",
"33 -22 LINE"
);
},
{
closed = 1;
nodes = (
"105 -13 LINE",
"129 36 LINE",
"156 21 OFFCURVE",
"189 17 OFFCURVE",
"229 17 CURVE SMOOTH",
"335 17 OFFCURVE",
"382 52 OFFCURVE",
"382 187 CURVE SMOOTH",
"382 455 LINE SMOOTH",
"382 484 OFFCURVE",
"376 507 OFFCURVE",
"364 525 CURVE",
"404 606 LINE",
"344 606 LINE",
"323 561 LINE",
"298 573 OFFCURVE",
"266 579 OFFCURVE",
"229 579 CURVE SMOOTH",
"134 579 OFFCURVE",
"71 544 OFFCURVE",
"71 455 CURVE SMOOTH",
"71 186 LINE SMOOTH",
"71 138 OFFCURVE",
"78 104 OFFCURVE",
"91 77 CURVE",
"47 -13 LINE"
);
},
{
closed = 1;
nodes = (
"215 462 LINE SMOOTH",
"215 473 OFFCURVE",
"216 480 OFFCURVE",
"219 484 CURVE SMOOTH",
"222 487 OFFCURVE",
"225 489 OFFCURVE",
"229 489 CURVE SMOOTH",
"233 489 OFFCURVE",
"236 487 OFFCURVE",
"239 484 CURVE SMOOTH",
"242 480 OFFCURVE",
"243 473 OFFCURVE",
"243 462 CURVE SMOOTH",
"243 376 LINE",
"215 319 LINE"
);
},
{
closed = 1;
nodes = (
"235 378 LINE",
"235 462 LINE SMOOTH",
"235 469 OFFCURVE",
"234 474 OFFCURVE",
"233 477 CURVE SMOOTH",
"232 479 OFFCURVE",
"230 480 OFFCURVE",
"229 480 CURVE SMOOTH",
"228 480 OFFCURVE",
"227 479 OFFCURVE",
"226 477 CURVE SMOOTH",
"225 474 OFFCURVE",
"224 469 OFFCURVE",
"224 462 CURVE SMOOTH",
"224 356 LINE"
);
}
);
userData = {
assembly = "SVTCA[0]	/* SetFreedomAndProjectionVectorToAxis */\012PUSHW[ ]	/* 3 values pushed */\012103 4 3 \012CALL[ ]	/* CallFunction */\012PUSHW[ ]	/* 4 values pushed */\01226 2 85 4 \012CALL[ ]	/* CallFunction */\012PUSHW[ ]	/* 4 values pushed */\01272 2 40 4 \012CALL[ ]	/* CallFunction */\012PUSHW[ ]	/* 1 value pushed */\01285 \012SRP0[ ]	/* SetRefPoint0 */\012PUSHW[ ]	/* 1 value pushed */\0120 \012MDRP[10000]	/* MoveDirectRelPt */\012PUSHW[ ]	/* 1 value pushed */\0120 \012MDAP[1]	/* MoveDirectAbsPt */\012PUSHW[ ]	/* 1 value pushed */\01272 \012SRP0[ ]	/* SetRefPoint0 */\012PUSHW[ ]	/* 1 value pushed */\01213 \012MDRP[10000]	/* MoveDirectRelPt */\012PUSHW[ ]	/* 1 value pushed */\01213 \012MDAP[1]	/* MoveDirectAbsPt */\012PUSHW[ ]	/* 1 value pushed */\012103 \012SRP0[ ]	/* SetRefPoint0 */\012PUSHW[ ]	/* 1 value pushed */\01216 \012MDRP[10000]	/* MoveDirectRelPt */\012PUSHW[ ]	/* 3 values pushed */\01230 4 103 \012SRP1[ ]	/* SetRefPoint1 */\012SRP2[ ]	/* SetRefPoint2 */\012IP[ ]	/* InterpolatePts */\012PUSHW[ ]	/* 3 values pushed */\01235 4 103 \012SRP1[ ]	/* SetRefPoint1 */\012SRP2[ ]	/* SetRefPoint2 */\012IP[ ]	/* InterpolatePts */\012PUSHW[ ]	/* 3 values pushed */\01252 4 103 \012SRP1[ ]	/* SetRefPoint1 */\012SRP2[ ]	/* SetRefPoint2 */\012IP[ ]	/* InterpolatePts */\012PUSHW[ ]	/* 3 values pushed */\01257 4 103 \012SRP1[ ]	/* SetRefPoint1 */\012SRP2[ ]	/* SetRefPoint2 */\012IP[ ]	/* InterpolatePts */\012PUSHW[ ]	/* 1 value pushed */\0124 \012SRP0[ ]	/* SetRefPoint0 */\012PUSHW[ ]	/* 1 value pushed */\01288 \012MDRP[10000]	/* MoveDirectRelPt */\012PUSHW[ ]	/* 1 value pushed */\01288 \012MDAP[1]	/* MoveDirectAbsPt */\012IUP[0]	/* InterpolateUntPts */\012IUP[1]	/* InterpolateUntPts */";
};
width = 447;
}
);
leftKerningGroup = O;
note = Oslash;
rightKerningGroup = O;
unicode = 00D8;
},
{
glyphname = OE;
lastChange = "2021-12-06 10:21:32 +0000";
layers = (
{
layerId = "04A772B0-FA71-43EE-BB43-CAC7F0EBD631";
paths = (
{
closed = 1;
nodes = (
"227 -11 OFFCURVE",
"257 -8 OFFCURVE",
"280 0 CURVE",
"483 0 LINE",
"483 153 LINE",
"376 153 LINE",
"376 219 LINE",
"474 219 LINE",
"474 387 LINE",
"376 387 LINE",
"376 437 LINE",
"483 437 LINE",
"483 593 LINE",
"271 593 LINE",
"248 600 OFFCURVE",
"224 601 OFFCURVE",
"195 601 CURVE SMOOTH",
"82 601 OFFCURVE",
"7 560 OFFCURVE",
"7 451 CURVE SMOOTH",
"7 185 LINE SMOOTH",
"7 28 OFFCURVE",
"70 -11 OFFCURVE",
"195 -11 CURVE SMOOTH"
);
},
{
closed = 1;
nodes = (
"190 100 OFFCURVE",
"187 102 OFFCURVE",
"185 106 CURVE SMOOTH",
"182 110 OFFCURVE",
"181 117 OFFCURVE",
"181 127 CURVE SMOOTH",
"181 458 LINE SMOOTH",
"181 469 OFFCURVE",
"182 476 OFFCURVE",
"185 480 CURVE SMOOTH",
"187 483 OFFCURVE",
"190 485 OFFCURVE",
"195 485 CURVE SMOOTH",
"199 485 OFFCURVE",
"202 483 OFFCURVE",
"205 480 CURVE SMOOTH",
"208 476 OFFCURVE",
"209 469 OFFCURVE",
"209 458 CURVE SMOOTH",
"209 127 LINE SMOOTH",
"209 117 OFFCURVE",
"208 110 OFFCURVE",
"205 106 CURVE SMOOTH",
"202 102 OFFCURVE",
"199 100 OFFCURVE",
"195 100 CURVE SMOOTH"
);
},
{
closed = 1;
nodes = (
"198 109 OFFCURVE",
"200 115 OFFCURVE",
"200 127 CURVE SMOOTH",
"200 458 LINE SMOOTH",
"200 465 OFFCURVE",
"200 470 OFFCURVE",
"199 473 CURVE SMOOTH",
"198 475 OFFCURVE",
"196 476 OFFCURVE",
"195 476 CURVE SMOOTH",
"193 476 OFFCURVE",
"192 475 OFFCURVE",
"191 473 CURVE SMOOTH",
"190 470 OFFCURVE",
"190 465 OFFCURVE",
"190 458 CURVE SMOOTH",
"190 127 LINE SMOOTH",
"190 115 OFFCURVE",
"192 109 OFFCURVE",
"195 109 CURVE SMOOTH"
);
},
{
closed = 1;
nodes = (
"81 7 OFFCURVE",
"25 43 OFFCURVE",
"25 185 CURVE SMOOTH",
"25 451 LINE SMOOTH",
"25 547 OFFCURVE",
"92 583 OFFCURVE",
"195 583 CURVE SMOOTH",
"222 583 OFFCURVE",
"249 579 OFFCURVE",
"268 575 CURVE",
"465 575 LINE",
"465 455 LINE",
"358 455 LINE",
"358 369 LINE",
"456 369 LINE",
"456 237 LINE",
"358 237 LINE",
"358 135 LINE",
"465 135 LINE",
"465 18 LINE",
"276 18 LINE",
"253 10 OFFCURVE",
"226 7 OFFCURVE",
"195 7 CURVE SMOOTH"
);
},
{
closed = 1;
nodes = (
"226 16 OFFCURVE",
"253 19 OFFCURVE",
"274 27 CURVE",
"456 27 LINE",
"456 126 LINE",
"350 126 LINE",
"350 246 LINE",
"447 246 LINE",
"447 360 LINE",
"350 360 LINE",
"350 464 LINE",
"456 464 LINE",
"456 566 LINE",
"265 566 LINE",
"245 571 OFFCURVE",
"222 574 OFFCURVE",
"195 574 CURVE SMOOTH",
"98 574 OFFCURVE",
"33 540 OFFCURVE",
"33 451 CURVE SMOOTH",
"33 185 LINE SMOOTH",
"33 50 OFFCURVE",
"87 16 OFFCURVE",
"195 16 CURVE SMOOTH"
);
}
);
userData = {
assembly = "PUSHW[ ]	/* 4 values pushed */\01236 6 5 4 \012CALL[ ]	/* CallFunction */\012SVTCA[0]	/* SetFreedomAndProjectionVectorToAxis */\012PUSHW[ ]	/* 4 values pushed */\01225 2 54 4 \012CALL[ ]	/* CallFunction */\012PUSHW[ ]	/* 4 values pushed */\01220 3 21 4 \012CALL[ ]	/* CallFunction */\012PUSHW[ ]	/* 4 values pushed */\01211 2 32 4 \012CALL[ ]	/* CallFunction */\012PUSHW[ ]	/* 1 value pushed */\01254 \012SRP0[ ]	/* SetRefPoint0 */\012PUSHW[ ]	/* 1 value pushed */\0120 \012MDRP[10000]	/* MoveDirectRelPt */\012PUSHW[ ]	/* 1 value pushed */\0120 \012MDAP[1]	/* MoveDirectAbsPt */\012PUSHW[ ]	/* 1 value pushed */\01225 \012SRP0[ ]	/* SetRefPoint0 */\012PUSHW[ ]	/* 2 values pushed */\01222 2 \012MIRP[10100]	/* MoveIndirectRelPt */\012IUP[0]	/* InterpolateUntPts */\012IUP[1]	/* InterpolateUntPts */";
};
width = 489;
}
);
leftKerningGroup = O;
leftMetricsKey = O;
note = OE;
rightKerningGroup = E;
rightMetricsKey = E;
unicode = 0152;
},
{
glyphname = P;
lastChange = "2021-12-17 05:35:05 +0000";
layers = (
{
layerId = "04A772B0-FA71-43EE-BB43-CAC7F0EBD631";
paths = (
{
closed = 1;
nodes = (
"203 0 LINE",
"203 203 LINE",
"241 203 LINE SMOOTH",
"337 203 OFFCURVE",
"366 286 OFFCURVE",
"366 383 CURVE SMOOTH",
"366 472 LINE SMOOTH",
"366 543 OFFCURVE",
"327 591 OFFCURVE",
"234 591 CURVE SMOOTH",
"9 591 LINE",
"9 0 LINE"
);
},
{
closed = 1;
nodes = (
"27 573 LINE",
"234 573 LINE SMOOTH",
"315 573 OFFCURVE",
"349 532 OFFCURVE",
"349 472 CURVE SMOOTH",
"349 383 LINE SMOOTH",
"349 295 OFFCURVE",
"324 222 OFFCURVE",
"241 222 CURVE SMOOTH",
"186 222 LINE",
"186 18 LINE",
"27 18 LINE"
);
},
{
closed = 1;
nodes = (
"177 27 LINE",
"177 231 LINE",
"241 231 LINE SMOOTH",
"318 231 OFFCURVE",
"341 301 OFFCURVE",
"341 383 CURVE SMOOTH",
"341 472 LINE SMOOTH",
"341 527 OFFCURVE",
"310 564 OFFCURVE",
"234 564 CURVE SMOOTH",
"35 564 LINE",
"35 27 LINE"
);
},
{
closed = 1;
nodes = (
"177 488 LINE",
"190 488 LINE SMOOTH",
"197 488 OFFCURVE",
"201 481 OFFCURVE",
"203 468 CURVE SMOOTH",
"204 455 OFFCURVE",
"205 431 OFFCURVE",
"205 398 CURVE SMOOTH",
"205 364 OFFCURVE",
"203 341 OFFCURVE",
"200 328 CURVE SMOOTH",
"197 315 OFFCURVE",
"193 309 OFFCURVE",
"187 309 CURVE SMOOTH",
"177 309 LINE"
);
},
{
closed = 1;
nodes = (
"187 318 LINE SMOOTH",
"190 318 OFFCURVE",
"192 324 OFFCURVE",
"194 336 CURVE SMOOTH",
"196 347 OFFCURVE",
"197 368 OFFCURVE",
"197 398 CURVE SMOOTH",
"197 428 OFFCURVE",
"196 449 OFFCURVE",
"196 461 CURVE SMOOTH",
"195 472 OFFCURVE",
"193 478 OFFCURVE",
"190 478 CURVE SMOOTH",
"186 478 LINE",
"186 318 LINE"
);
}
);
userData = {
assembly = "SVTCA[0]	/* SetFreedomAndProjectionVectorToAxis */\012PUSHW[ ]	/* 1 value pushed */\01212 \012MDAP[1]	/* MoveDirectAbsPt */\012PUSHW[ ]	/* 4 values pushed */\01215 1 34 4 \012CALL[ ]	/* CallFunction */\012IUP[0]	/* InterpolateUntPts */\012IUP[1]	/* InterpolateUntPts */";
};
width = 372;
}
);
leftKerningGroup = H;
leftMetricsKey = H;
note = P;
rightKerningGroup = P;
unicode = 0050;
},
{
glyphname = Thorn;
lastChange = "2021-12-06 10:21:32 +0000";
layers = (
{
layerId = "04A772B0-FA71-43EE-BB43-CAC7F0EBD631";
paths = (
{
closed = 1;
nodes = (
"203 0 LINE",
"203 115 LINE",
"241 115 LINE SMOOTH",
"337 115 OFFCURVE",
"366 198 OFFCURVE",
"366 295 CURVE SMOOTH",
"366 384 LINE SMOOTH",
"366 455 OFFCURVE",
"327 503 OFFCURVE",
"234 503 CURVE SMOOTH",
"204 503 LINE",
"204 591 LINE",
"9 591 LINE",
"9 0 LINE"
);
},
{
closed = 1;
nodes = (
"27 573 LINE",
"187 573 LINE",
"187 485 LINE",
"234 485 LINE SMOOTH",
"315 485 OFFCURVE",
"349 444 OFFCURVE",
"349 384 CURVE SMOOTH",
"349 295 LINE SMOOTH",
"349 208 OFFCURVE",
"324 133 OFFCURVE",
"241 133 CURVE SMOOTH",
"186 133 LINE",
"186 18 LINE",
"27 18 LINE"
);
},
{
closed = 1;
nodes = (
"177 27 LINE",
"177 143 LINE",
"241 143 LINE SMOOTH",
"318 143 OFFCURVE",
"341 213 OFFCURVE",
"341 295 CURVE SMOOTH",
"341 384 LINE SMOOTH",
"341 439 OFFCURVE",
"310 476 OFFCURVE",
"234 476 CURVE SMOOTH",
"178 476 LINE",
"178 564 LINE",
"35 564 LINE",
"35 27 LINE"
);
},
{
closed = 1;
nodes = (
"177 399 LINE",
"190 399 LINE SMOOTH",
"197 399 OFFCURVE",
"201 393 OFFCURVE",
"203 380 CURVE SMOOTH",
"204 367 OFFCURVE",
"205 343 OFFCURVE",
"205 310 CURVE SMOOTH",
"205 276 OFFCURVE",
"203 253 OFFCURVE",
"200 240 CURVE SMOOTH",
"197 227 OFFCURVE",
"193 221 OFFCURVE",
"187 221 CURVE SMOOTH",
"177 221 LINE"
);
},
{
closed = 1;
nodes = (
"187 230 LINE SMOOTH",
"190 230 OFFCURVE",
"192 236 OFFCURVE",
"194 248 CURVE SMOOTH",
"196 259 OFFCURVE",
"197 280 OFFCURVE",
"197 310 CURVE SMOOTH",
"197 340 OFFCURVE",
"196 361 OFFCURVE",
"196 373 CURVE SMOOTH",
"195 384 OFFCURVE",
"193 390 OFFCURVE",
"190 390 CURVE SMOOTH",
"186 390 LINE",
"186 230 LINE"
);
}
);
userData = {
assembly = "SVTCA[0]	/* SetFreedomAndProjectionVectorToAxis */\012PUSHW[ ]	/* 1 value pushed */\01214 \012MDAP[1]	/* MoveDirectAbsPt */\012IUP[0]	/* InterpolateUntPts */\012IUP[1]	/* InterpolateUntPts */";
};
width = 375;
}
);
leftKerningGroup = H;
note = Thorn;
rightKerningGroup = P;
unicode = 00DE;
},
{
glyphname = Q;
lastChange = "2021-12-17 05:35:05 +0000";
layers = (
{
layerId = "04A772B0-FA71-43EE-BB43-CAC7F0EBD631";
paths = (
{
closed = 1;
nodes = (
"378 -45 LINE",
"366 -22 OFFCURVE",
"346 15 OFFCURVE",
"330 43 CURVE",
"353 74 OFFCURVE",
"365 120 OFFCURVE",
"365 188 CURVE SMOOTH",
"365 457 LINE SMOOTH",
"365 568 OFFCURVE",
"300 610 OFFCURVE",
"189 610 CURVE SMOOTH",
"78 610 OFFCURVE",
"7 568 OFFCURVE",
"7 457 CURVE SMOOTH",
"7 188 LINE SMOOTH",
"7 32 OFFCURVE",
"63 -8 OFFCURVE",
"180 -11 CURVE",
"244 -129 LINE"
);
},
{
closed = 1;
nodes = (
"189 7 LINE",
"78 7 OFFCURVE",
"24 44 OFFCURVE",
"24 188 CURVE SMOOTH",
"24 457 LINE SMOOTH",
"24 555 OFFCURVE",
"90 591 OFFCURVE",
"189 591 CURVE SMOOTH",
"288 591 OFFCURVE",
"348 554 OFFCURVE",
"348 457 CURVE SMOOTH",
"348 188 LINE SMOOTH",
"348 115 OFFCURVE",
"334 72 OFFCURVE",
"310 45 CURVE",
"317 32 OFFCURVE",
"325 18 OFFCURVE",
"333 3 CURVE SMOOTH",
"354 -39 LINE",
"250 -104 LINE"
);
},
{
closed = 1;
nodes = (
"342 -35 LINE",
"299 46 LINE",
"324 71 OFFCURVE",
"339 113 OFFCURVE",
"339 188 CURVE SMOOTH",
"339 457 LINE SMOOTH",
"339 549 OFFCURVE",
"282 582 OFFCURVE",
"189 582 CURVE SMOOTH",
"94 582 OFFCURVE",
"33 549 OFFCURVE",
"33 457 CURVE SMOOTH",
"33 188 LINE SMOOTH",
"33 52 OFFCURVE",
"84 17 OFFCURVE",
"189 17 CURVE SMOOTH",
"195 17 LINE",
"253 -91 LINE"
);
},
{
closed = 1;
nodes = (
"184 102 OFFCURVE",
"181 104 OFFCURVE",
"179 108 CURVE SMOOTH",
"176 111 OFFCURVE",
"175 118 OFFCURVE",
"175 129 CURVE SMOOTH",
"175 465 LINE SMOOTH",
"175 476 OFFCURVE",
"176 483 OFFCURVE",
"179 487 CURVE SMOOTH",
"181 490 OFFCURVE",
"184 492 OFFCURVE",
"189 492 CURVE SMOOTH",
"193 492 OFFCURVE",
"196 490 OFFCURVE",
"199 487 CURVE SMOOTH",
"202 483 OFFCURVE",
"203 476 OFFCURVE",
"203 465 CURVE SMOOTH",
"203 129 LINE SMOOTH",
"203 118 OFFCURVE",
"202 111 OFFCURVE",
"199 108 CURVE SMOOTH",
"196 104 OFFCURVE",
"193 102 OFFCURVE",
"189 102 CURVE SMOOTH"
);
},
{
closed = 1;
nodes = (
"190 111 OFFCURVE",
"192 112 OFFCURVE",
"193 115 CURVE SMOOTH",
"194 117 OFFCURVE",
"194 122 OFFCURVE",
"194 129 CURVE SMOOTH",
"194 465 LINE SMOOTH",
"194 472 OFFCURVE",
"194 477 OFFCURVE",
"193 480 CURVE SMOOTH",
"192 482 OFFCURVE",
"190 483 OFFCURVE",
"189 483 CURVE SMOOTH",
"188 483 OFFCURVE",
"187 482 OFFCURVE",
"186 480 CURVE SMOOTH",
"185 477 OFFCURVE",
"184 472 OFFCURVE",
"184 465 CURVE SMOOTH",
"184 129 LINE SMOOTH",
"184 122 OFFCURVE",
"185 117 OFFCURVE",
"186 115 CURVE SMOOTH",
"187 112 OFFCURVE",
"188 111 OFFCURVE",
"189 111 CURVE SMOOTH"
);
}
);
width = 385;
}
);
leftKerningGroup = O;
leftMetricsKey = O;
note = Q;
rightKerningGroup = Q;
rightMetricsKey = O;
unicode = 0051;
},
{
glyphname = R;
lastChange = "2021-12-17 05:35:05 +0000";
layers = (
{
anchors = (
{
name = bottom;
position = "{201, 0}";
},
{
name = top;
position = "{187, 591}";
}
);
layerId = "04A772B0-FA71-43EE-BB43-CAC7F0EBD631";
paths = (
{
closed = 1;
nodes = (
"410 0 LINE",
"354 229 LINE",
"345 256 OFFCURVE",
"341 268 OFFCURVE",
"330 280 CURVE",
"362 307 OFFCURVE",
"371 347 OFFCURVE",
"371 390 CURVE SMOOTH",
"371 472 LINE SMOOTH",
"371 541 OFFCURVE",
"331 591 OFFCURVE",
"236 591 CURVE SMOOTH",
"9 591 LINE",
"9 0 LINE"
);
},
{
closed = 1;
nodes = (
"26 573 LINE",
"236 573 LINE SMOOTH",
"319 573 OFFCURVE",
"353 531 OFFCURVE",
"353 472 CURVE SMOOTH",
"353 390 LINE SMOOTH",
"353 347 OFFCURVE",
"339 304 OFFCURVE",
"300 281 CURVE",
"315 272 OFFCURVE",
"326 257 OFFCURVE",
"339 218 CURVE",
"388 18 LINE",
"217 18 LINE",
"187 172 LINE",
"187 18 LINE",
"26 18 LINE"
);
},
{
closed = 1;
nodes = (
"179 27 LINE",
"179 254 LINE",
"225 27 LINE",
"377 27 LINE",
"329 222 LINE",
"315 264 OFFCURVE",
"299 277 OFFCURVE",
"273 280 CURVE",
"329 296 OFFCURVE",
"345 336 OFFCURVE",
"345 390 CURVE SMOOTH",
"345 472 LINE SMOOTH",
"345 527 OFFCURVE",
"312 564 OFFCURVE",
"236 564 CURVE SMOOTH",
"35 564 LINE",
"35 27 LINE"
);
},
{
closed = 1;
nodes = (
"179 488 LINE",
"192 488 LINE SMOOTH",
"199 488 OFFCURVE",
"204 481 OFFCURVE",
"205 468 CURVE SMOOTH",
"206 455 OFFCURVE",
"207 431 OFFCURVE",
"207 398 CURVE SMOOTH",
"207 365 OFFCURVE",
"206 343 OFFCURVE",
"203 333 CURVE SMOOTH",
"200 323 OFFCURVE",
"195 318 OFFCURVE",
"189 318 CURVE SMOOTH",
"179 318 LINE"
);
},
{
closed = 1;
nodes = (
"189 327 LINE SMOOTH",
"192 327 OFFCURVE",
"194 332 OFFCURVE",
"196 341 CURVE SMOOTH",
"198 350 OFFCURVE",
"199 369 OFFCURVE",
"199 398 CURVE SMOOTH",
"199 428 OFFCURVE",
"199 449 OFFCURVE",
"198 461 CURVE SMOOTH",
"197 472 OFFCURVE",
"195 478 OFFCURVE",
"192 478 CURVE SMOOTH",
"187 478 LINE",
"187 327 LINE"
);
}
);
userData = {
assembly = "PUSHW[ ]	/* 4 values pushed */\01261 6 53 4 \012CALL[ ]	/* CallFunction */\012PUSHW[ ]	/* 1 value pushed */\01253 \012SRP0[ ]	/* SetRefPoint0 */\012PUSHW[ ]	/* 2 values pushed */\01255 6 \012MIRP[10100]	/* MoveIndirectRelPt */\012PUSHW[ ]	/* 1 value pushed */\0124 \012MDRP[10000]	/* MoveDirectRelPt */\012PUSHW[ ]	/* 1 value pushed */\0124 \012MDAP[1]	/* MoveDirectAbsPt */\012PUSHW[ ]	/* 3 values pushed */\01210 53 61 \012SRP1[ ]	/* SetRefPoint1 */\012SRP2[ ]	/* SetRefPoint2 */\012IP[ ]	/* InterpolatePts */\012PUSHW[ ]	/* 3 values pushed */\01258 53 61 \012SRP1[ ]	/* SetRefPoint1 */\012SRP2[ ]	/* SetRefPoint2 */\012IP[ ]	/* InterpolatePts */\012PUSHW[ ]	/* 1 value pushed */\01261 \012SRP0[ ]	/* SetRefPoint0 */\012PUSHW[ ]	/* 1 value pushed */\01282 \012MDRP[11100]	/* MoveDirectRelPt */\012SVTCA[0]	/* SetFreedomAndProjectionVectorToAxis */\012PUSHW[ ]	/* 1 value pushed */\01216 \012MDAP[1]	/* MoveDirectAbsPt */\012PUSHW[ ]	/* 1 value pushed */\01226 \012MDAP[1]	/* MoveDirectAbsPt */\012PUSHW[ ]	/* 1 value pushed */\01253 \012MDAP[1]	/* MoveDirectAbsPt */\012IUP[0]	/* InterpolateUntPts */\012IUP[1]	/* InterpolateUntPts */";
};
width = 412;
}
);
leftKerningGroup = H;
leftMetricsKey = H;
note = R;
rightKerningGroup = R;
unicode = 0052;
},
{
glyphname = S;
lastChange = "2021-12-17 05:35:05 +0000";
layers = (
{
anchors = (
{
name = bottom;
position = "{187, 0}";
},
{
name = top;
position = "{192, 591}";
}
);
background = {
paths = (
{
closed = 1;
nodes = (
"196 110 OFFCURVE",
"199 113 OFFCURVE",
"200 118 CURVE SMOOTH",
"201 123 OFFCURVE",
"202 134 OFFCURVE",
"202 151 CURVE SMOOTH",
"202 176 OFFCURVE",
"196 192 OFFCURVE",
"184 205 CURVE",
"184 158 LINE SMOOTH",
"184 137 OFFCURVE",
"185 124 OFFCURVE",
"186 119 CURVE SMOOTH",
"187 113 OFFCURVE",
"190 110 OFFCURVE",
"193 110 CURVE SMOOTH"
);
},
{
closed = 1;
nodes = (
"295 20 OFFCURVE",
"356 64 OFFCURVE",
"356 183 CURVE SMOOTH",
"356 285 OFFCURVE",
"330 309 OFFCURVE",
"248 341 CURVE SMOOTH",
"205 359 OFFCURVE",
"178 363 OFFCURVE",
"178 416 CURVE SMOOTH",
"178 443 OFFCURVE",
"180 465 OFFCURVE",
"195 465 CURVE SMOOTH",
"204 465 OFFCURVE",
"210 459 OFFCURVE",
"211 446 CURVE SMOOTH",
"212 433 OFFCURVE",
"213 415 OFFCURVE",
"213 390 CURVE SMOOTH",
"213 376 LINE",
"350 376 LINE",
"350 436 LINE SMOOTH",
"350 523 OFFCURVE",
"298 566 OFFCURVE",
"193 566 CURVE SMOOTH",
"73 566 OFFCURVE",
"35 527 OFFCURVE",
"35 411 CURVE SMOOTH",
"35 328 OFFCURVE",
"53 282 OFFCURVE",
"118 251 CURVE SMOOTH",
"184 221 OFFCURVE",
"210 210 OFFCURVE",
"210 151 CURVE SMOOTH",
"210 130 OFFCURVE",
"209 116 OFFCURVE",
"207 110 CURVE SMOOTH",
"204 104 OFFCURVE",
"200 101 OFFCURVE",
"193 101 CURVE SMOOTH",
"187 101 OFFCURVE",
"183 104 OFFCURVE",
"180 111 CURVE SMOOTH",
"177 118 OFFCURVE",
"175 133 OFFCURVE",
"175 158 CURVE SMOOTH",
"175 198 LINE",
"31 198 LINE",
"31 181 LINE SMOOTH",
"31 57 OFFCURVE",
"79 20 OFFCURVE",
"188 20 CURVE SMOOTH"
);
},
{
closed = 1;
nodes = (
"193 380 OFFCURVE",
"186 393 OFFCURVE",
"186 416 CURVE SMOOTH",
"186 427 OFFCURVE",
"187 436 OFFCURVE",
"188 444 CURVE SMOOTH",
"189 452 OFFCURVE",
"191 456 OFFCURVE",
"195 456 CURVE SMOOTH",
"200 456 OFFCURVE",
"202 450 OFFCURVE",
"203 439 CURVE SMOOTH",
"204 428 OFFCURVE",
"204 411 OFFCURVE",
"204 390 CURVE SMOOTH",
"204 371 LINE"
);
},
{
closed = 1;
nodes = (
"313 -7 OFFCURVE",
"382 45 OFFCURVE",
"382 183 CURVE SMOOTH",
"382 278 OFFCURVE",
"361 316 OFFCURVE",
"300 348 CURVE",
"376 348 LINE",
"376 436 LINE SMOOTH",
"376 541 OFFCURVE",
"315 594 OFFCURVE",
"193 594 CURVE SMOOTH",
"54 594 OFFCURVE",
"9 548 OFFCURVE",
"9 411 CURVE SMOOTH",
"9 316 OFFCURVE",
"31 262 OFFCURVE",
"108 226 CURVE",
"109 225 LINE",
"5 225 LINE",
"5 181 LINE SMOOTH",
"5 36 OFFCURVE",
"61 -7 OFFCURVE",
"188 -7 CURVE SMOOTH"
);
},
{
closed = 1;
nodes = (
"72 11 OFFCURVE",
"22 51 OFFCURVE",
"22 181 CURVE SMOOTH",
"22 207 LINE",
"180 207 LINE",
"165 219 OFFCURVE",
"146 228 OFFCURVE",
"115 243 CURVE SMOOTH",
"46 275 OFFCURVE",
"27 326 OFFCURVE",
"27 411 CURVE SMOOTH",
"27 533 OFFCURVE",
"67 576 OFFCURVE",
"193 576 CURVE SMOOTH",
"304 576 OFFCURVE",
"359 529 OFFCURVE",
"359 436 CURVE SMOOTH",
"359 366 LINE",
"211 366 LINE",
"219 361 OFFCURVE",
"228 356 OFFCURVE",
"249 348 CURVE SMOOTH",
"344 312 OFFCURVE",
"365 290 OFFCURVE",
"365 183 CURVE SMOOTH",
"365 57 OFFCURVE",
"301 11 OFFCURVE",
"188 11 CURVE SMOOTH"
);
}
);
};
layerId = "04A772B0-FA71-43EE-BB43-CAC7F0EBD631";
paths = (
{
closed = 1;
nodes = (
"199 110 OFFCURVE",
"202 117 OFFCURVE",
"202 148 CURVE SMOOTH",
"202 176 OFFCURVE",
"196 192 OFFCURVE",
"184 205 CURVE",
"184 148 LINE SMOOTH",
"184 118 OFFCURVE",
"185 110 OFFCURVE",
"193 110 CURVE SMOOTH"
);
},
{
closed = 1;
nodes = (
"295 20 OFFCURVE",
"356 64 OFFCURVE",
"356 183 CURVE SMOOTH",
"356 285 OFFCURVE",
"330 309 OFFCURVE",
"248 341 CURVE SMOOTH",
"205 359 OFFCURVE",
"178 363 OFFCURVE",
"178 416 CURVE SMOOTH",
"178 443 OFFCURVE",
"180 465 OFFCURVE",
"195 465 CURVE SMOOTH",
"204 465 OFFCURVE",
"210 459 OFFCURVE",
"211 446 CURVE SMOOTH",
"212 433 OFFCURVE",
"213 415 OFFCURVE",
"213 390 CURVE SMOOTH",
"213 376 LINE",
"350 376 LINE",
"350 436 LINE SMOOTH",
"350 523 OFFCURVE",
"298 566 OFFCURVE",
"193 566 CURVE SMOOTH",
"73 566 OFFCURVE",
"35 527 OFFCURVE",
"35 411 CURVE SMOOTH",
"35 328 OFFCURVE",
"53 282 OFFCURVE",
"118 251 CURVE SMOOTH",
"184 221 OFFCURVE",
"210 210 OFFCURVE",
"210 151 CURVE SMOOTH",
"210 113 OFFCURVE",
"206 101 OFFCURVE",
"193 101 CURVE SMOOTH",
"181 101 OFFCURVE",
"175 110 OFFCURVE",
"175 145 CURVE SMOOTH",
"175 198 LINE",
"31 198 LINE",
"31 181 LINE SMOOTH",
"31 57 OFFCURVE",
"79 20 OFFCURVE",
"188 20 CURVE SMOOTH"
);
},
{
closed = 1;
nodes = (
"193 380 OFFCURVE",
"186 393 OFFCURVE",
"186 416 CURVE SMOOTH",
"186 427 OFFCURVE",
"187 436 OFFCURVE",
"188 444 CURVE SMOOTH",
"189 452 OFFCURVE",
"191 456 OFFCURVE",
"195 456 CURVE SMOOTH",
"200 456 OFFCURVE",
"202 450 OFFCURVE",
"203 439 CURVE SMOOTH",
"204 428 OFFCURVE",
"204 411 OFFCURVE",
"204 390 CURVE SMOOTH",
"204 371 LINE"
);
},
{
closed = 1;
nodes = (
"313 -7 OFFCURVE",
"382 45 OFFCURVE",
"382 183 CURVE SMOOTH",
"382 278 OFFCURVE",
"361 316 OFFCURVE",
"300 348 CURVE",
"376 348 LINE",
"376 436 LINE SMOOTH",
"376 541 OFFCURVE",
"315 594 OFFCURVE",
"193 594 CURVE SMOOTH",
"54 594 OFFCURVE",
"9 548 OFFCURVE",
"9 411 CURVE SMOOTH",
"9 299 OFFCURVE",
"35 255 OFFCURVE",
"121 223 CURVE",
"5 223 LINE",
"5 181 LINE SMOOTH",
"5 36 OFFCURVE",
"61 -7 OFFCURVE",
"188 -7 CURVE SMOOTH"
);
},
{
closed = 1;
nodes = (
"72 11 OFFCURVE",
"22 51 OFFCURVE",
"22 181 CURVE SMOOTH",
"22 207 LINE",
"180 207 LINE",
"165 219 OFFCURVE",
"146 228 OFFCURVE",
"115 243 CURVE SMOOTH",
"46 275 OFFCURVE",
"27 326 OFFCURVE",
"27 411 CURVE SMOOTH",
"27 533 OFFCURVE",
"67 576 OFFCURVE",
"193 576 CURVE SMOOTH",
"304 576 OFFCURVE",
"359 529 OFFCURVE",
"359 436 CURVE SMOOTH",
"359 366 LINE",
"211 366 LINE",
"219 361 OFFCURVE",
"228 356 OFFCURVE",
"249 348 CURVE SMOOTH",
"344 312 OFFCURVE",
"365 290 OFFCURVE",
"365 183 CURVE SMOOTH",
"365 57 OFFCURVE",
"301 11 OFFCURVE",
"188 11 CURVE SMOOTH"
);
}
);
userData = {
assembly = "PUSHW[ ]	/* 4 values pushed */\01217 6 16 4 \012CALL[ ]	/* CallFunction */\012PUSHW[ ]	/* 4 values pushed */\01240 6 41 4 \012CALL[ ]	/* CallFunction */\012PUSHW[ ]	/* 1 value pushed */\01240 \012SRP0[ ]	/* SetRefPoint0 */\012PUSHW[ ]	/* 1 value pushed */\0125 \012MDRP[10000]	/* MoveDirectRelPt */\012PUSHW[ ]	/* 1 value pushed */\0125 \012MDAP[1]	/* MoveDirectAbsPt */\012PUSHW[ ]	/* 1 value pushed */\01241 \012SRP0[ ]	/* SetRefPoint0 */\012PUSHW[ ]	/* 1 value pushed */\01224 \012MDRP[10000]	/* MoveDirectRelPt */\012PUSHW[ ]	/* 1 value pushed */\01224 \012MDAP[1]	/* MoveDirectAbsPt */\012PUSHW[ ]	/* 1 value pushed */\01216 \012SRP0[ ]	/* SetRefPoint0 */\012PUSHW[ ]	/* 1 value pushed */\01232 \012MDRP[10000]	/* MoveDirectRelPt */\012PUSHW[ ]	/* 1 value pushed */\01232 \012MDAP[1]	/* MoveDirectAbsPt */\012PUSHW[ ]	/* 1 value pushed */\01217 \012SRP0[ ]	/* SetRefPoint0 */\012PUSHW[ ]	/* 1 value pushed */\01248 \012MDRP[10000]	/* MoveDirectRelPt */\012PUSHW[ ]	/* 1 value pushed */\01248 \012MDAP[1]	/* MoveDirectAbsPt */\012PUSHW[ ]	/* 1 value pushed */\01216 \012SRP0[ ]	/* SetRefPoint0 */\012PUSHW[ ]	/* 1 value pushed */\01288 \012MDRP[10000]	/* MoveDirectRelPt */\012PUSHW[ ]	/* 1 value pushed */\01288 \012MDAP[1]	/* MoveDirectAbsPt */\012PUSHW[ ]	/* 3 values pushed */\01260 88 5 \012SRP1[ ]	/* SetRefPoint1 */\012SRP2[ ]	/* SetRefPoint2 */\012IP[ ]	/* InterpolatePts */\012PUSHW[ ]	/* 3 values pushed */\01270 88 5 \012SRP1[ ]	/* SetRefPoint1 */\012SRP2[ ]	/* SetRefPoint2 */\012IP[ ]	/* InterpolatePts */\012PUSHW[ ]	/* 3 values pushed */\01279 41 24 \012SRP1[ ]	/* SetRefPoint1 */\012SRP2[ ]	/* SetRefPoint2 */\012IP[ ]	/* InterpolatePts */\012PUSHW[ ]	/* 3 values pushed */\01294 88 5 \012SRP1[ ]	/* SetRefPoint1 */\012SRP2[ ]	/* SetRefPoint2 */\012IP[ ]	/* InterpolatePts */\012PUSHW[ ]	/* 3 values pushed */\012112 41 40 \012SRP1[ ]	/* SetRefPoint1 */\012SRP2[ ]	/* SetRefPoint2 */\012IP[ ]	/* InterpolatePts */\012PUSHW[ ]	/* 3 values pushed */\012130 16 17 \012SRP1[ ]	/* SetRefPoint1 */\012SRP2[ ]	/* SetRefPoint2 */\012IP[ ]	/* InterpolatePts */\012PUSHW[ ]	/* 1 value pushed */\01240 \012SRP0[ ]	/* SetRefPoint0 */\012PUSHW[ ]	/* 1 value pushed */\012143 \012MDRP[11100]	/* MoveDirectRelPt */\012SVTCA[0]	/* SetFreedomAndProjectionVectorToAxis */\012PUSHW[ ]	/* 4 values pushed */\01221 2 10 4 \012CALL[ ]	/* CallFunction */\012PUSHW[ ]	/* 4 values pushed */\01237 3 45 4 \012CALL[ ]	/* CallFunction */\012IUP[0]	/* InterpolateUntPts */\012IUP[1]	/* InterpolateUntPts */";
};
width = 387;
}
);
leftKerningGroup = S;
note = S;
rightKerningGroup = S;
unicode = 0053;
},
{
color = 3;
glyphname = Scedilla;
lastChange = "2022-01-13 00:16:53 +0000";
layers = (
{
anchors = (
{
name = bottom;
position = "{187, 0}";
},
{
name = top;
position = "{203, 591}";
}
);
background = {
paths = (
{
closed = 1;
nodes = (
"199 110 OFFCURVE",
"202 117 OFFCURVE",
"202 148 CURVE SMOOTH",
"202 176 OFFCURVE",
"196 192 OFFCURVE",
"184 205 CURVE",
"184 148 LINE SMOOTH",
"184 118 OFFCURVE",
"185 110 OFFCURVE",
"193 110 CURVE SMOOTH"
);
},
{
closed = 1;
nodes = (
"295 20 OFFCURVE",
"356 64 OFFCURVE",
"356 183 CURVE SMOOTH",
"356 285 OFFCURVE",
"330 309 OFFCURVE",
"248 341 CURVE SMOOTH",
"205 359 OFFCURVE",
"178 363 OFFCURVE",
"178 416 CURVE SMOOTH",
"178 443 OFFCURVE",
"180 465 OFFCURVE",
"195 465 CURVE SMOOTH",
"204 465 OFFCURVE",
"210 459 OFFCURVE",
"211 446 CURVE SMOOTH",
"212 433 OFFCURVE",
"213 415 OFFCURVE",
"213 390 CURVE SMOOTH",
"213 376 LINE",
"350 376 LINE",
"350 436 LINE SMOOTH",
"350 523 OFFCURVE",
"298 566 OFFCURVE",
"193 566 CURVE SMOOTH",
"73 566 OFFCURVE",
"35 527 OFFCURVE",
"35 411 CURVE SMOOTH",
"35 328 OFFCURVE",
"53 282 OFFCURVE",
"118 251 CURVE SMOOTH",
"184 221 OFFCURVE",
"210 210 OFFCURVE",
"210 151 CURVE SMOOTH",
"210 113 OFFCURVE",
"206 101 OFFCURVE",
"193 101 CURVE SMOOTH",
"181 101 OFFCURVE",
"175 110 OFFCURVE",
"175 145 CURVE SMOOTH",
"175 198 LINE",
"31 198 LINE",
"31 181 LINE SMOOTH",
"31 57 OFFCURVE",
"79 20 OFFCURVE",
"188 20 CURVE SMOOTH"
);
},
{
closed = 1;
nodes = (
"193 380 OFFCURVE",
"186 393 OFFCURVE",
"186 416 CURVE SMOOTH",
"186 427 OFFCURVE",
"187 436 OFFCURVE",
"188 444 CURVE SMOOTH",
"189 452 OFFCURVE",
"191 456 OFFCURVE",
"195 456 CURVE SMOOTH",
"200 456 OFFCURVE",
"202 450 OFFCURVE",
"203 439 CURVE SMOOTH",
"204 428 OFFCURVE",
"204 411 OFFCURVE",
"204 390 CURVE SMOOTH",
"204 371 LINE"
);
},
{
closed = 1;
nodes = (
"313 -7 OFFCURVE",
"382 45 OFFCURVE",
"382 183 CURVE SMOOTH",
"382 278 OFFCURVE",
"361 316 OFFCURVE",
"300 348 CURVE",
"376 348 LINE",
"376 436 LINE SMOOTH",
"376 541 OFFCURVE",
"315 594 OFFCURVE",
"193 594 CURVE SMOOTH",
"54 594 OFFCURVE",
"9 548 OFFCURVE",
"9 411 CURVE SMOOTH",
"9 299 OFFCURVE",
"35 255 OFFCURVE",
"121 223 CURVE",
"5 223 LINE",
"5 181 LINE SMOOTH",
"5 36 OFFCURVE",
"61 -7 OFFCURVE",
"188 -7 CURVE SMOOTH"
);
},
{
closed = 1;
nodes = (
"72 11 OFFCURVE",
"22 51 OFFCURVE",
"22 181 CURVE SMOOTH",
"22 207 LINE",
"180 207 LINE",
"165 219 OFFCURVE",
"146 228 OFFCURVE",
"115 243 CURVE SMOOTH",
"46 275 OFFCURVE",
"27 326 OFFCURVE",
"27 411 CURVE SMOOTH",
"27 533 OFFCURVE",
"67 576 OFFCURVE",
"193 576 CURVE SMOOTH",
"304 576 OFFCURVE",
"359 529 OFFCURVE",
"359 436 CURVE SMOOTH",
"359 366 LINE",
"211 366 LINE",
"219 361 OFFCURVE",
"228 356 OFFCURVE",
"249 348 CURVE SMOOTH",
"344 312 OFFCURVE",
"365 290 OFFCURVE",
"365 183 CURVE SMOOTH",
"365 57 OFFCURVE",
"301 11 OFFCURVE",
"188 11 CURVE SMOOTH"
);
},
{
closed = 1;
nodes = (
"233 -140 OFFCURVE",
"261 -113 OFFCURVE",
"261 -82 CURVE SMOOTH",
"261 -54 OFFCURVE",
"237 -32 OFFCURVE",
"204 -32 CURVE SMOOTH",
"191 -32 OFFCURVE",
"185 -36 OFFCURVE",
"180 -38 CURVE",
"184 -41 LINE",
"204 27 LINE",
"177 27 LINE",
"144 -49 LINE",
"168 -66 LINE",
"171 -61 OFFCURVE",
"178 -58 OFFCURVE",
"185 -58 CURVE SMOOTH",
"198 -58 OFFCURVE",
"207 -67 OFFCURVE",
"207 -81 CURVE SMOOTH",
"207 -94 OFFCURVE",
"196 -106 OFFCURVE",
"181 -106 CURVE SMOOTH",
"165 -106 OFFCURVE",
"149 -97 OFFCURVE",
"141 -90 CURVE",
"128 -120 LINE",
"136 -126 OFFCURVE",
"158 -140 OFFCURVE",
"190 -140 CURVE SMOOTH"
);
},
{
closed = 1;
nodes = (
"233 -140 OFFCURVE",
"261 -113 OFFCURVE",
"261 -82 CURVE SMOOTH",
"261 -54 OFFCURVE",
"237 -32 OFFCURVE",
"204 -32 CURVE SMOOTH",
"195 -32 OFFCURVE",
"190 -34 OFFCURVE",
"186 -36 CURVE",
"202 20 LINE",
"300 24 OFFCURVE",
"356 69 OFFCURVE",
"356 183 CURVE SMOOTH",
"356 285 OFFCURVE",
"330 309 OFFCURVE",
"248 341 CURVE SMOOTH",
"205 359 OFFCURVE",
"178 363 OFFCURVE",
"178 416 CURVE SMOOTH",
"178 443 OFFCURVE",
"180 465 OFFCURVE",
"195 465 CURVE SMOOTH",
"204 465 OFFCURVE",
"210 459 OFFCURVE",
"211 446 CURVE SMOOTH",
"212 433 OFFCURVE",
"213 415 OFFCURVE",
"213 390 CURVE SMOOTH",
"213 376 LINE",
"350 376 LINE",
"350 436 LINE SMOOTH",
"350 523 OFFCURVE",
"298 566 OFFCURVE",
"193 566 CURVE SMOOTH",
"73 566 OFFCURVE",
"35 527 OFFCURVE",
"35 411 CURVE SMOOTH",
"35 328 OFFCURVE",
"53 282 OFFCURVE",
"118 251 CURVE SMOOTH",
"184 221 OFFCURVE",
"210 210 OFFCURVE",
"210 151 CURVE SMOOTH",
"210 113 OFFCURVE",
"206 101 OFFCURVE",
"193 101 CURVE SMOOTH",
"181 101 OFFCURVE",
"175 110 OFFCURVE",
"175 145 CURVE SMOOTH",
"175 198 LINE",
"31 198 LINE",
"31 181 LINE SMOOTH",
"31 62 OFFCURVE",
"75 23 OFFCURVE",
"174 20 CURVE",
"144 -49 LINE",
"168 -66 LINE",
"171 -61 OFFCURVE",
"178 -58 OFFCURVE",
"185 -58 CURVE SMOOTH",
"198 -58 OFFCURVE",
"207 -67 OFFCURVE",
"207 -81 CURVE SMOOTH",
"207 -94 OFFCURVE",
"196 -106 OFFCURVE",
"181 -106 CURVE SMOOTH",
"165 -106 OFFCURVE",
"149 -97 OFFCURVE",
"141 -90 CURVE",
"128 -120 LINE",
"136 -126 OFFCURVE",
"158 -140 OFFCURVE",
"190 -140 CURVE SMOOTH"
);
},
{
closed = 1;
nodes = (
"244.207 -166 OFFCURVE",
"287 -129.88 OFFCURVE",
"287 -82 CURVE SMOOTH",
"287 -39.231 OFFCURVE",
"250.489 -6 OFFCURVE",
"204 -6 CURVE SMOOTH",
"201.918 -6 OFFCURVE",
"198.835 -6.089 OFFCURVE",
"195.688 -6.435 CURVE",
"214.963 -29.272 LINE",
"221.992 -4.671 LINE",
"328.581 5.896 OFFCURVE",
"382 68.61 OFFCURVE",
"382 183 CURVE SMOOTH",
"382 288.698 OFFCURVE",
"355.995 326.765 OFFCURVE",
"257.746 365.102 CURVE SMOOTH",
"205.321 387.052 OFFCURVE",
"204 386.615 OFFCURVE",
"204 416 CURVE SMOOTH",
"204 452.752 OFFCURVE",
"214.756 439 OFFCURVE",
"195 439 CURVE SMOOTH",
"184.809 439 OFFCURVE",
"184.394 452.875 OFFCURVE",
"185.077 444.006 CURVE SMOOTH",
"186.055 431.282 OFFCURVE",
"187 414.278 OFFCURVE",
"187 390 CURVE SMOOTH",
"187 350 LINE",
"376 350 LINE",
"376 436 LINE SMOOTH",
"376 537.957 OFFCURVE",
"312.137 592 OFFCURVE",
"193 592 CURVE SMOOTH",
"59.169 592 OFFCURVE",
"9 542.693 OFFCURVE",
"9 411 CURVE SMOOTH",
"9 312.782 OFFCURVE",
"36.303 261.158 OFFCURVE",
"107.024 227.431 CURVE SMOOTH",
"173.553 197.189 OFFCURVE",
"184 192.769 OFFCURVE",
"184 151 CURVE SMOOTH",
"184 111.612 OFFCURVE",
"175.087 127 OFFCURVE",
"193 127 CURVE SMOOTH",
"208.297 127 OFFCURVE",
"201 112.803 OFFCURVE",
"201 145 CURVE SMOOTH",
"201 224 LINE",
"5 224 LINE",
"5 181 LINE SMOOTH",
"5 67.513 OFFCURVE",
"44.434 10.976 OFFCURVE",
"135.745 -2.779 CURVE",
"111.733 -58.006 LINE",
"159.385 -91.759 LINE",
"179.271 -87.582 LINE",
"198.989 -70.68 OFFCURVE",
"186.913 -84 OFFCURVE",
"185 -84 CURVE SMOOTH",
"184.34 -84 OFFCURVE",
"181 -81.66 OFFCURVE",
"181 -81 CURVE SMOOTH",
"181 -81.992 OFFCURVE",
"184.448 -80 OFFCURVE",
"181 -80 CURVE SMOOTH",
"172.121 -80 OFFCURVE",
"157.754 -72.486 OFFCURVE",
"154.972 -66.87 CURVE",
"122.326 -67.702 LINE",
"101.66 -115.394 LINE",
"105.801 -131.013 LINE",
"112.4 -140.8 LINE",
"121.199 -147.399 OFFCURVE",
"150.429 -166 OFFCURVE",
"190 -166 CURVE SMOOTH"
);
},
{
closed = 1;
nodes = (
"155.67 -148 OFFCURVE",
"131.446 -132.584 OFFCURVE",
"123.2 -126.4 CURVE",
"120.66 -116.819 LINE",
"138.842 -74.859 LINE",
"144.823 -86.934 OFFCURVE",
"165.733 -98 OFFCURVE",
"181 -98 CURVE SMOOTH",
"190.982 -98 OFFCURVE",
"199 -90.372 OFFCURVE",
"199 -81 CURVE SMOOTH",
"199 -71.461 OFFCURVE",
"193.837 -66 OFFCURVE",
"185 -66 CURVE SMOOTH",
"180.389 -66 OFFCURVE",
"176.217 -67.853 OFFCURVE",
"174.86 -70.116 CURVE",
"163.376 -72.528 LINE",
"134.072 -51.771 LINE",
"162.037 12.548 LINE",
"62.221 18.888 OFFCURVE",
"23 67.159 OFFCURVE",
"23 181 CURVE SMOOTH",
"23 206 LINE",
"183 206 LINE",
"183 145 LINE SMOOTH",
"183 116.467 OFFCURVE",
"186.237 109 OFFCURVE",
"193 109 CURVE SMOOTH",
"199.237 109 OFFCURVE",
"202 117.093 OFFCURVE",
"202 151 CURVE SMOOTH",
"202 204.698 OFFCURVE",
"180.786 213.673 OFFCURVE",
"114.623 243.748 CURVE SMOOTH",
"50.545 274.307 OFFCURVE",
"27 319.47 OFFCURVE",
"27 411 CURVE SMOOTH",
"27 532.527 OFFCURVE",
"69.261 574 OFFCURVE",
"193 574 CURVE SMOOTH",
"302.195 574 OFFCURVE",
"358 527.489 OFFCURVE",
"358 436 CURVE SMOOTH",
"358 368 LINE",
"205 368 LINE",
"205 390 LINE SMOOTH",
"205 414.778 OFFCURVE",
"204.017 432.471 OFFCURVE",
"203.024 445.386 CURVE SMOOTH",
"202.357 454.052 OFFCURVE",
"199.935 457 OFFCURVE",
"195 457 CURVE SMOOTH",
"189.223 457 OFFCURVE",
"186 445.851 OFFCURVE",
"186 416 CURVE SMOOTH",
"186 369.902 OFFCURVE",
"207.164 366.767 OFFCURVE",
"250.999 348.416 CURVE SMOOTH",
"342.711 312.627 OFFCURVE",
"364 281.482 OFFCURVE",
"364 183 CURVE SMOOTH",
"364 73.574 OFFCURVE",
"313.747 18.458 OFFCURVE",
"208.118 12.293 CURVE",
"197.655 -24.327 LINE",
"199.696 -24.103 OFFCURVE",
"201.799 -24 OFFCURVE",
"204 -24 CURVE SMOOTH",
"240.711 -24 OFFCURVE",
"269 -49.136 OFFCURVE",
"269 -82 CURVE SMOOTH",
"269 -119.84 OFFCURVE",
"234.371 -148 OFFCURVE",
"190 -148 CURVE SMOOTH"
);
}
);
};
layerId = "04A772B0-FA71-43EE-BB43-CAC7F0EBD631";
paths = (
{
closed = 1;
nodes = (
"244 -166 OFFCURVE",
"287 -130 OFFCURVE",
"287 -82 CURVE SMOOTH",
"287 -44 OFFCURVE",
"259 -14 OFFCURVE",
"221 -8 CURVE",
"222 -5 LINE",
"329 6 OFFCURVE",
"382 69 OFFCURVE",
"382 183 CURVE SMOOTH",
"382 275 OFFCURVE",
"362 316 OFFCURVE",
"293 350 CURVE",
"376 350 LINE",
"376 436 LINE SMOOTH",
"376 538 OFFCURVE",
"312 592 OFFCURVE",
"193 592 CURVE SMOOTH",
"59 592 OFFCURVE",
"9 543 OFFCURVE",
"9 411 CURVE SMOOTH",
"9 313 OFFCURVE",
"33 255 OFFCURVE",
"107 227 CURVE SMOOTH",
"115 224 LINE",
"5 224 LINE",
"5 181 LINE SMOOTH",
"5 68 OFFCURVE",
"44 11 OFFCURVE",
"136 -3 CURVE",
"112 -58 LINE",
"123 -66 LINE",
"95 -129 LINE",
"131 -154 OFFCURVE",
"153 -166 OFFCURVE",
"190 -166 CURVE SMOOTH"
);
},
{
closed = 1;
nodes = (
"163 -149 OFFCURVE",
"139 -141 OFFCURVE",
"117 -123 CURVE",
"138 -77 LINE",
"154 -88 OFFCURVE",
"165.733 -98 OFFCURVE",
"181 -98 CURVE SMOOTH",
"190.982 -98 OFFCURVE",
"199 -90.372 OFFCURVE",
"199 -80 CURVE SMOOTH",
"199 -72 OFFCURVE",
"193 -66 OFFCURVE",
"185 -66 CURVE SMOOTH",
"178 -66 OFFCURVE",
"173 -69 OFFCURVE",
"170 -78 CURVE",
"134.072 -51.771 LINE",
"162.037 12.548 LINE",
"62.221 18.888 OFFCURVE",
"23 67.159 OFFCURVE",
"23 181 CURVE SMOOTH",
"23 206 LINE",
"183 206 LINE",
"183 145 LINE SMOOTH",
"183 116.467 OFFCURVE",
"186.237 109 OFFCURVE",
"193 109 CURVE SMOOTH",
"199.237 109 OFFCURVE",
"202 117.093 OFFCURVE",
"202 151 CURVE SMOOTH",
"202 204.698 OFFCURVE",
"180.786 213.673 OFFCURVE",
"114.623 243.748 CURVE SMOOTH",
"50.545 274.307 OFFCURVE",
"27 319.47 OFFCURVE",
"27 411 CURVE SMOOTH",
"27 532.527 OFFCURVE",
"69.261 574 OFFCURVE",
"193 574 CURVE SMOOTH",
"302.195 574 OFFCURVE",
"358 527.489 OFFCURVE",
"358 436 CURVE SMOOTH",
"358 368 LINE",
"205 368 LINE",
"205 390 LINE SMOOTH",
"205 414.778 OFFCURVE",
"204.017 432.471 OFFCURVE",
"203.024 445.386 CURVE SMOOTH",
"202.357 454.052 OFFCURVE",
"199.935 457 OFFCURVE",
"195 457 CURVE SMOOTH",
"189.223 457 OFFCURVE",
"186 445.851 OFFCURVE",
"186 416 CURVE SMOOTH",
"186 369.902 OFFCURVE",
"207.164 366.767 OFFCURVE",
"250.999 348.416 CURVE SMOOTH",
"342.711 312.627 OFFCURVE",
"364 281.482 OFFCURVE",
"364 183 CURVE SMOOTH",
"364 73.574 OFFCURVE",
"313.747 18.458 OFFCURVE",
"208.118 12.293 CURVE",
"197.655 -24.327 LINE",
"199.696 -24.103 OFFCURVE",
"201.799 -24 OFFCURVE",
"204 -24 CURVE SMOOTH",
"240.711 -24 OFFCURVE",
"269 -49.136 OFFCURVE",
"269 -82 CURVE SMOOTH",
"269 -120 OFFCURVE",
"234 -149 OFFCURVE",
"190 -149 CURVE SMOOTH"
);
},
{
closed = 1;
nodes = (
"233 -140 OFFCURVE",
"261 -113 OFFCURVE",
"261 -82 CURVE SMOOTH",
"261 -54 OFFCURVE",
"237 -32 OFFCURVE",
"204 -32 CURVE SMOOTH",
"195 -32 OFFCURVE",
"190 -34 OFFCURVE",
"186 -36 CURVE",
"202 20 LINE",
"300 24 OFFCURVE",
"356 69 OFFCURVE",
"356 183 CURVE SMOOTH",
"356 285 OFFCURVE",
"330 309 OFFCURVE",
"248 341 CURVE SMOOTH",
"205 359 OFFCURVE",
"178 363 OFFCURVE",
"178 416 CURVE SMOOTH",
"178 443 OFFCURVE",
"180 465 OFFCURVE",
"195 465 CURVE SMOOTH",
"204 465 OFFCURVE",
"210 459 OFFCURVE",
"211 446 CURVE SMOOTH",
"212 433 OFFCURVE",
"213 415 OFFCURVE",
"213 390 CURVE SMOOTH",
"213 376 LINE",
"350 376 LINE",
"350 436 LINE SMOOTH",
"350 523 OFFCURVE",
"298 566 OFFCURVE",
"193 566 CURVE SMOOTH",
"73 566 OFFCURVE",
"35 527 OFFCURVE",
"35 411 CURVE SMOOTH",
"35 328 OFFCURVE",
"53 282 OFFCURVE",
"118 251 CURVE SMOOTH",
"184 221 OFFCURVE",
"210 210 OFFCURVE",
"210 151 CURVE SMOOTH",
"210 113 OFFCURVE",
"206 101 OFFCURVE",
"193 101 CURVE SMOOTH",
"181 101 OFFCURVE",
"175 110 OFFCURVE",
"175 145 CURVE SMOOTH",
"175 198 LINE",
"31 198 LINE",
"31 181 LINE SMOOTH",
"31 62 OFFCURVE",
"75 23 OFFCURVE",
"174 20 CURVE",
"144 -49 LINE",
"168 -66 LINE",
"171 -61 OFFCURVE",
"178 -58 OFFCURVE",
"185 -58 CURVE SMOOTH",
"198 -58 OFFCURVE",
"207 -67 OFFCURVE",
"207 -81 CURVE SMOOTH",
"207 -94 OFFCURVE",
"196 -106 OFFCURVE",
"181 -106 CURVE SMOOTH",
"165 -106 OFFCURVE",
"149 -97 OFFCURVE",
"141 -90 CURVE",
"128 -120 LINE",
"136 -126 OFFCURVE",
"158 -140 OFFCURVE",
"190 -140 CURVE SMOOTH"
);
}
);
width = 387;
}
);
leftKerningGroup = S;
rightKerningGroup = S;
unicode = 015E;
},
{
glyphname = Germandbls;
lastChange = "2021-12-06 10:21:32 +0000";
layers = (
{
layerId = "04A772B0-FA71-43EE-BB43-CAC7F0EBD631";
paths = (
{
closed = 1;
nodes = (
"30 1 OFFCURVE",
"14 1 OFFCURVE",
"206 0 CURVE",
"276 0 LINE SMOOTH",
"383 0 OFFCURVE",
"444 39 OFFCURVE",
"444 151 CURVE SMOOTH",
"444 228 LINE SMOOTH",
"444 285 OFFCURVE",
"427 325 OFFCURVE",
"394 347 CURVE",
"421 372 OFFCURVE",
"430 407 OFFCURVE",
"430 450 CURVE SMOOTH",
"430 513 LINE SMOOTH",
"430 592 OFFCURVE",
"354 642 OFFCURVE",
"241 642 CURVE SMOOTH",
"108 642 OFFCURVE",
"23 621 OFFCURVE",
"20 497 CURVE",
"20 361 LINE",
"20 1 LINE"
);
},
{
closed = 1;
nodes = (
"212 271 LINE",
"236 270 LINE",
"237 175 LINE",
"237 171 LINE SMOOTH",
"237 158 OFFCURVE",
"237 133 OFFCURVE",
"241 130 CURVE",
"212 130 LINE"
);
},
{
closed = 1;
nodes = (
"186 29 LINE",
"186 490 LINE SMOOTH",
"186 527 OFFCURVE",
"193 546 OFFCURVE",
"225 546 CURVE SMOOTH",
"264 546 OFFCURVE",
"264 520 OFFCURVE",
"264 476 CURVE SMOOTH",
"264 432 LINE SMOOTH",
"264 396 OFFCURVE",
"262 374 OFFCURVE",
"239 374 CURVE SMOOTH",
"215 374 LINE",
"215 300 LINE",
"245 298 LINE SMOOTH",
"248 298 OFFCURVE",
"250 297 OFFCURVE",
"253 295 CURVE SMOOTH",
"257 292 OFFCURVE",
"261 286 OFFCURVE",
"262 274 CURVE",
"263 175 LINE SMOOTH",
"263 152 OFFCURVE",
"265 102 OFFCURVE",
"242 102 CURVE SMOOTH",
"210 102 LINE",
"210 28 LINE",
"276 28 LINE SMOOTH",
"364 28 OFFCURVE",
"418 58 OFFCURVE",
"418 151 CURVE SMOOTH",
"418 228 LINE SMOOTH",
"418 305 OFFCURVE",
"375 341 OFFCURVE",
"319 341 CURVE",
"319 343 LINE",
"379 350 OFFCURVE",
"403 394 OFFCURVE",
"403 450 CURVE SMOOTH",
"403 513 LINE SMOOTH",
"403 576 OFFCURVE",
"338 614 OFFCURVE",
"241 614 CURVE SMOOTH",
"122 614 OFFCURVE",
"47 596 OFFCURVE",
"47 493 CURVE SMOOTH",
"47 470 LINE",
"47 389 LINE",
"47 29 LINE"
);
},
{
closed = 1;
nodes = (
"38 19 LINE",
"38 380 LINE",
"38 479 LINE",
"38 493 LINE SMOOTH",
"38 606 OFFCURVE",
"118 624 OFFCURVE",
"241 624 CURVE SMOOTH",
"345 624 OFFCURVE",
"412 581 OFFCURVE",
"412 513 CURVE SMOOTH",
"412 450 LINE SMOOTH",
"412 405 OFFCURVE",
"395 364 OFFCURVE",
"360 343 CURVE",
"400 328 OFFCURVE",
"427 292 OFFCURVE",
"427 228 CURVE SMOOTH",
"427 151 LINE SMOOTH",
"427 52 OFFCURVE",
"372 19 OFFCURVE",
"276 19 CURVE SMOOTH",
"201 19 LINE",
"201 111 LINE",
"242 111 LINE SMOOTH",
"255 111 OFFCURVE",
"254 150 OFFCURVE",
"254 171 CURVE SMOOTH",
"254 175 LINE",
"253 274 LINE SMOOTH",
"253 280 OFFCURVE",
"252 284 OFFCURVE",
"249 287 CURVE SMOOTH",
"248 288 OFFCURVE",
"246 289 OFFCURVE",
"245 289 CURVE SMOOTH",
"206 291 LINE",
"206 383 LINE",
"239 383 LINE SMOOTH",
"246 383 OFFCURVE",
"251 387 OFFCURVE",
"253 396 CURVE SMOOTH",
"254 405 OFFCURVE",
"255 417 OFFCURVE",
"255 432 CURVE SMOOTH",
"255 476 LINE SMOOTH",
"255 515 OFFCURVE",
"256 536 OFFCURVE",
"225 536 CURVE SMOOTH",
"200 536 OFFCURVE",
"195 521 OFFCURVE",
"195 490 CURVE SMOOTH",
"195 19 LINE"
);
},
{
closed = 1;
nodes = (
"212 490 LINE SMOOTH",
"212 509 OFFCURVE",
"216 518 OFFCURVE",
"225 518 CURVE SMOOTH",
"231 518 OFFCURVE",
"235 514 OFFCURVE",
"236 507 CURVE SMOOTH",
"237 500 OFFCURVE",
"237 489 OFFCURVE",
"237 476 CURVE SMOOTH",
"237 432 LINE SMOOTH",
"237 412 OFFCURVE",
"237 409 OFFCURVE",
"237 402 CURVE",
"212 402 LINE"
);
}
);
width = 453;
}
);
unicode = 1E9E;
},
{
glyphname = Schwa;
lastChange = "2021-12-06 10:21:32 +0000";
layers = (
{
layerId = "04A772B0-FA71-43EE-BB43-CAC7F0EBD631";
paths = (
{
closed = 1;
nodes = (
"64 601 OFFCURVE",
"6 567 OFFCURVE",
"6 381 CURVE SMOOTH",
"6 161 LINE SMOOTH",
"6 33 OFFCURVE",
"70 -9 OFFCURVE",
"184 -9 CURVE SMOOTH",
"298 -9 OFFCURVE",
"363 33 OFFCURVE",
"363 161 CURVE SMOOTH",
"363 381 LINE SMOOTH",
"363 567 OFFCURVE",
"308 601 OFFCURVE",
"184 601 CURVE SMOOTH"
);
},
{
closed = 1;
nodes = (
"294 583 OFFCURVE",
"345 549 OFFCURVE",
"345 381 CURVE SMOOTH",
"345 161 LINE SMOOTH",
"345 47 OFFCURVE",
"287 13 OFFCURVE",
"184 13 CURVE SMOOTH",
"81 13 OFFCURVE",
"23 47 OFFCURVE",
"23 161 CURVE SMOOTH",
"23 296 LINE",
"193 296 LINE",
"193 454 LINE SMOOTH",
"193 465 OFFCURVE",
"193 476 OFFCURVE",
"188 476 CURVE SMOOTH",
"183 476 OFFCURVE",
"182 465 OFFCURVE",
"182 454 CURVE SMOOTH",
"182 350 LINE",
"23 350 LINE",
"23 381 LINE SMOOTH",
"23 548 OFFCURVE",
"73 583 OFFCURVE",
"184 583 CURVE SMOOTH"
);
},
{
closed = 1;
nodes = (
"80 574 OFFCURVE",
"33 538 OFFCURVE",
"33 381 CURVE SMOOTH",
"33 359 LINE",
"174 359 LINE",
"174 454 LINE SMOOTH",
"174 469 OFFCURVE",
"175 485 OFFCURVE",
"188 485 CURVE SMOOTH",
"197 485 OFFCURVE",
"201 476 OFFCURVE",
"201 454 CURVE SMOOTH",
"201 287 LINE",
"32 287 LINE",
"32 161 LINE SMOOTH",
"32 55 OFFCURVE",
"86 23 OFFCURVE",
"184 23 CURVE SMOOTH",
"283 23 OFFCURVE",
"337 55 OFFCURVE",
"337 161 CURVE SMOOTH",
"337 381 LINE SMOOTH",
"337 538 OFFCURVE",
"289 574 OFFCURVE",
"184 574 CURVE SMOOTH"
);
},
{
closed = 1;
nodes = (
"201 128 LINE SMOOTH",
"201 113 OFFCURVE",
"194 108 OFFCURVE",
"185 108 CURVE SMOOTH",
"177 108 OFFCURVE",
"170 114 OFFCURVE",
"170 124 CURVE SMOOTH",
"170 216 LINE",
"201 216 LINE"
);
},
{
closed = 1;
nodes = (
"179 207 LINE",
"179 136 LINE SMOOTH",
"179 122 OFFCURVE",
"179 118 OFFCURVE",
"186 118 CURVE SMOOTH",
"192 118 OFFCURVE",
"192 122 OFFCURVE",
"192 136 CURVE SMOOTH",
"192 207 LINE"
);
}
);
width = 370;
}
);
rightKerningGroup = o;
unicode = 018F;
},
{
glyphname = T;
lastChange = "2021-12-17 05:35:05 +0000";
layers = (
{
anchors = (
{
name = bottom;
position = "{173, 0}";
},
{
name = center;
position = "{173, 346}";
},
{
name = top;
position = "{173, 591}";
}
);
layerId = "04A772B0-FA71-43EE-BB43-CAC7F0EBD631";
paths = (
{
closed = 1;
nodes = (
"261 0 LINE",
"261 436 LINE",
"332 436 LINE",
"332 591 LINE",
"3 591 LINE",
"3 436 LINE",
"75 436 LINE",
"75 0 LINE"
);
},
{
closed = 1;
nodes = (
"92 454 LINE",
"20 454 LINE",
"20 573 LINE",
"316 573 LINE",
"316 454 LINE",
"244 454 LINE",
"244 18 LINE",
"92 18 LINE"
);
},
{
closed = 1;
nodes = (
"235 27 LINE",
"235 463 LINE",
"307 463 LINE",
"307 564 LINE",
"29 564 LINE",
"29 463 LINE",
"101 463 LINE",
"101 27 LINE"
);
}
);
userData = {
assembly = "PUSHW[ ]	/* 4 values pushed */\0121 6 2 4 \012CALL[ ]	/* CallFunction */\012SVTCA[0]	/* SetFreedomAndProjectionVectorToAxis */\012PUSHW[ ]	/* 1 value pushed */\0121 \012MDAP[1]	/* MoveDirectAbsPt */\012IUP[0]	/* InterpolateUntPts */\012IUP[1]	/* InterpolateUntPts */";
};
width = 335;
}
);
leftKerningGroup = T;
note = T;
rightKerningGroup = T;
unicode = 0054;
},
{
color = 3;
glyphname = Tbar;
lastChange = "2022-01-13 01:24:41 +0000";
layers = (
{
anchors = (
{
name = bottom;
position = "{173, 0}";
},
{
name = center;
position = "{173, 370}";
},
{
name = top;
position = "{173, 591}";
}
);
background = {
paths = (
{
closed = 1;
nodes = (
"261 0 LINE",
"261 436 LINE",
"332 436 LINE",
"332 591 LINE",
"3 591 LINE",
"3 436 LINE",
"75 436 LINE",
"75 0 LINE"
);
},
{
closed = 1;
nodes = (
"92 454 LINE",
"20 454 LINE",
"20 573 LINE",
"316 573 LINE",
"316 454 LINE",
"244 454 LINE",
"244 18 LINE",
"92 18 LINE"
);
},
{
closed = 1;
nodes = (
"235 27 LINE",
"235 463 LINE",
"307 463 LINE",
"307 564 LINE",
"29 564 LINE",
"29 463 LINE",
"101 463 LINE",
"101 27 LINE"
);
},
{
closed = 1;
nodes = (
"278 227 LINE",
"278 304 LINE",
"56 304 LINE",
"56 227 LINE"
);
},
{
closed = 1;
nodes = (
"261 0 LINE",
"261 436 LINE",
"332 436 LINE",
"332 591 LINE",
"3 591 LINE",
"3 436 LINE",
"75 436 LINE",
"75 0 LINE"
);
},
{
closed = 1;
nodes = (
"92 454 LINE",
"20 454 LINE",
"20 573 LINE",
"316 573 LINE",
"316 454 LINE",
"244 454 LINE",
"244 18 LINE",
"92 18 LINE"
);
},
{
closed = 1;
nodes = (
"235 27 LINE",
"235 463 LINE",
"307 463 LINE",
"307 564 LINE",
"29 564 LINE",
"29 463 LINE",
"101 463 LINE",
"101 27 LINE"
);
},
{
closed = 1;
nodes = (
"279 229 LINE",
"279 304 LINE",
"57 304 LINE",
"57 229 LINE"
);
},
{
closed = 1;
nodes = (
"235 27 LINE",
"235 463 LINE",
"307 463 LINE",
"307 564 LINE",
"29 564 LINE",
"29 463 LINE",
"101 463 LINE",
"101 27 LINE"
);
},
{
closed = 1;
nodes = (
"279 229 LINE",
"279 304 LINE",
"57 304 LINE",
"57 229 LINE"
);
}
);
};
layerId = "04A772B0-FA71-43EE-BB43-CAC7F0EBD631";
paths = (
{
closed = 1;
nodes = (
"235 27 LINE",
"235 229 LINE",
"279 229 LINE",
"279 304 LINE",
"235 304 LINE",
"235 463 LINE",
"307 463 LINE",
"307 564 LINE",
"29 564 LINE",
"29 463 LINE",
"101 463 LINE",
"101 304 LINE",
"57 304 LINE",
"57 229 LINE",
"101 229 LINE",
"101 27 LINE"
);
},
{
closed = 1;
nodes = (
"261 1 LINE",
"261 203 LINE",
"305 203 LINE",
"305 330 LINE",
"261 330 LINE",
"261 437 LINE",
"333 437 LINE",
"333 590 LINE",
"3 590 LINE",
"3 437 LINE",
"75 437 LINE",
"75 330 LINE",
"31 330 LINE",
"31 203 LINE",
"75 203 LINE",
"75 1 LINE"
);
},
{
closed = 1;
nodes = (
"93 221 LINE",
"49 221 LINE",
"49 312 LINE",
"93 312 LINE",
"93 455 LINE",
"21 455 LINE",
"21 572 LINE",
"315 572 LINE",
"315 455 LINE",
"243 455 LINE",
"243 312 LINE",
"287 312 LINE",
"287 221 LINE",
"243 221 LINE",
"243 19 LINE",
"93 19 LINE"
);
}
);
width = 335;
}
);
leftKerningGroup = T;
rightKerningGroup = T;
unicode = 0166;
},
{
glyphname = U;
lastChange = "2022-01-12 23:18:39 +0000";
layers = (
{
anchors = (
{
name = bottom;
position = "{188, 0}";
},
{
name = ogonek;
position = "{253, 0}";
},
{
name = top;
position = "{188, 591}";
},
{
name = topright;
position = "{270, 589}";
}
);
background = {
paths = (
{
closed = 1;
nodes = (
"308 -11 OFFCURVE",
"364 19 OFFCURVE",
"364 176 CURVE SMOOTH",
"364 592 LINE",
"12 592 LINE",
"12 176 LINE SMOOTH",
"12 19 OFFCURVE",
"67 -11 OFFCURVE",
"188 -11 CURVE SMOOTH"
);
},
{
closed = 1;
nodes = (
"79 7 OFFCURVE",
"29 36 OFFCURVE",
"29 176 CURVE SMOOTH",
"29 574 LINE",
"182 574 LINE",
"182 132 LINE SMOOTH",
"182 125 OFFCURVE",
"183 120 OFFCURVE",
"184 118 CURVE SMOOTH",
"185 115 OFFCURVE",
"187 114 OFFCURVE",
"188 114 CURVE SMOOTH",
"190 114 OFFCURVE",
"192 115 OFFCURVE",
"193 118 CURVE SMOOTH",
"194 120 OFFCURVE",
"194 125 OFFCURVE",
"194 132 CURVE SMOOTH",
"194 574 LINE",
"347 574 LINE",
"347 176 LINE SMOOTH",
"347 34 OFFCURVE",
"297 7 OFFCURVE",
"188 7 CURVE SMOOTH"
);
},
{
closed = 1;
nodes = (
"290 16 OFFCURVE",
"339 41 OFFCURVE",
"339 176 CURVE SMOOTH",
"339 565 LINE",
"203 565 LINE",
"203 132 LINE SMOOTH",
"203 121 OFFCURVE",
"202 114 OFFCURVE",
"199 111 CURVE SMOOTH",
"196 107 OFFCURVE",
"193 105 OFFCURVE",
"188 105 CURVE SMOOTH",
"184 105 OFFCURVE",
"181 107 OFFCURVE",
"178 111 CURVE SMOOTH",
"175 114 OFFCURVE",
"174 121 OFFCURVE",
"174 132 CURVE SMOOTH",
"174 565 LINE",
"38 565 LINE",
"38 176 LINE SMOOTH",
"38 41 OFFCURVE",
"87 16 OFFCURVE",
"188 16 CURVE SMOOTH"
);
}
);
};
layerId = "04A772B0-FA71-43EE-BB43-CAC7F0EBD631";
paths = (
{
closed = 1;
nodes = (
"308 -11 OFFCURVE",
"364 19 OFFCURVE",
"364 176 CURVE SMOOTH",
"364 591 LINE",
"12 591 LINE",
"12 176 LINE SMOOTH",
"12 19 OFFCURVE",
"67 -11 OFFCURVE",
"188 -11 CURVE SMOOTH"
);
},
{
closed = 1;
nodes = (
"79 6 OFFCURVE",
"29 36 OFFCURVE",
"29 176 CURVE SMOOTH",
"29 574 LINE",
"182 574 LINE",
"182 127 LINE SMOOTH",
"182 118 OFFCURVE",
"184 114 OFFCURVE",
"188 114 CURVE SMOOTH",
"193 114 OFFCURVE",
"194 118 OFFCURVE",
"194 127 CURVE SMOOTH",
"194 574 LINE",
"347 574 LINE",
"347 176 LINE SMOOTH",
"347 34 OFFCURVE",
"297 6 OFFCURVE",
"188 6 CURVE SMOOTH"
);
},
{
closed = 1;
nodes = (
"290 15 OFFCURVE",
"339 41 OFFCURVE",
"339 176 CURVE SMOOTH",
"339 566 LINE",
"203 566 LINE",
"203 129 LINE SMOOTH",
"203 114 OFFCURVE",
"200 105 OFFCURVE",
"188 105 CURVE SMOOTH",
"178 105 OFFCURVE",
"174 114 OFFCURVE",
"174 129 CURVE SMOOTH",
"174 566 LINE",
"38 566 LINE",
"38 176 LINE SMOOTH",
"38 41 OFFCURVE",
"87 15 OFFCURVE",
"188 15 CURVE SMOOTH"
);
}
);
width = 376;
}
);
leftKerningGroup = U;
leftMetricsKey = "=O+5";
note = U;
rightKerningGroup = U;
rightMetricsKey = "=O+5";
unicode = 0055;
},
{
color = 3;
glyphname = Uhorn;
lastChange = "2022-01-12 23:30:35 +0000";
layers = (
{
anchors = (
{
name = bottom;
position = "{201, 0}";
},
{
name = ogonek;
position = "{270, 0}";
},
{
name = top;
position = "{201, 591}";
},
{
name = topright;
position = "{434, 658}";
}
);
layerId = "04A772B0-FA71-43EE-BB43-CAC7F0EBD631";
paths = (
{
closed = 1;
nodes = (
"318 -11 OFFCURVE",
"365 39 OFFCURVE",
"365 176 CURVE SMOOTH",
"365 490 LINE",
"425 503 OFFCURVE",
"450 542 OFFCURVE",
"450 619 CURVE SMOOTH",
"450 663 LINE",
"307 663 LINE",
"307 619 LINE SMOOTH",
"307 597 OFFCURVE",
"303 592 OFFCURVE",
"298 592 CURVE SMOOTH",
"12 592 LINE",
"12 176 LINE SMOOTH",
"12 39 OFFCURVE",
"59 -11 OFFCURVE",
"188 -11 CURVE SMOOTH"
);
},
{
closed = 1;
nodes = (
"69.81 7 OFFCURVE",
"30 49.015 OFFCURVE",
"30 176 CURVE SMOOTH",
"30 574 LINE",
"182 574 LINE",
"182 129 LINE SMOOTH",
"182 116.941 OFFCURVE",
"184.099 113 OFFCURVE",
"188 113 CURVE SMOOTH",
"193.121 113 OFFCURVE",
"195 115.358 OFFCURVE",
"195 129 CURVE SMOOTH",
"195 574 LINE",
"298 574 LINE SMOOTH",
"315.925 574 OFFCURVE",
"325 588.463 OFFCURVE",
"325 619 CURVE SMOOTH",
"325 645 LINE",
"432 645 LINE",
"432 619 LINE SMOOTH",
"432 544.737 OFFCURVE",
"408.681 512.806 OFFCURVE",
"347 504.845 CURVE",
"347 176 LINE SMOOTH",
"347 48.83 OFFCURVE",
"307.104 7 OFFCURVE",
"188 7 CURVE SMOOTH"
);
},
{
closed = 1;
nodes = (
"290 15 OFFCURVE",
"339 41 OFFCURVE",
"339 176 CURVE SMOOTH",
"339 512 LINE",
"402 518 OFFCURVE",
"424 546 OFFCURVE",
"424 619 CURVE SMOOTH",
"424 637 LINE",
"333 637 LINE",
"333 619 LINE SMOOTH",
"333 586 OFFCURVE",
"322 566 OFFCURVE",
"298 566 CURVE SMOOTH",
"203 566 LINE",
"203 129 LINE SMOOTH",
"203 114 OFFCURVE",
"200 105 OFFCURVE",
"188 105 CURVE SMOOTH",
"178 105 OFFCURVE",
"174 114 OFFCURVE",
"174 129 CURVE SMOOTH",
"174 566 LINE",
"38 566 LINE",
"38 176 LINE SMOOTH",
"38 41 OFFCURVE",
"87 15 OFFCURVE",
"188 15 CURVE SMOOTH"
);
}
);
width = 376;
}
);
leftKerningGroup = U;
rightKerningGroup = U;
unicode = 01AF;
},
{
color = 3;
glyphname = Uogonek;
lastChange = "2022-01-15 00:01:47 +0000";
layers = (
{
background = {
paths = (
{
closed = 1;
nodes = (
"-178 -130 OFFCURVE",
"-159 -122 OFFCURVE",
"-152 -117 CURVE",
"-160 -90 LINE",
"-164 -91 OFFCURVE",
"-171 -94 OFFCURVE",
"-182 -94 CURVE SMOOTH",
"-199 -94 OFFCURVE",
"-216 -85 OFFCURVE",
"-216 -61 CURVE SMOOTH",
"-216 -36 OFFCURVE",
"-200 -6 OFFCURVE",
"-176 16 CURVE",
"-98 23 OFFCURVE",
"-61 58 OFFCURVE",
"-61 176 CURVE SMOOTH",
"-61 566 LINE",
"-197 566 LINE",
"-197 129 LINE SMOOTH",
"-197 114 OFFCURVE",
"-200 105 OFFCURVE",
"-212 105 CURVE SMOOTH",
"-222 105 OFFCURVE",
"-226 114 OFFCURVE",
"-226 129 CURVE SMOOTH",
"-226 566 LINE",
"-362 566 LINE",
"-362 176 LINE SMOOTH",
"-362 45 OFFCURVE",
"-316 16 OFFCURVE",
"-220 15 CURVE",
"-244 -8 OFFCURVE",
"-270 -36 OFFCURVE",
"-270 -74 CURVE SMOOTH",
"-270 -107 OFFCURVE",
"-242 -130 OFFCURVE",
"-202 -130 CURVE SMOOTH"
);
},
{
closed = 1;
nodes = (
"-388 63 OFFCURVE",
"-355 9 OFFCURVE",
"-273 -6 CURVE",
"-288 -29 OFFCURVE",
"-296 -51 OFFCURVE",
"-296 -74 CURVE SMOOTH",
"-296 -122 OFFCURVE",
"-256 -156 OFFCURVE",
"-202 -156 CURVE SMOOTH",
"-167 -156 OFFCURVE",
"-127 -140 OFFCURVE",
"-124 -121 CURVE",
"-137 -76 LINE",
"-153 -67 LINE",
"-166 -65 LINE",
"-170 -66 LINE SMOOTH",
"-175 -67 OFFCURVE",
"-178 -68 OFFCURVE",
"-182 -68 CURVE SMOOTH",
"-189 -68 OFFCURVE",
"-190 -66 OFFCURVE",
"-190 -61 CURVE SMOOTH",
"-190 -45 OFFCURVE",
"-180 -26 OFFCURVE",
"-164 -9 CURVE",
"-72 3 OFFCURVE",
"-35 57 OFFCURVE",
"-35 176 CURVE SMOOTH",
"-35 592 LINE",
"-388 592 LINE",
"-388 176 LINE SMOOTH"
);
},
{
closed = 1;
nodes = (
"-246 -138 OFFCURVE",
"-278 -111 OFFCURVE",
"-278 -74 CURVE SMOOTH",
"-278 -40 OFFCURVE",
"-259 -14 OFFCURVE",
"-239 8 CURVE",
"-336 13 OFFCURVE",
"-370 59 OFFCURVE",
"-370 176 CURVE SMOOTH",
"-370 574 LINE",
"-218 574 LINE",
"-218 129 LINE SMOOTH",
"-218 117 OFFCURVE",
"-216 113 OFFCURVE",
"-212 113 CURVE SMOOTH",
"-207 113 OFFCURVE",
"-205 115 OFFCURVE",
"-205 129 CURVE SMOOTH",
"-205 574 LINE",
"-53 574 LINE",
"-53 176 LINE SMOOTH",
"-53 63 OFFCURVE",
"-86 17 OFFCURVE",
"-173 8 CURVE",
"-194 -12 OFFCURVE",
"-208 -39 OFFCURVE",
"-208 -61 CURVE SMOOTH",
"-208 -77 OFFCURVE",
"-198 -86 OFFCURVE",
"-182 -86 CURVE SMOOTH",
"-174 -86 OFFCURVE",
"-169 -84 OFFCURVE",
"-165 -83 CURVE SMOOTH",
"-164 -83 OFFCURVE",
"-163 -82 OFFCURVE",
"-162 -82 CURVE",
"-152 -88 LINE",
"-143 -120 LINE",
"-153 -130 OFFCURVE",
"-179 -138 OFFCURVE",
"-202 -138 CURVE SMOOTH"
);
},
{
closed = 1;
nodes = (
"233 -156 OFFCURVE",
"264 -143 OFFCURVE",
"277 -123 CURVE",
"257 -55 LINE",
"248 -60 OFFCURVE",
"227 -69 OFFCURVE",
"219 -69 CURVE SMOOTH",
"214 -69 OFFCURVE",
"210 -67 OFFCURVE",
"210 -61 CURVE SMOOTH",
"210 -45 OFFCURVE",
"220 -26 OFFCURVE",
"236 -9 CURVE",
"328 3 OFFCURVE",
"365 57 OFFCURVE",
"365 176 CURVE SMOOTH",
"365 592 LINE",
"12 592 LINE",
"12 176 LINE SMOOTH",
"12 63 OFFCURVE",
"45 9 OFFCURVE",
"127 -6 CURVE",
"112 -29 OFFCURVE",
"104 -51 OFFCURVE",
"104 -74 CURVE SMOOTH",
"104 -122 OFFCURVE",
"144 -156 OFFCURVE",
"198 -156 CURVE SMOOTH"
);
},
{
closed = 1;
nodes = (
"153.735 -138 OFFCURVE",
"122 -111.432 OFFCURVE",
"122 -74 CURVE SMOOTH",
"122 -40.212 OFFCURVE",
"141.085 -13.62 OFFCURVE",
"161.294 7.636 CURVE",
"64.171 13.478 OFFCURVE",
"30 58.947 OFFCURVE",
"30 176 CURVE SMOOTH",
"30 574 LINE",
"182 574 LINE",
"182 129 LINE SMOOTH",
"182 116.941 OFFCURVE",
"184.099 113 OFFCURVE",
"188 113 CURVE SMOOTH",
"193.121 113 OFFCURVE",
"195 115.358 OFFCURVE",
"195 129 CURVE SMOOTH",
"195 574 LINE",
"347 574 LINE",
"347 176 LINE SMOOTH",
"347 63.289 OFFCURVE",
"314.406 16.984 OFFCURVE",
"227.471 8.293 CURVE",
"206 -12 OFFCURVE",
"192 -39 OFFCURVE",
"192 -61 CURVE SMOOTH",
"192 -77 OFFCURVE",
"202 -86 OFFCURVE",
"218 -86 CURVE SMOOTH",
"234 -86 OFFCURVE",
"243 -79 OFFCURVE",
"245 -79 CURVE",
"257 -120 LINE",
"247 -130 OFFCURVE",
"221 -138 OFFCURVE",
"198 -138 CURVE SMOOTH"
);
},
{
closed = 1;
nodes = (
"222 -130 OFFCURVE",
"241 -122 OFFCURVE",
"248 -117 CURVE",
"240 -90 LINE",
"236 -91 OFFCURVE",
"229 -94 OFFCURVE",
"218 -94 CURVE SMOOTH",
"201 -94 OFFCURVE",
"184 -85 OFFCURVE",
"184 -61 CURVE SMOOTH",
"184 -36 OFFCURVE",
"200 -6 OFFCURVE",
"224 16 CURVE",
"302 23 OFFCURVE",
"339 58 OFFCURVE",
"339 176 CURVE SMOOTH",
"339 566 LINE",
"203 566 LINE",
"203 129 LINE SMOOTH",
"203 114 OFFCURVE",
"200 105 OFFCURVE",
"188 105 CURVE SMOOTH",
"178 105 OFFCURVE",
"174 114 OFFCURVE",
"174 129 CURVE SMOOTH",
"174 566 LINE",
"38 566 LINE",
"38 176 LINE SMOOTH",
"38 45 OFFCURVE",
"84 16 OFFCURVE",
"180 15 CURVE",
"156 -8 OFFCURVE",
"130 -36 OFFCURVE",
"130 -74 CURVE SMOOTH",
"130 -107 OFFCURVE",
"158 -130 OFFCURVE",
"198 -130 CURVE SMOOTH"
);
},
{
closed = 1;
nodes = (
"237 -156 OFFCURVE",
"270 -143 OFFCURVE",
"287 -123 CURVE",
"267 -45 LINE",
"258 -50 OFFCURVE",
"243 -59 OFFCURVE",
"231 -59 CURVE SMOOTH",
"224 -59 OFFCURVE",
"220 -56 OFFCURVE",
"220 -48 CURVE SMOOTH",
"220 -35 OFFCURVE",
"225 -23 OFFCURVE",
"235 -9 CURVE",
"327 3 OFFCURVE",
"365 57 OFFCURVE",
"365 176 CURVE SMOOTH",
"365 592 LINE",
"12 592 LINE",
"12 176 LINE SMOOTH",
"12 63 OFFCURVE",
"45 9 OFFCURVE",
"127 -6 CURVE",
"112 -29 OFFCURVE",
"104 -51 OFFCURVE",
"104 -74 CURVE SMOOTH",
"104 -122 OFFCURVE",
"144 -156 OFFCURVE",
"198 -156 CURVE SMOOTH"
);
},
{
closed = 1;
nodes = (
"154 -139 OFFCURVE",
"122 -112 OFFCURVE",
"122 -74 CURVE SMOOTH",
"122 -40.212 OFFCURVE",
"141.085 -13.62 OFFCURVE",
"161.294 7.636 CURVE",
"64.171 13.478 OFFCURVE",
"30 58.947 OFFCURVE",
"30 176 CURVE SMOOTH",
"30 574 LINE",
"182 574 LINE",
"182 129 LINE SMOOTH",
"182 116.941 OFFCURVE",
"184.099 113 OFFCURVE",
"188 113 CURVE SMOOTH",
"193.121 113 OFFCURVE",
"195 115.358 OFFCURVE",
"195 129 CURVE SMOOTH",
"195 574 LINE",
"347 574 LINE",
"347 176 LINE SMOOTH",
"347 63.289 OFFCURVE",
"314.406 16.984 OFFCURVE",
"227.471 8.293 CURVE",
"212 -10 OFFCURVE",
"202 -29 OFFCURVE",
"202 -51 CURVE SMOOTH",
"202 -67 OFFCURVE",
"212 -76 OFFCURVE",
"228 -76 CURVE SMOOTH",
"244 -76 OFFCURVE",
"253 -69 OFFCURVE",
"255 -69 CURVE",
"267 -121 LINE",
"257 -131 OFFCURVE",
"225 -139 OFFCURVE",
"201 -139 CURVE SMOOTH"
);
},
{
closed = 1;
nodes = (
"227 -131 OFFCURVE",
"251 -123 OFFCURVE",
"258 -118 CURVE",
"250 -80 LINE",
"246 -81 OFFCURVE",
"239 -84 OFFCURVE",
"228 -84 CURVE SMOOTH",
"211 -84 OFFCURVE",
"194 -75 OFFCURVE",
"194 -51 CURVE SMOOTH",
"194 -26 OFFCURVE",
"206 -3 OFFCURVE",
"224 16 CURVE",
"302 23 OFFCURVE",
"339 58 OFFCURVE",
"339 176 CURVE SMOOTH",
"339 566 LINE",
"203 566 LINE",
"203 129 LINE SMOOTH",
"203 114 OFFCURVE",
"200 105 OFFCURVE",
"188 105 CURVE SMOOTH",
"178 105 OFFCURVE",
"174 114 OFFCURVE",
"174 129 CURVE SMOOTH",
"174 566 LINE",
"38 566 LINE",
"38 176 LINE SMOOTH",
"38 45 OFFCURVE",
"84 16 OFFCURVE",
"180 15 CURVE",
"156 -8 OFFCURVE",
"130 -36 OFFCURVE",
"130 -74 CURVE SMOOTH",
"130 -108 OFFCURVE",
"158 -131 OFFCURVE",
"198 -131 CURVE SMOOTH"
);
}
);
};
layerId = "04A772B0-FA71-43EE-BB43-CAC7F0EBD631";
paths = (
{
closed = 1;
nodes = (
"237 -156 OFFCURVE",
"271 -141 OFFCURVE",
"287 -124 CURVE",
"267 -45 LINE",
"258 -50 OFFCURVE",
"243 -59 OFFCURVE",
"231 -59 CURVE SMOOTH",
"224 -59 OFFCURVE",
"220 -56 OFFCURVE",
"220 -48 CURVE SMOOTH",
"220 -35 OFFCURVE",
"225 -23 OFFCURVE",
"235 -9 CURVE",
"327 3 OFFCURVE",
"365 57 OFFCURVE",
"365 176 CURVE SMOOTH",
"365 592 LINE",
"12 592 LINE",
"12 176 LINE SMOOTH",
"12 63 OFFCURVE",
"45 9 OFFCURVE",
"127 -6 CURVE",
"112 -29 OFFCURVE",
"104 -51 OFFCURVE",
"104 -74 CURVE SMOOTH",
"104 -122 OFFCURVE",
"144 -156 OFFCURVE",
"198 -156 CURVE SMOOTH"
);
},
{
closed = 1;
nodes = (
"154 -139 OFFCURVE",
"122 -112 OFFCURVE",
"122 -74 CURVE SMOOTH",
"122 -40.212 OFFCURVE",
"141.085 -13.62 OFFCURVE",
"161.294 7.636 CURVE",
"64.171 13.478 OFFCURVE",
"30 58.947 OFFCURVE",
"30 176 CURVE SMOOTH",
"30 574 LINE",
"182 574 LINE",
"182 129 LINE SMOOTH",
"182 116.941 OFFCURVE",
"184.099 113 OFFCURVE",
"188 113 CURVE SMOOTH",
"193.121 113 OFFCURVE",
"195 115.358 OFFCURVE",
"195 129 CURVE SMOOTH",
"195 574 LINE",
"347 574 LINE",
"347 176 LINE SMOOTH",
"347 63.289 OFFCURVE",
"314.406 16.984 OFFCURVE",
"227.471 8.293 CURVE",
"212 -10 OFFCURVE",
"202 -29 OFFCURVE",
"202 -51 CURVE SMOOTH",
"202 -67 OFFCURVE",
"212 -76 OFFCURVE",
"228 -76 CURVE SMOOTH",
"244 -76 OFFCURVE",
"253 -69 OFFCURVE",
"255 -69 CURVE",
"267 -121 LINE",
"257 -131 OFFCURVE",
"225 -139 OFFCURVE",
"201 -139 CURVE SMOOTH"
);
},
{
closed = 1;
nodes = (
"227 -131 OFFCURVE",
"251 -123 OFFCURVE",
"258 -118 CURVE",
"250 -80 LINE",
"246 -81 OFFCURVE",
"239 -84 OFFCURVE",
"228 -84 CURVE SMOOTH",
"211 -84 OFFCURVE",
"194 -75 OFFCURVE",
"194 -51 CURVE SMOOTH",
"194 -26 OFFCURVE",
"206 -3 OFFCURVE",
"224 16 CURVE",
"302 23 OFFCURVE",
"339 58 OFFCURVE",
"339 176 CURVE SMOOTH",
"339 566 LINE",
"203 566 LINE",
"203 129 LINE SMOOTH",
"203 114 OFFCURVE",
"200 105 OFFCURVE",
"188 105 CURVE SMOOTH",
"178 105 OFFCURVE",
"174 114 OFFCURVE",
"174 129 CURVE SMOOTH",
"174 566 LINE",
"38 566 LINE",
"38 176 LINE SMOOTH",
"38 45 OFFCURVE",
"84 16 OFFCURVE",
"180 15 CURVE",
"156 -8 OFFCURVE",
"130 -36 OFFCURVE",
"130 -74 CURVE SMOOTH",
"130 -108 OFFCURVE",
"158 -131 OFFCURVE",
"198 -131 CURVE SMOOTH"
);
}
);
width = 376;
}
);
leftKerningGroup = U;
rightKerningGroup = U;
unicode = 0172;
},
{
glyphname = V;
lastChange = "2021-12-17 05:35:05 +0000";
layers = (
{
layerId = "04A772B0-FA71-43EE-BB43-CAC7F0EBD631";
paths = (
{
closed = 1;
nodes = (
"331 0 LINE",
"415 591 LINE",
"223 591 LINE",
"211 473 LINE",
"202 591 LINE",
"3 591 LINE",
"86 0 LINE"
);
},
{
closed = 1;
nodes = (
"23 573 LINE",
"185 573 LINE",
"211 275 LINE",
"238 573 LINE",
"395 573 LINE",
"316 18 LINE",
"101 18 LINE"
);
},
{
closed = 1;
nodes = (
"308 27 LINE",
"385 564 LINE",
"246 564 LINE",
"211 192 LINE",
"210 170 LINE",
"209 192 LINE",
"177 564 LINE",
"34 564 LINE",
"109 27 LINE"
);
}
);
userData = {
assembly = "SVTCA[0]	/* SetFreedomAndProjectionVectorToAxis */\012PUSHW[ ]	/* 1 value pushed */\0122 \012MDAP[1]	/* MoveDirectAbsPt */\012IUP[0]	/* InterpolateUntPts */\012IUP[1]	/* InterpolateUntPts */";
};
width = 418;
}
);
leftKerningGroup = V;
note = V;
rightKerningGroup = V;
unicode = 0056;
},
{
glyphname = W;
lastChange = "2021-12-17 05:35:05 +0000";
layers = (
{
anchors = (
{
name = bottom;
position = "{318, 0}";
},
{
name = top;
position = "{318, 591}";
}
);
layerId = "04A772B0-FA71-43EE-BB43-CAC7F0EBD631";
paths = (
{
closed = 1;
nodes = (
"306 0 LINE",
"317 76 LINE",
"329 0 LINE",
"546 0 LINE",
"633 591 LINE",
"426 591 LINE",
"425 575 OFFCURVE",
"423 556 OFFCURVE",
"420 535 CURVE SMOOTH",
"417 513 OFFCURVE",
"415 493 OFFCURVE",
"414 476 CURVE",
"403 591 LINE",
"231 591 LINE",
"221 483 LINE",
"210 591 LINE",
"3 591 LINE",
"89 0 LINE"
);
},
{
closed = 1;
nodes = (
"24 573 LINE",
"193 573 LINE",
"221 304 LINE",
"232 395 OFFCURVE",
"241 485 OFFCURVE",
"249 573 CURVE",
"386 573 LINE",
"413 304 LINE",
"418 349 OFFCURVE",
"423 395 OFFCURVE",
"428 440 CURVE SMOOTH",
"442 573 LINE",
"612 573 LINE",
"531 18 LINE",
"345 18 LINE",
"318 198 LINE",
"313 167 OFFCURVE",
"309 137 OFFCURVE",
"304 107 CURVE SMOOTH",
"291 18 LINE",
"105 18 LINE"
);
},
{
closed = 1;
nodes = (
"283 27 LINE",
"317 261 LINE",
"353 27 LINE",
"522 27 LINE",
"601 564 LINE",
"450 564 LINE",
"413 209 LINE",
"378 564 LINE",
"257 564 LINE",
"222 209 LINE",
"185 564 LINE",
"34 564 LINE",
"113 27 LINE"
);
}
);
userData = {
assembly = "SVTCA[0]	/* SetFreedomAndProjectionVectorToAxis */\012PUSHW[ ]	/* 1 value pushed */\0123 \012MDAP[1]	/* MoveDirectAbsPt */\012PUSHW[ ]	/* 1 value pushed */\0126 \012MDAP[1]	/* MoveDirectAbsPt */\012IUP[0]	/* InterpolateUntPts */\012IUP[1]	/* InterpolateUntPts */";
};
width = 636;
}
);
leftKerningGroup = W;
note = W;
rightKerningGroup = W;
unicode = 0057;
},
{
glyphname = X;
lastChange = "2021-12-17 05:35:05 +0000";
layers = (
{
layerId = "04A772B0-FA71-43EE-BB43-CAC7F0EBD631";
paths = (
{
closed = 1;
nodes = (
"205 0 LINE",
"208 11 OFFCURVE",
"210 21 OFFCURVE",
"211 33 CURVE",
"217 0 LINE",
"409 0 LINE",
"338 305 LINE",
"412 591 LINE",
"209 591 LINE",
"206 580 OFFCURVE",
"204 570 OFFCURVE",
"203 558 CURVE",
"196 591 LINE",
"3 591 LINE",
"12 554 OFFCURVE",
"30 489 OFFCURVE",
"41 449 CURVE SMOOTH",
"52 408 OFFCURVE",
"70 343 OFFCURVE",
"79 306 CURVE",
"2 0 LINE"
);
},
{
closed = 1;
nodes = (
"97 306 LINE",
"26 573 LINE",
"183 573 LINE",
"205 471 LINE",
"208 488 OFFCURVE",
"212 506 OFFCURVE",
"215 523 CURVE SMOOTH",
"224 573 LINE",
"389 573 LINE",
"321 306 LINE",
"388 18 LINE",
"231 18 LINE",
"209 120 LINE",
"202 85 OFFCURVE",
"196 51 OFFCURVE",
"191 18 CURVE",
"25 18 LINE"
);
},
{
closed = 1;
nodes = (
"183 27 LINE",
"208 167 LINE",
"238 27 LINE",
"376 27 LINE",
"311 306 LINE",
"378 564 LINE",
"231 564 LINE",
"206 423 LINE",
"176 564 LINE",
"38 564 LINE",
"106 306 LINE",
"36 27 LINE"
);
}
);
userData = {
assembly = "SVTCA[0]	/* SetFreedomAndProjectionVectorToAxis */\012PUSHW[ ]	/* 1 value pushed */\0121 \012MDAP[1]	/* MoveDirectAbsPt */\012PUSHW[ ]	/* 1 value pushed */\01210 \012MDAP[1]	/* MoveDirectAbsPt */\012PUSHW[ ]	/* 1 value pushed */\01228 \012MDAP[1]	/* MoveDirectAbsPt */\012PUSHW[ ]	/* 1 value pushed */\0124 \012MDAP[1]	/* MoveDirectAbsPt */\012PUSHW[ ]	/* 1 value pushed */\0127 \012MDAP[1]	/* MoveDirectAbsPt */\012PUSHW[ ]	/* 1 value pushed */\01240 \012MDAP[1]	/* MoveDirectAbsPt */\012PUSHW[ ]	/* 3 values pushed */\0120 1 4 \012SRP1[ ]	/* SetRefPoint1 */\012SRP2[ ]	/* SetRefPoint2 */\012IP[ ]	/* InterpolatePts */\012PUSHW[ ]	/* 3 values pushed */\0126 1 4 \012SRP1[ ]	/* SetRefPoint1 */\012SRP2[ ]	/* SetRefPoint2 */\012IP[ ]	/* InterpolatePts */\012PUSHW[ ]	/* 3 values pushed */\01219 1 4 \012SRP1[ ]	/* SetRefPoint1 */\012SRP2[ ]	/* SetRefPoint2 */\012IP[ ]	/* InterpolatePts */\012PUSHW[ ]	/* 3 values pushed */\01227 1 4 \012SRP1[ ]	/* SetRefPoint1 */\012SRP2[ ]	/* SetRefPoint2 */\012IP[ ]	/* InterpolatePts */\012IUP[0]	/* InterpolateUntPts */\012IUP[1]	/* InterpolateUntPts */";
};
width = 414;
}
);
leftKerningGroup = X;
note = X;
rightKerningGroup = X;
unicode = 0058;
},
{
glyphname = Y;
lastChange = "2021-12-17 05:35:05 +0000";
layers = (
{
anchors = (
{
name = bottom;
position = "{201, 0}";
},
{
name = top;
position = "{209, 591}";
},
{
name = topleft;
position = "{17, 591}";
}
);
layerId = "04A772B0-FA71-43EE-BB43-CAC7F0EBD631";
paths = (
{
closed = 1;
nodes = (
"297 0 LINE",
"297 236 LINE",
"406 591 LINE",
"225 591 LINE",
"209 527 LINE",
"193 591 LINE",
"1 591 LINE",
"108 244 LINE",
"108 0 LINE"
);
},
{
closed = 1;
nodes = (
"125 247 LINE",
"25 573 LINE",
"180 573 LINE",
"209 456 LINE",
"238 573 LINE",
"382 573 LINE",
"280 239 LINE",
"280 18 LINE",
"125 18 LINE"
);
},
{
closed = 1;
nodes = (
"271 27 LINE",
"271 241 LINE",
"370 564 LINE",
"245 564 LINE",
"217 451 LINE",
"209 404 LINE",
"201 451 LINE",
"173 564 LINE",
"38 564 LINE",
"134 250 LINE",
"134 27 LINE"
);
}
);
userData = {
assembly = "PUSHW[ ]	/* 4 values pushed */\0122 6 3 4 \012CALL[ ]	/* CallFunction */\012PUSHW[ ]	/* 3 values pushed */\0128 3 2 \012SRP1[ ]	/* SetRefPoint1 */\012SRP2[ ]	/* SetRefPoint2 */\012IP[ ]	/* InterpolatePts */\012PUSHW[ ]	/* 3 values pushed */\01212 3 2 \012SRP1[ ]	/* SetRefPoint1 */\012SRP2[ ]	/* SetRefPoint2 */\012IP[ ]	/* InterpolatePts */\012PUSHW[ ]	/* 3 values pushed */\01227 3 2 \012SRP1[ ]	/* SetRefPoint1 */\012SRP2[ ]	/* SetRefPoint2 */\012IP[ ]	/* InterpolatePts */\012SVTCA[0]	/* SetFreedomAndProjectionVectorToAxis */\012PUSHW[ ]	/* 1 value pushed */\0122 \012MDAP[1]	/* MoveDirectAbsPt */\012IUP[0]	/* InterpolateUntPts */\012IUP[1]	/* InterpolateUntPts */";
};
width = 407;
}
);
leftKerningGroup = Y;
note = Y;
rightKerningGroup = Y;
unicode = 0059;
},
{
glyphname = Z;
lastChange = "2021-12-17 05:35:05 +0000";
layers = (
{
anchors = (
{
name = bottom;
position = "{148, 0}";
},
{
name = center;
position = "{148, 296}";
},
{
name = top;
position = "{148, 591}";
}
);
layerId = "04A772B0-FA71-43EE-BB43-CAC7F0EBD631";
paths = (
{
closed = 1;
nodes = (
"292 0 LINE",
"292 155 LINE",
"205 155 LINE",
"292 492 LINE",
"292 591 LINE",
"13 591 LINE",
"13 436 LINE",
"85 436 LINE",
"4 120 LINE",
"4 0 LINE"
);
},
{
closed = 1;
nodes = (
"21 119 LINE",
"107 454 LINE",
"29 454 LINE",
"29 573 LINE",
"276 573 LINE",
"276 493 LINE",
"183 137 LINE",
"276 137 LINE",
"276 18 LINE",
"21 18 LINE"
);
},
{
closed = 1;
nodes = (
"267 27 LINE",
"267 128 LINE",
"172 128 LINE",
"267 496 LINE",
"267 564 LINE",
"37 564 LINE",
"37 463 LINE",
"118 463 LINE",
"29 116 LINE",
"29 27 LINE"
);
}
);
userData = {
assembly = "PUSHW[ ]	/* 4 values pushed */\01210 5 20 4 \012CALL[ ]	/* CallFunction */\012PUSHW[ ]	/* 3 values pushed */\01212 20 10 \012SRP1[ ]	/* SetRefPoint1 */\012SRP2[ ]	/* SetRefPoint2 */\012IP[ ]	/* InterpolatePts */\012PUSHW[ ]	/* 1 value pushed */\01210 \012SRP0[ ]	/* SetRefPoint0 */\012PUSHW[ ]	/* 1 value pushed */\01213 \012MDRP[10000]	/* MoveDirectRelPt */\012PUSHW[ ]	/* 1 value pushed */\01211 \012SRP0[ ]	/* SetRefPoint0 */\012PUSHW[ ]	/* 1 value pushed */\01214 \012MDRP[10000]	/* MoveDirectRelPt */\012PUSHW[ ]	/* 1 value pushed */\01210 \012SRP0[ ]	/* SetRefPoint0 */\012PUSHW[ ]	/* 2 values pushed */\01218 5 \012MIRP[10100]	/* MoveIndirectRelPt */\012PUSHW[ ]	/* 1 value pushed */\01210 \012SRP0[ ]	/* SetRefPoint0 */\012PUSHW[ ]	/* 1 value pushed */\01231 \012MDRP[11100]	/* MoveDirectRelPt */\012SVTCA[0]	/* SetFreedomAndProjectionVectorToAxis */\012PUSHW[ ]	/* 4 values pushed */\0127 3 9 4 \012CALL[ ]	/* CallFunction */\012IUP[0]	/* InterpolateUntPts */\012IUP[1]	/* InterpolateUntPts */";
};
width = 296;
}
);
leftKerningGroup = Z;
note = Z;
rightKerningGroup = Z;
unicode = 005A;
},
{
color = 4;
glyphname = A.ss01;
lastChange = "2021-12-07 22:40:27 +0000";
layers = (
{
anchors = (
{
name = bottom;
position = "{222, 0}";
},
{
name = ogonek;
position = "{397, 0}";
},
{
name = top;
position = "{223, 495}";
}
);
layerId = "04A772B0-FA71-43EE-BB43-CAC7F0EBD631";
paths = (
{
closed = 1;
nodes = (
"399 0 LINE",
"332 496 LINE",
"120 496 LINE",
"51 0 LINE"
);
},
{
closed = 1;
nodes = (
"227 158 LINE",
"222 228 LINE",
"218 158 LINE"
);
},
{
closed = 1;
nodes = (
"135 478 LINE",
"317 478 LINE",
"379 18 LINE",
"233 18 LINE",
"228 82 LINE",
"218 82 LINE",
"217 72 OFFCURVE",
"217 61 OFFCURVE",
"216 50 CURVE SMOOTH",
"214 18 LINE",
"71 18 LINE"
);
},
{
closed = 1;
nodes = (
"205 27 LINE",
"210 91 LINE",
"236 91 LINE",
"241 27 LINE",
"369 27 LINE",
"310 469 LINE",
"142 469 LINE",
"81 27 LINE"
);
},
{
closed = 1;
nodes = (
"223 376 LINE",
"236 149 LINE",
"210 149 LINE"
);
}
);
userData = {
assembly = "PUSHW[ ]	/* 3 values pushed */\01224 5 3 \012CALL[ ]	/* CallFunction */\012PUSHW[ ]	/* 1 value pushed */\0125 \012SRP0[ ]	/* SetRefPoint0 */\012PUSHW[ ]	/* 1 value pushed */\0128 \012MDRP[10000]	/* MoveDirectRelPt */\012PUSHW[ ]	/* 1 value pushed */\0128 \012MDAP[1]	/* MoveDirectAbsPt */\012PUSHW[ ]	/* 1 value pushed */\01224 \012SRP0[ ]	/* SetRefPoint0 */\012PUSHW[ ]	/* 1 value pushed */\01210 \012MDRP[10000]	/* MoveDirectRelPt */\012PUSHW[ ]	/* 1 value pushed */\01210 \012MDAP[1]	/* MoveDirectAbsPt */\012PUSHW[ ]	/* 1 value pushed */\01224 \012SRP0[ ]	/* SetRefPoint0 */\012PUSHW[ ]	/* 1 value pushed */\01211 \012MDRP[10000]	/* MoveDirectRelPt */\012PUSHW[ ]	/* 1 value pushed */\01211 \012MDAP[1]	/* MoveDirectAbsPt */\012PUSHW[ ]	/* 1 value pushed */\01224 \012SRP0[ ]	/* SetRefPoint0 */\012PUSHW[ ]	/* 1 value pushed */\01216 \012MDRP[10000]	/* MoveDirectRelPt */\012PUSHW[ ]	/* 1 value pushed */\01216 \012MDAP[1]	/* MoveDirectAbsPt */\012SVTCA[0]	/* SetFreedomAndProjectionVectorToAxis */\012PUSHW[ ]	/* 1 value pushed */\0120 \012RCVT[ ]	/* ReadCVT */\012IF[ ]	/* If */\012PUSHW[ ]	/* 1 value pushed */\01228 \012MDAP[1]	/* MoveDirectAbsPt */\012ELSE[ ]	/* Else */\012PUSHW[ ]	/* 2 values pushed */\01228 11 \012MIAP[0]	/* MoveIndirectAbsPt */\012EIF[ ]	/* EndIf */\012PUSHW[ ]	/* 1 value pushed */\0120 \012RCVT[ ]	/* ReadCVT */\012IF[ ]	/* If */\012PUSHW[ ]	/* 1 value pushed */\01229 \012MDAP[1]	/* MoveDirectAbsPt */\012ELSE[ ]	/* Else */\012PUSHW[ ]	/* 2 values pushed */\01229 7 \012MIAP[0]	/* MoveIndirectAbsPt */\012EIF[ ]	/* EndIf */\012PUSHW[ ]	/* 3 values pushed */\01210 29 28 \012SRP1[ ]	/* SetRefPoint1 */\012SRP2[ ]	/* SetRefPoint2 */\012IP[ ]	/* InterpolatePts */\012PUSHW[ ]	/* 3 values pushed */\01211 29 28 \012SRP1[ ]	/* SetRefPoint1 */\012SRP2[ ]	/* SetRefPoint2 */\012IP[ ]	/* InterpolatePts */\012IUP[0]	/* InterpolateUntPts */\012IUP[1]	/* InterpolateUntPts */";
};
width = 450;
}
);
note = A.tabular;
},
{
color = 4;
glyphname = AE.ss01;
lastChange = "2021-12-07 22:40:27 +0000";
layers = (
{
layerId = "04A772B0-FA71-43EE-BB43-CAC7F0EBD631";
paths = (
{
closed = 1;
nodes = (
"441 0 LINE",
"441 135 LINE",
"347 135 LINE",
"344 155 OFFCURVE",
"343 165 OFFCURVE",
"340 180 CURVE",
"434 180 LINE",
"434 327 LINE",
"321 327 LINE",
"320 334 OFFCURVE",
"319 341 OFFCURVE",
"318 346 CURVE SMOOTH",
"316 360 LINE",
"441 360 LINE",
"441 496 LINE",
"78 496 LINE",
"8 0 LINE"
);
},
{
closed = 1;
nodes = (
"189 158 LINE",
"184 230 LINE",
"180 158 LINE"
);
},
{
closed = 1;
nodes = (
"183 357 LINE",
"184 376 LINE",
"185 357 LINE",
"197 149 LINE",
"171 149 LINE"
);
},
{
closed = 1;
nodes = (
"93 478 LINE",
"424 478 LINE",
"424 377 LINE",
"295 377 LINE",
"296 366 OFFCURVE",
"298 355 OFFCURVE",
"300 344 CURVE SMOOTH",
"302 333 OFFCURVE",
"304 322 OFFCURVE",
"305 310 CURVE",
"417 310 LINE",
"417 198 LINE",
"320 198 LINE",
"322 184 OFFCURVE",
"324 171 OFFCURVE",
"326 158 CURVE SMOOTH",
"332 117 LINE",
"424 117 LINE",
"424 18 LINE",
"196 18 LINE",
"189 82 LINE",
"179 82 LINE",
"178 72 OFFCURVE",
"178 61 OFFCURVE",
"177 50 CURVE SMOOTH",
"174 18 LINE",
"28 18 LINE"
);
},
{
closed = 1;
nodes = (
"166 27 LINE",
"170 91 LINE",
"197 91 LINE",
"203 27 LINE",
"415 27 LINE",
"415 108 LINE",
"324 108 LINE",
"310 207 LINE",
"408 207 LINE",
"408 301 LINE",
"297 301 LINE",
"285 386 LINE",
"415 386 LINE",
"415 469 LINE",
"101 469 LINE",
"38 27 LINE"
);
}
);
userData = {
assembly = "PUSHW[ ]	/* 4 values pushed */\01231 5 44 4 \012CALL[ ]	/* CallFunction */\012PUSHW[ ]	/* 1 value pushed */\01231 \012SRP0[ ]	/* SetRefPoint0 */\012PUSHW[ ]	/* 1 value pushed */\0125 \012MDRP[10000]	/* MoveDirectRelPt */\012PUSHW[ ]	/* 1 value pushed */\0125 \012MDAP[1]	/* MoveDirectAbsPt */\012PUSHW[ ]	/* 1 value pushed */\01210 \012SRP0[ ]	/* SetRefPoint0 */\012PUSHW[ ]	/* 1 value pushed */\0126 \012MDRP[10000]	/* MoveDirectRelPt */\012PUSHW[ ]	/* 1 value pushed */\0126 \012MDAP[1]	/* MoveDirectAbsPt */\012PUSHW[ ]	/* 1 value pushed */\01231 \012SRP0[ ]	/* SetRefPoint0 */\012PUSHW[ ]	/* 1 value pushed */\01213 \012MDRP[10000]	/* MoveDirectRelPt */\012PUSHW[ ]	/* 1 value pushed */\01213 \012MDAP[1]	/* MoveDirectAbsPt */\012PUSHW[ ]	/* 1 value pushed */\01210 \012SRP0[ ]	/* SetRefPoint0 */\012PUSHW[ ]	/* 1 value pushed */\01214 \012MDRP[10000]	/* MoveDirectRelPt */\012PUSHW[ ]	/* 1 value pushed */\01214 \012MDAP[1]	/* MoveDirectAbsPt */\012PUSHW[ ]	/* 1 value pushed */\01244 \012SRP0[ ]	/* SetRefPoint0 */\012PUSHW[ ]	/* 1 value pushed */\01218 \012MDRP[10000]	/* MoveDirectRelPt */\012PUSHW[ ]	/* 1 value pushed */\01218 \012MDAP[1]	/* MoveDirectAbsPt */\012PUSHW[ ]	/* 1 value pushed */\0125 \012SRP0[ ]	/* SetRefPoint0 */\012PUSHW[ ]	/* 2 values pushed */\01221 5 \012MIRP[10100]	/* MoveIndirectRelPt */\012PUSHW[ ]	/* 1 value pushed */\01219 \012MDRP[10000]	/* MoveDirectRelPt */\012PUSHW[ ]	/* 1 value pushed */\01219 \012MDAP[1]	/* MoveDirectAbsPt */\012PUSHW[ ]	/* 1 value pushed */\01244 \012SRP0[ ]	/* SetRefPoint0 */\012PUSHW[ ]	/* 1 value pushed */\01220 \012MDRP[10000]	/* MoveDirectRelPt */\012PUSHW[ ]	/* 1 value pushed */\01220 \012MDAP[1]	/* MoveDirectAbsPt */\012PUSHW[ ]	/* 1 value pushed */\01244 \012SRP0[ ]	/* SetRefPoint0 */\012PUSHW[ ]	/* 1 value pushed */\01222 \012MDRP[10000]	/* MoveDirectRelPt */\012PUSHW[ ]	/* 1 value pushed */\01222 \012MDAP[1]	/* MoveDirectAbsPt */\012PUSHW[ ]	/* 3 values pushed */\01223 44 31 \012SRP1[ ]	/* SetRefPoint1 */\012SRP2[ ]	/* SetRefPoint2 */\012IP[ ]	/* InterpolatePts */\012PUSHW[ ]	/* 1 value pushed */\01221 \012SRP0[ ]	/* SetRefPoint0 */\012PUSHW[ ]	/* 1 value pushed */\01224 \012MDRP[10000]	/* MoveDirectRelPt */\012PUSHW[ ]	/* 1 value pushed */\01224 \012MDAP[1]	/* MoveDirectAbsPt */\012PUSHW[ ]	/* 1 value pushed */\01231 \012SRP0[ ]	/* SetRefPoint0 */\012PUSHW[ ]	/* 1 value pushed */\01225 \012MDRP[10000]	/* MoveDirectRelPt */\012PUSHW[ ]	/* 1 value pushed */\01225 \012MDAP[1]	/* MoveDirectAbsPt */\012PUSHW[ ]	/* 1 value pushed */\01231 \012SRP0[ ]	/* SetRefPoint0 */\012PUSHW[ ]	/* 1 value pushed */\01237 \012MDRP[10000]	/* MoveDirectRelPt */\012PUSHW[ ]	/* 1 value pushed */\01237 \012MDAP[1]	/* MoveDirectAbsPt */\012PUSHW[ ]	/* 1 value pushed */\01244 \012SRP0[ ]	/* SetRefPoint0 */\012PUSHW[ ]	/* 1 value pushed */\01241 \012MDRP[10000]	/* MoveDirectRelPt */\012PUSHW[ ]	/* 1 value pushed */\01241 \012MDAP[1]	/* MoveDirectAbsPt */\012PUSHW[ ]	/* 1 value pushed */\01218 \012SRP0[ ]	/* SetRefPoint0 */\012PUSHW[ ]	/* 2 values pushed */\01254 5 \012MIRP[10100]	/* MoveIndirectRelPt */\012PUSHW[ ]	/* 1 value pushed */\01247 \012MDRP[10000]	/* MoveDirectRelPt */\012PUSHW[ ]	/* 1 value pushed */\01247 \012MDAP[1]	/* MoveDirectAbsPt */\012PUSHW[ ]	/* 1 value pushed */\01254 \012SRP0[ ]	/* SetRefPoint0 */\012PUSHW[ ]	/* 1 value pushed */\01259 \012MDRP[10000]	/* MoveDirectRelPt */\012PUSHW[ ]	/* 1 value pushed */\01259 \012MDAP[1]	/* MoveDirectAbsPt */\012SVTCA[0]	/* SetFreedomAndProjectionVectorToAxis */\012PUSHW[ ]	/* 1 value pushed */\0120 \012RCVT[ ]	/* ReadCVT */\012IF[ ]	/* If */\012PUSHW[ ]	/* 1 value pushed */\01246 \012MDAP[1]	/* MoveDirectAbsPt */\012ELSE[ ]	/* Else */\012PUSHW[ ]	/* 2 values pushed */\01246 11 \012MIAP[0]	/* MoveIndirectAbsPt */\012EIF[ ]	/* EndIf */\012PUSHW[ ]	/* 1 value pushed */\0120 \012RCVT[ ]	/* ReadCVT */\012IF[ ]	/* If */\012PUSHW[ ]	/* 1 value pushed */\01260 \012MDAP[1]	/* MoveDirectAbsPt */\012ELSE[ ]	/* Else */\012PUSHW[ ]	/* 2 values pushed */\01260 7 \012MIAP[0]	/* MoveIndirectAbsPt */\012EIF[ ]	/* EndIf */\012PUSHW[ ]	/* 4 values pushed */\01258 4 14 4 \012CALL[ ]	/* CallFunction */\012PUSHW[ ]	/* 4 values pushed */\01231 2 26 4 \012CALL[ ]	/* CallFunction */\012PUSHW[ ]	/* 4 values pushed */\0129 4 54 4 \012CALL[ ]	/* CallFunction */\012PUSHW[ ]	/* 4 values pushed */\01237 2 32 4 \012CALL[ ]	/* CallFunction */\012PUSHW[ ]	/* 1 value pushed */\01214 \012SRP0[ ]	/* SetRefPoint0 */\012PUSHW[ ]	/* 1 value pushed */\0122 \012MDRP[10000]	/* MoveDirectRelPt */\012PUSHW[ ]	/* 1 value pushed */\01246 \012SRP0[ ]	/* SetRefPoint0 */\012PUSHW[ ]	/* 2 values pushed */\0126 4 \012MIRP[10100]	/* MoveIndirectRelPt */\012PUSHW[ ]	/* 2 values pushed */\0125 2 \012MIRP[10100]	/* MoveIndirectRelPt */\012PUSHW[ ]	/* 1 value pushed */\0129 \012SRP0[ ]	/* SetRefPoint0 */\012PUSHW[ ]	/* 2 values pushed */\01210 1 \012MIRP[10100]	/* MoveIndirectRelPt */\012PUSHW[ ]	/* 1 value pushed */\01260 \012SRP0[ ]	/* SetRefPoint0 */\012PUSHW[ ]	/* 2 values pushed */\01212 4 \012MIRP[10100]	/* MoveIndirectRelPt */\012PUSHW[ ]	/* 1 value pushed */\0125 \012SRP0[ ]	/* SetRefPoint0 */\012PUSHW[ ]	/* 2 values pushed */\01248 4 \012MIRP[10100]	/* MoveIndirectRelPt */\012PUSHW[ ]	/* 3 values pushed */\01219 5 48 \012SRP1[ ]	/* SetRefPoint1 */\012SRP2[ ]	/* SetRefPoint2 */\012IP[ ]	/* InterpolatePts */\012PUSHW[ ]	/* 3 values pushed */\01223 54 9 \012SRP1[ ]	/* SetRefPoint1 */\012SRP2[ ]	/* SetRefPoint2 */\012IP[ ]	/* InterpolatePts */\012PUSHW[ ]	/* 1 value pushed */\01210 \012SRP0[ ]	/* SetRefPoint0 */\012PUSHW[ ]	/* 2 values pushed */\01253 4 \012MIRP[10100]	/* MoveIndirectRelPt */\012IUP[0]	/* InterpolateUntPts */\012IUP[1]	/* InterpolateUntPts */";
};
width = 450;
}
);
note = AE.tabular;
},
{
color = 4;
glyphname = B.ss01;
lastChange = "2021-12-07 22:40:27 +0000";
layers = (
{
layerId = "04A772B0-FA71-43EE-BB43-CAC7F0EBD631";
paths = (
{
closed = 1;
nodes = (
"263 0 LINE SMOOTH",
"344 0 OFFCURVE",
"393 29 OFFCURVE",
"393 120 CURVE SMOOTH",
"393 178 LINE SMOOTH",
"393 218 OFFCURVE",
"378 250 OFFCURVE",
"359 269 CURVE",
"375 288 OFFCURVE",
"383 317 OFFCURVE",
"383 346 CURVE SMOOTH",
"383 394 LINE SMOOTH",
"383 454 OFFCURVE",
"350 496 OFFCURVE",
"270 496 CURVE SMOOTH",
"81 496 LINE",
"81 0 LINE"
);
},
{
closed = 1;
nodes = (
"223 213 LINE",
"234 213 LINE SMOOTH",
"240 213 OFFCURVE",
"244 207 OFFCURVE",
"245 195 CURVE SMOOTH",
"246 183 OFFCURVE",
"246 168 OFFCURVE",
"246 151 CURVE SMOOTH",
"246 133 OFFCURVE",
"245 118 OFFCURVE",
"244 106 CURVE SMOOTH",
"243 93 OFFCURVE",
"239 87 OFFCURVE",
"234 87 CURVE SMOOTH",
"223 87 LINE"
);
},
{
closed = 1;
nodes = (
"234 96 LINE SMOOTH",
"235 96 OFFCURVE",
"236 101 OFFCURVE",
"237 112 CURVE SMOOTH",
"238 123 OFFCURVE",
"238 136 OFFCURVE",
"238 151 CURVE SMOOTH",
"238 189 LINE SMOOTH",
"237 199 OFFCURVE",
"236 204 OFFCURVE",
"234 204 CURVE SMOOTH",
"231 204 LINE",
"231 96 LINE"
);
},
{
closed = 1;
nodes = (
"98 478 LINE",
"270 478 LINE SMOOTH",
"338 478 OFFCURVE",
"366 443 OFFCURVE",
"366 394 CURVE SMOOTH",
"366 346 LINE SMOOTH",
"366 311 OFFCURVE",
"356 282 OFFCURVE",
"329 266 CURVE",
"358 254 OFFCURVE",
"376 226 OFFCURVE",
"376 178 CURVE SMOOTH",
"376 120 LINE SMOOTH",
"376 41 OFFCURVE",
"332 18 OFFCURVE",
"263 18 CURVE SMOOTH",
"98 18 LINE"
);
},
{
closed = 1;
nodes = (
"263 27 LINE SMOOTH",
"328 27 OFFCURVE",
"368 49 OFFCURVE",
"368 120 CURVE SMOOTH",
"368 178 LINE SMOOTH",
"368 237 OFFCURVE",
"336 263 OFFCURVE",
"296 263 CURVE",
"296 265 LINE",
"340 270 OFFCURVE",
"358 303 OFFCURVE",
"358 346 CURVE SMOOTH",
"358 394 LINE SMOOTH",
"358 438 OFFCURVE",
"333 469 OFFCURVE",
"270 469 CURVE SMOOTH",
"106 469 LINE",
"106 27 LINE"
);
},
{
closed = 1;
nodes = (
"223 407 LINE",
"234 407 LINE SMOOTH",
"240 407 OFFCURVE",
"244 401 OFFCURVE",
"245 390 CURVE SMOOTH",
"246 378 OFFCURVE",
"246 364 OFFCURVE",
"246 347 CURVE SMOOTH",
"246 330 OFFCURVE",
"245 316 OFFCURVE",
"243 305 CURVE SMOOTH",
"240 293 OFFCURVE",
"237 287 OFFCURVE",
"232 287 CURVE SMOOTH",
"223 287 LINE"
);
},
{
closed = 1;
nodes = (
"232 296 LINE SMOOTH",
"234 296 OFFCURVE",
"236 301 OFFCURVE",
"237 311 CURVE SMOOTH",
"238 321 OFFCURVE",
"238 333 OFFCURVE",
"238 347 CURVE SMOOTH",
"238 383 LINE SMOOTH",
"237 393 OFFCURVE",
"236 398 OFFCURVE",
"234 398 CURVE SMOOTH",
"231 398 LINE",
"231 296 LINE"
);
}
);
userData = {
assembly = "PUSHW[ ]	/* 4 values pushed */\01235 6 71 4 \012CALL[ ]	/* CallFunction */\012PUSHW[ ]	/* 4 values pushed */\01212 6 45 4 \012CALL[ ]	/* CallFunction */\012PUSHW[ ]	/* 1 value pushed */\01235 \012SRP0[ ]	/* SetRefPoint0 */\012PUSHW[ ]	/* 2 values pushed */\0120 6 \012MIRP[10100]	/* MoveIndirectRelPt */\012PUSHW[ ]	/* 3 values pushed */\0129 45 12 \012SRP1[ ]	/* SetRefPoint1 */\012SRP2[ ]	/* SetRefPoint2 */\012IP[ ]	/* InterpolatePts */\012PUSHW[ ]	/* 1 value pushed */\01235 \012SRP0[ ]	/* SetRefPoint0 */\012PUSHW[ ]	/* 1 value pushed */\01218 \012MDRP[10000]	/* MoveDirectRelPt */\012PUSHW[ ]	/* 1 value pushed */\01212 \012SRP0[ ]	/* SetRefPoint0 */\012PUSHW[ ]	/* 2 values pushed */\01222 6 \012MIRP[10100]	/* MoveIndirectRelPt */\012PUSHW[ ]	/* 1 value pushed */\01231 \012MDRP[10000]	/* MoveDirectRelPt */\012PUSHW[ ]	/* 1 value pushed */\01245 \012SRP0[ ]	/* SetRefPoint0 */\012PUSHW[ ]	/* 1 value pushed */\01236 \012MDRP[10000]	/* MoveDirectRelPt */\012PUSHW[ ]	/* 1 value pushed */\01245 \012SRP0[ ]	/* SetRefPoint0 */\012PUSHW[ ]	/* 1 value pushed */\01240 \012MDRP[10000]	/* MoveDirectRelPt */\012PUSHW[ ]	/* 1 value pushed */\01240 \012MDAP[1]	/* MoveDirectAbsPt */\012PUSHW[ ]	/* 1 value pushed */\01212 \012SRP0[ ]	/* SetRefPoint0 */\012PUSHW[ ]	/* 1 value pushed */\01282 \012MDRP[11100]	/* MoveDirectRelPt */\012PUSHW[ ]	/* 3 values pushed */\01244 71 82 \012SRP1[ ]	/* SetRefPoint1 */\012SRP2[ ]	/* SetRefPoint2 */\012IP[ ]	/* InterpolatePts */\012PUSHW[ ]	/* 1 value pushed */\01245 \012SRP0[ ]	/* SetRefPoint0 */\012PUSHW[ ]	/* 1 value pushed */\01249 \012MDRP[10000]	/* MoveDirectRelPt */\012PUSHW[ ]	/* 1 value pushed */\01249 \012MDAP[1]	/* MoveDirectAbsPt */\012PUSHW[ ]	/* 3 values pushed */\01262 45 12 \012SRP1[ ]	/* SetRefPoint1 */\012SRP2[ ]	/* SetRefPoint2 */\012IP[ ]	/* InterpolatePts */\012PUSHW[ ]	/* 1 value pushed */\01212 \012SRP0[ ]	/* SetRefPoint0 */\012PUSHW[ ]	/* 1 value pushed */\01265 \012MDRP[10000]	/* MoveDirectRelPt */\012PUSHW[ ]	/* 1 value pushed */\01265 \012MDAP[1]	/* MoveDirectAbsPt */\012PUSHW[ ]	/* 1 value pushed */\01212 \012SRP0[ ]	/* SetRefPoint0 */\012PUSHW[ ]	/* 1 value pushed */\01289 \012MDRP[11100]	/* MoveDirectRelPt */\012SVTCA[0]	/* SetFreedomAndProjectionVectorToAxis */\012PUSHW[ ]	/* 1 value pushed */\0120 \012RCVT[ ]	/* ReadCVT */\012IF[ ]	/* If */\012PUSHW[ ]	/* 1 value pushed */\01271 \012MDAP[1]	/* MoveDirectAbsPt */\012ELSE[ ]	/* Else */\012PUSHW[ ]	/* 2 values pushed */\01271 11 \012MIAP[0]	/* MoveIndirectAbsPt */\012EIF[ ]	/* EndIf */\012PUSHW[ ]	/* 1 value pushed */\0120 \012RCVT[ ]	/* ReadCVT */\012IF[ ]	/* If */\012PUSHW[ ]	/* 1 value pushed */\01286 \012MDAP[1]	/* MoveDirectAbsPt */\012ELSE[ ]	/* Else */\012PUSHW[ ]	/* 2 values pushed */\01286 7 \012MIAP[0]	/* MoveIndirectAbsPt */\012EIF[ ]	/* EndIf */\012PUSHW[ ]	/* 3 values pushed */\0129 86 71 \012SRP1[ ]	/* SetRefPoint1 */\012SRP2[ ]	/* SetRefPoint2 */\012IP[ ]	/* InterpolatePts */\012PUSHW[ ]	/* 3 values pushed */\01244 86 71 \012SRP1[ ]	/* SetRefPoint1 */\012SRP2[ ]	/* SetRefPoint2 */\012IP[ ]	/* InterpolatePts */\012PUSHW[ ]	/* 3 values pushed */\01253 86 71 \012SRP1[ ]	/* SetRefPoint1 */\012SRP2[ ]	/* SetRefPoint2 */\012IP[ ]	/* InterpolatePts */\012PUSHW[ ]	/* 3 values pushed */\01262 86 71 \012SRP1[ ]	/* SetRefPoint1 */\012SRP2[ ]	/* SetRefPoint2 */\012IP[ ]	/* InterpolatePts */\012IUP[0]	/* InterpolateUntPts */\012IUP[1]	/* InterpolateUntPts */";
};
width = 450;
}
);
note = B.tabular;
},
{
color = 4;
glyphname = C.ss01;
lastChange = "2021-12-07 22:40:27 +0000";
layers = (
{
layerId = "04A772B0-FA71-43EE-BB43-CAC7F0EBD631";
paths = (
{
closed = 1;
nodes = (
"331 -9 OFFCURVE",
"375 25 OFFCURVE",
"375 158 CURVE SMOOTH",
"375 240 LINE",
"241 240 LINE",
"241 246 LINE",
"375 246 LINE",
"375 377 LINE SMOOTH",
"375 472 OFFCURVE",
"320 505 OFFCURVE",
"228 505 CURVE SMOOTH",
"136 505 OFFCURVE",
"75 470 OFFCURVE",
"75 377 CURVE SMOOTH",
"75 157 LINE SMOOTH",
"75 25 OFFCURVE",
"125 -9 OFFCURVE",
"228 -9 CURVE SMOOTH"
);
},
{
closed = 1;
nodes = (
"135 9 OFFCURVE",
"92 40 OFFCURVE",
"92 157 CURVE SMOOTH",
"92 377 LINE SMOOTH",
"92 458 OFFCURVE",
"145 487 OFFCURVE",
"228 487 CURVE SMOOTH",
"309 487 OFFCURVE",
"359 458 OFFCURVE",
"359 377 CURVE SMOOTH",
"359 264 LINE",
"230 264 LINE",
"230 382 LINE SMOOTH",
"230 392 OFFCURVE",
"229 397 OFFCURVE",
"228 397 CURVE SMOOTH",
"226 397 OFFCURVE",
"225 392 OFFCURVE",
"225 382 CURVE SMOOTH",
"225 109 LINE SMOOTH",
"225 100 OFFCURVE",
"226 96 OFFCURVE",
"228 96 CURVE SMOOTH",
"229 96 OFFCURVE",
"230 100 OFFCURVE",
"230 109 CURVE SMOOTH",
"230 222 LINE",
"359 222 LINE",
"359 158 LINE SMOOTH",
"359 40 OFFCURVE",
"319 9 OFFCURVE",
"228 9 CURVE SMOOTH"
);
},
{
closed = 1;
nodes = (
"313 18 OFFCURVE",
"350 46 OFFCURVE",
"350 158 CURVE SMOOTH",
"350 213 LINE",
"239 213 LINE",
"239 109 LINE SMOOTH",
"239 100 OFFCURVE",
"238 95 OFFCURVE",
"236 92 CURVE SMOOTH",
"234 89 OFFCURVE",
"231 87 OFFCURVE",
"228 87 CURVE SMOOTH",
"224 87 OFFCURVE",
"221 89 OFFCURVE",
"219 92 CURVE SMOOTH",
"217 95 OFFCURVE",
"216 100 OFFCURVE",
"216 109 CURVE SMOOTH",
"216 382 LINE SMOOTH",
"216 391 OFFCURVE",
"217 398 OFFCURVE",
"219 401 CURVE SMOOTH",
"221 404 OFFCURVE",
"224 406 OFFCURVE",
"228 406 CURVE SMOOTH",
"231 406 OFFCURVE",
"234 404 OFFCURVE",
"236 401 CURVE SMOOTH",
"238 398 OFFCURVE",
"239 391 OFFCURVE",
"239 382 CURVE SMOOTH",
"239 273 LINE",
"350 273 LINE",
"350 377 LINE SMOOTH",
"350 452 OFFCURVE",
"304 478 OFFCURVE",
"228 478 CURVE SMOOTH",
"151 478 OFFCURVE",
"100 452 OFFCURVE",
"100 377 CURVE SMOOTH",
"100 157 LINE SMOOTH",
"100 47 OFFCURVE",
"142 18 OFFCURVE",
"228 18 CURVE SMOOTH"
);
}
);
userData = {
assembly = "PUSHW[ ]	/* 4 values pushed */\01228 6 81 4 \012CALL[ ]	/* CallFunction */\012PUSHW[ ]	/* 4 values pushed */\0121 6 41 4 \012CALL[ ]	/* CallFunction */\012PUSHW[ ]	/* 1 value pushed */\01228 \012SRP0[ ]	/* SetRefPoint0 */\012PUSHW[ ]	/* 2 values pushed */\01211 6 \012MIRP[10100]	/* MoveIndirectRelPt */\012PUSHW[ ]	/* 1 value pushed */\0121 \012SRP0[ ]	/* SetRefPoint0 */\012PUSHW[ ]	/* 1 value pushed */\01218 \012MDRP[10000]	/* MoveDirectRelPt */\012PUSHW[ ]	/* 1 value pushed */\0121 \012SRP0[ ]	/* SetRefPoint0 */\012PUSHW[ ]	/* 2 values pushed */\01220 6 \012MIRP[10100]	/* MoveIndirectRelPt */\012PUSHW[ ]	/* 1 value pushed */\01234 \012MDRP[10000]	/* MoveDirectRelPt */\012PUSHW[ ]	/* 1 value pushed */\01241 \012SRP0[ ]	/* SetRefPoint0 */\012PUSHW[ ]	/* 1 value pushed */\01236 \012MDRP[10000]	/* MoveDirectRelPt */\012PUSHW[ ]	/* 1 value pushed */\01236 \012MDAP[1]	/* MoveDirectAbsPt */\012PUSHW[ ]	/* 1 value pushed */\01211 \012SRP0[ ]	/* SetRefPoint0 */\012PUSHW[ ]	/* 2 values pushed */\01237 6 \012MIRP[10100]	/* MoveIndirectRelPt */\012PUSHW[ ]	/* 1 value pushed */\01241 \012SRP0[ ]	/* SetRefPoint0 */\012PUSHW[ ]	/* 1 value pushed */\01246 \012MDRP[10000]	/* MoveDirectRelPt */\012PUSHW[ ]	/* 1 value pushed */\01246 \012MDAP[1]	/* MoveDirectAbsPt */\012PUSHW[ ]	/* 1 value pushed */\01237 \012SRP0[ ]	/* SetRefPoint0 */\012PUSHW[ ]	/* 1 value pushed */\01247 \012MDRP[10000]	/* MoveDirectRelPt */\012PUSHW[ ]	/* 1 value pushed */\01220 \012SRP0[ ]	/* SetRefPoint0 */\012PUSHW[ ]	/* 1 value pushed */\01268 \012MDRP[10000]	/* MoveDirectRelPt */\012PUSHW[ ]	/* 1 value pushed */\01268 \012MDAP[1]	/* MoveDirectAbsPt */\012PUSHW[ ]	/* 3 values pushed */\01269 41 1 \012SRP1[ ]	/* SetRefPoint1 */\012SRP2[ ]	/* SetRefPoint2 */\012IP[ ]	/* InterpolatePts */\012PUSHW[ ]	/* 1 value pushed */\01220 \012SRP0[ ]	/* SetRefPoint0 */\012PUSHW[ ]	/* 2 values pushed */\01289 6 \012MIRP[10100]	/* MoveIndirectRelPt */\012PUSHW[ ]	/* 1 value pushed */\01270 \012MDRP[10000]	/* MoveDirectRelPt */\012PUSHW[ ]	/* 1 value pushed */\0121 \012SRP0[ ]	/* SetRefPoint0 */\012PUSHW[ ]	/* 1 value pushed */\01291 \012MDRP[11100]	/* MoveDirectRelPt */\012SVTCA[0]	/* SetFreedomAndProjectionVectorToAxis */\012PUSHW[ ]	/* 1 value pushed */\0120 \012RCVT[ ]	/* ReadCVT */\012IF[ ]	/* If */\012PUSHW[ ]	/* 1 value pushed */\01276 \012MDAP[1]	/* MoveDirectAbsPt */\012ELSE[ ]	/* Else */\012PUSHW[ ]	/* 2 values pushed */\01276 7 \012MIAP[0]	/* MoveIndirectAbsPt */\012EIF[ ]	/* EndIf */\012PUSHW[ ]	/* 4 values pushed */\01269 4 6 4 \012CALL[ ]	/* CallFunction */\012PUSHW[ ]	/* 4 values pushed */\01247 2 36 4 \012CALL[ ]	/* CallFunction */\012PUSHW[ ]	/* 4 values pushed */\01215 4 20 4 \012CALL[ ]	/* CallFunction */\012PUSHW[ ]	/* 1 value pushed */\01276 \012SRP0[ ]	/* SetRefPoint0 */\012PUSHW[ ]	/* 2 values pushed */\0120 4 \012MIRP[10100]	/* MoveIndirectRelPt */\012PUSHW[ ]	/* 1 value pushed */\0126 \012SRP0[ ]	/* SetRefPoint0 */\012PUSHW[ ]	/* 2 values pushed */\01235 4 \012MIRP[10100]	/* MoveIndirectRelPt */\012PUSHW[ ]	/* 1 value pushed */\01215 \012SRP0[ ]	/* SetRefPoint0 */\012PUSHW[ ]	/* 1 value pushed */\01268 \012MDRP[11100]	/* MoveDirectRelPt */\012PUSHW[ ]	/* 1 value pushed */\01220 \012SRP0[ ]	/* SetRefPoint0 */\012PUSHW[ ]	/* 1 value pushed */\01285 \012MDRP[11100]	/* MoveDirectRelPt */\012PUSHW[ ]	/* 1 value pushed */\01269 \012SRP0[ ]	/* SetRefPoint0 */\012PUSHW[ ]	/* 1 value pushed */\01289 \012MDRP[10000]	/* MoveDirectRelPt */\012PUSHW[ ]	/* 1 value pushed */\01289 \012MDAP[1]	/* MoveDirectAbsPt */\012IUP[0]	/* InterpolateUntPts */\012IUP[1]	/* InterpolateUntPts */";
};
width = 450;
}
);
note = C.tabular;
},
{
color = 4;
glyphname = D.ss01;
lastChange = "2021-12-07 22:40:27 +0000";
layers = (
{
layerId = "04A772B0-FA71-43EE-BB43-CAC7F0EBD631";
paths = (
{
closed = 1;
nodes = (
"249 0 LINE SMOOTH",
"330 0 OFFCURVE",
"378 29 OFFCURVE",
"378 120 CURVE SMOOTH",
"378 394 LINE SMOOTH",
"378 453 OFFCURVE",
"345 496 OFFCURVE",
"266 496 CURVE SMOOTH",
"78 496 LINE",
"78 0 LINE"
);
},
{
closed = 1;
nodes = (
"95 478 LINE",
"266 478 LINE SMOOTH",
"334 478 OFFCURVE",
"362 443 OFFCURVE",
"362 394 CURVE SMOOTH",
"362 120 LINE SMOOTH",
"362 41 OFFCURVE",
"318 18 OFFCURVE",
"249 18 CURVE SMOOTH",
"95 18 LINE"
);
},
{
closed = 1;
nodes = (
"249 27 LINE SMOOTH",
"314 27 OFFCURVE",
"353 49 OFFCURVE",
"353 120 CURVE SMOOTH",
"353 394 LINE SMOOTH",
"353 438 OFFCURVE",
"329 469 OFFCURVE",
"266 469 CURVE SMOOTH",
"103 469 LINE",
"103 27 LINE"
);
},
{
closed = 1;
nodes = (
"219 404 LINE",
"230 404 LINE SMOOTH",
"233 404 OFFCURVE",
"236 403 OFFCURVE",
"239 400 CURVE SMOOTH",
"241 397 OFFCURVE",
"242 390 OFFCURVE",
"242 381 CURVE SMOOTH",
"242 109 LINE SMOOTH",
"242 100 OFFCURVE",
"241 95 OFFCURVE",
"239 92 CURVE SMOOTH",
"236 89 OFFCURVE",
"233 87 OFFCURVE",
"230 87 CURVE SMOOTH",
"219 87 LINE"
);
},
{
closed = 1;
nodes = (
"230 95 LINE SMOOTH",
"232 95 OFFCURVE",
"233 100 OFFCURVE",
"233 109 CURVE SMOOTH",
"233 381 LINE SMOOTH",
"233 390 OFFCURVE",
"232 395 OFFCURVE",
"230 395 CURVE SMOOTH",
"228 395 LINE",
"228 95 LINE"
);
}
);
userData = {
assembly = "PUSHW[ ]	/* 4 values pushed */\01214 6 38 4 \012CALL[ ]	/* CallFunction */\012PUSHW[ ]	/* 4 values pushed */\0125 6 23 4 \012CALL[ ]	/* CallFunction */\012PUSHW[ ]	/* 1 value pushed */\01214 \012SRP0[ ]	/* SetRefPoint0 */\012PUSHW[ ]	/* 2 values pushed */\0120 6 \012MIRP[10100]	/* MoveIndirectRelPt */\012PUSHW[ ]	/* 1 value pushed */\0125 \012SRP0[ ]	/* SetRefPoint0 */\012PUSHW[ ]	/* 2 values pushed */\01210 6 \012MIRP[10100]	/* MoveIndirectRelPt */\012PUSHW[ ]	/* 1 value pushed */\01223 \012SRP0[ ]	/* SetRefPoint0 */\012PUSHW[ ]	/* 1 value pushed */\01220 \012MDRP[10000]	/* MoveDirectRelPt */\012PUSHW[ ]	/* 1 value pushed */\01220 \012MDAP[1]	/* MoveDirectAbsPt */\012PUSHW[ ]	/* 1 value pushed */\0120 \012SRP0[ ]	/* SetRefPoint0 */\012PUSHW[ ]	/* 2 values pushed */\01227 6 \012MIRP[10100]	/* MoveIndirectRelPt */\012PUSHW[ ]	/* 1 value pushed */\01210 \012SRP0[ ]	/* SetRefPoint0 */\012PUSHW[ ]	/* 2 values pushed */\01242 6 \012MIRP[10100]	/* MoveIndirectRelPt */\012PUSHW[ ]	/* 1 value pushed */\0125 \012SRP0[ ]	/* SetRefPoint0 */\012PUSHW[ ]	/* 1 value pushed */\01249 \012MDRP[11100]	/* MoveDirectRelPt */\012SVTCA[0]	/* SetFreedomAndProjectionVectorToAxis */\012PUSHW[ ]	/* 1 value pushed */\0120 \012RCVT[ ]	/* ReadCVT */\012IF[ ]	/* If */\012PUSHW[ ]	/* 1 value pushed */\01238 \012MDAP[1]	/* MoveDirectAbsPt */\012ELSE[ ]	/* Else */\012PUSHW[ ]	/* 2 values pushed */\01238 11 \012MIAP[0]	/* MoveIndirectAbsPt */\012EIF[ ]	/* EndIf */\012PUSHW[ ]	/* 1 value pushed */\0120 \012RCVT[ ]	/* ReadCVT */\012IF[ ]	/* If */\012PUSHW[ ]	/* 1 value pushed */\01246 \012MDAP[1]	/* MoveDirectAbsPt */\012ELSE[ ]	/* Else */\012PUSHW[ ]	/* 2 values pushed */\01246 7 \012MIAP[0]	/* MoveIndirectAbsPt */\012EIF[ ]	/* EndIf */\012PUSHW[ ]	/* 3 values pushed */\01223 46 38 \012SRP1[ ]	/* SetRefPoint1 */\012SRP2[ ]	/* SetRefPoint2 */\012IP[ ]	/* InterpolatePts */\012IUP[0]	/* InterpolateUntPts */\012IUP[1]	/* InterpolateUntPts */";
};
width = 450;
}
);
note = D.tabular;
},
{
color = 4;
glyphname = E.ss01;
lastChange = "2021-12-07 22:40:27 +0000";
layers = (
{
anchors = (
{
name = bottom;
position = "{225, 0}";
},
{
name = ogonek;
position = "{350, 0}";
},
{
name = top;
position = "{226, 496}";
},
{
name = topleft;
position = "{42, 591}";
}
);
layerId = "04A772B0-FA71-43EE-BB43-CAC7F0EBD631";
paths = (
{
closed = 1;
nodes = (
"350 0 LINE",
"350 135 LINE",
"269 135 LINE",
"269 180 LINE",
"344 180 LINE",
"344 327 LINE",
"269 327 LINE",
"269 360 LINE",
"350 360 LINE",
"350 496 LINE",
"110 496 LINE",
"110 0 LINE"
);
},
{
closed = 1;
nodes = (
"126 478 LINE",
"334 478 LINE",
"334 377 LINE",
"253 377 LINE",
"253 310 LINE",
"328 310 LINE",
"328 198 LINE",
"253 198 LINE",
"253 117 LINE",
"334 117 LINE",
"334 18 LINE",
"126 18 LINE"
);
},
{
closed = 1;
nodes = (
"326 27 LINE",
"326 108 LINE",
"245 108 LINE",
"245 207 LINE",
"320 207 LINE",
"320 301 LINE",
"245 301 LINE",
"245 386 LINE",
"326 386 LINE",
"326 469 LINE",
"134 469 LINE",
"134 27 LINE"
);
}
);
userData = {
assembly = "PUSHW[ ]	/* 4 values pushed */\0123 6 24 4 \012CALL[ ]	/* CallFunction */\012PUSHW[ ]	/* 4 values pushed */\01230 6 16 4 \012CALL[ ]	/* CallFunction */\012PUSHW[ ]	/* 1 value pushed */\0123 \012SRP0[ ]	/* SetRefPoint0 */\012PUSHW[ ]	/* 2 values pushed */\0120 6 \012MIRP[10100]	/* MoveIndirectRelPt */\012PUSHW[ ]	/* 2 values pushed */\0125 5 \012MIRP[10100]	/* MoveIndirectRelPt */\012PUSHW[ ]	/* 1 value pushed */\0122 \012MDRP[10000]	/* MoveDirectRelPt */\012PUSHW[ ]	/* 1 value pushed */\0122 \012MDAP[1]	/* MoveDirectAbsPt */\012PUSHW[ ]	/* 1 value pushed */\0123 \012SRP0[ ]	/* SetRefPoint0 */\012PUSHW[ ]	/* 1 value pushed */\0127 \012MDRP[10000]	/* MoveDirectRelPt */\012PUSHW[ ]	/* 1 value pushed */\0125 \012SRP0[ ]	/* SetRefPoint0 */\012PUSHW[ ]	/* 1 value pushed */\0129 \012MDRP[10000]	/* MoveDirectRelPt */\012PUSHW[ ]	/* 1 value pushed */\0129 \012MDAP[1]	/* MoveDirectAbsPt */\012PUSHW[ ]	/* 1 value pushed */\01216 \012SRP0[ ]	/* SetRefPoint0 */\012PUSHW[ ]	/* 1 value pushed */\01219 \012MDRP[10000]	/* MoveDirectRelPt */\012PUSHW[ ]	/* 1 value pushed */\01230 \012SRP0[ ]	/* SetRefPoint0 */\012PUSHW[ ]	/* 1 value pushed */\01225 \012MDRP[10000]	/* MoveDirectRelPt */\012PUSHW[ ]	/* 1 value pushed */\01225 \012MDAP[1]	/* MoveDirectAbsPt */\012PUSHW[ ]	/* 1 value pushed */\0120 \012SRP0[ ]	/* SetRefPoint0 */\012PUSHW[ ]	/* 2 values pushed */\01227 6 \012MIRP[10100]	/* MoveIndirectRelPt */\012PUSHW[ ]	/* 1 value pushed */\01231 \012MDRP[10000]	/* MoveDirectRelPt */\012PUSHW[ ]	/* 1 value pushed */\01230 \012SRP0[ ]	/* SetRefPoint0 */\012PUSHW[ ]	/* 1 value pushed */\01233 \012MDRP[10000]	/* MoveDirectRelPt */\012PUSHW[ ]	/* 1 value pushed */\01233 \012MDAP[1]	/* MoveDirectAbsPt */\012PUSHW[ ]	/* 1 value pushed */\01230 \012SRP0[ ]	/* SetRefPoint0 */\012PUSHW[ ]	/* 1 value pushed */\01237 \012MDRP[11100]	/* MoveDirectRelPt */\012SVTCA[0]	/* SetFreedomAndProjectionVectorToAxis */\012PUSHW[ ]	/* 1 value pushed */\0120 \012RCVT[ ]	/* ReadCVT */\012IF[ ]	/* If */\012PUSHW[ ]	/* 1 value pushed */\01224 \012MDAP[1]	/* MoveDirectAbsPt */\012ELSE[ ]	/* Else */\012PUSHW[ ]	/* 2 values pushed */\01224 11 \012MIAP[0]	/* MoveIndirectAbsPt */\012EIF[ ]	/* EndIf */\012PUSHW[ ]	/* 1 value pushed */\0120 \012RCVT[ ]	/* ReadCVT */\012IF[ ]	/* If */\012PUSHW[ ]	/* 1 value pushed */\01234 \012MDAP[1]	/* MoveDirectAbsPt */\012ELSE[ ]	/* Else */\012PUSHW[ ]	/* 2 values pushed */\01234 7 \012MIAP[0]	/* MoveIndirectAbsPt */\012EIF[ ]	/* EndIf */\012PUSHW[ ]	/* 4 values pushed */\01233 4 10 4 \012CALL[ ]	/* CallFunction */\012PUSHW[ ]	/* 4 values pushed */\01217 2 14 4 \012CALL[ ]	/* CallFunction */\012PUSHW[ ]	/* 4 values pushed */\0125 4 30 4 \012CALL[ ]	/* CallFunction */\012PUSHW[ ]	/* 4 values pushed */\01221 2 18 4 \012CALL[ ]	/* CallFunction */\012PUSHW[ ]	/* 1 value pushed */\01224 \012SRP0[ ]	/* SetRefPoint0 */\012PUSHW[ ]	/* 2 values pushed */\0122 4 \012MIRP[10100]	/* MoveIndirectRelPt */\012PUSHW[ ]	/* 2 values pushed */\0121 2 \012MIRP[10100]	/* MoveIndirectRelPt */\012PUSHW[ ]	/* 1 value pushed */\0125 \012SRP0[ ]	/* SetRefPoint0 */\012PUSHW[ ]	/* 2 values pushed */\0126 1 \012MIRP[10100]	/* MoveIndirectRelPt */\012PUSHW[ ]	/* 1 value pushed */\01234 \012SRP0[ ]	/* SetRefPoint0 */\012PUSHW[ ]	/* 2 values pushed */\0128 4 \012MIRP[10100]	/* MoveIndirectRelPt */\012PUSHW[ ]	/* 1 value pushed */\01210 \012SRP0[ ]	/* SetRefPoint0 */\012PUSHW[ ]	/* 2 values pushed */\0129 2 \012MIRP[10100]	/* MoveIndirectRelPt */\012PUSHW[ ]	/* 1 value pushed */\0121 \012SRP0[ ]	/* SetRefPoint0 */\012PUSHW[ ]	/* 2 values pushed */\01226 4 \012MIRP[10100]	/* MoveIndirectRelPt */\012PUSHW[ ]	/* 1 value pushed */\0126 \012SRP0[ ]	/* SetRefPoint0 */\012PUSHW[ ]	/* 2 values pushed */\01229 4 \012MIRP[10100]	/* MoveIndirectRelPt */\012IUP[0]	/* InterpolateUntPts */\012IUP[1]	/* InterpolateUntPts */";
};
width = 450;
}
);
note = E.tabular;
},
